<svg width="56" height="57" viewBox="0 0 56 57" fill="none" xmlns="http://www.w3.org/2000/svg">
<path d="M28.0042 8.89682C38.6211 8.89682 47.262 17.689 47.262 28.4985C47.262 39.308 38.624 48.1002 28.0042 48.1002C17.3843 48.1002 8.74637 39.308 8.74343 28.4985H-0.000244141C-0.000244141 44.2151 12.5633 57 28.0012 57C43.4392 57 55.9998 44.2151 55.9998 28.4985C55.9998 12.7819 43.4392 0 28.0012 0V8.89981L28.0042 8.89682Z" fill="url(#paint0_linear_611_1521)"/>
<g clip-path="url(#clip0_611_1521)">
<path d="M18.6738 29.3425C17.7831 29.3433 16.8904 29.3421 15.9998 29.3425V26.708H18.6738C18.6746 27.5856 18.6726 28.4649 18.6738 29.3425C19.5513 29.3417 20.4304 29.3429 21.3079 29.3425V26.708H23.9819V32.0166C22.2133 32.0182 20.4428 32.0142 18.6742 32.0166C18.6746 32.9074 18.6746 33.8003 18.6742 34.6911C19.5517 34.6927 20.4312 34.6899 21.3083 34.6911C21.3091 35.5687 21.3063 36.4484 21.3083 37.3256C22.199 37.3244 23.0916 37.3264 23.9823 37.3256V34.6911C24.873 34.6903 25.7657 34.6923 26.6563 34.6911C26.6539 32.909 26.6579 31.1246 26.6563 29.3425H29.2904V32.017H30.6474V26.7084H33.2815V32.017H38.769C39.3528 32.017 39.8911 32.682 39.9458 33.2348C40.1188 34.9816 39.8171 37.0059 39.9458 38.7823C39.8623 39.4262 39.408 39.893 38.769 40.0005L33.1053 39.9969C32.625 39.9537 31.9645 39.3475 31.9645 38.8627V34.6915C30.1959 34.6931 28.4253 34.6891 26.6567 34.6915C26.6579 35.5691 26.6559 36.4484 26.6567 37.326H27.9738V40.0005H21.3091C21.3079 39.1097 21.3107 38.2168 21.3091 37.326C20.4316 37.3272 19.5525 37.3248 18.675 37.326C18.6738 38.2168 18.6758 39.1097 18.675 40.0005H15.9998V37.326C16.8904 37.3252 17.7831 37.3272 18.6738 37.326C18.675 36.4484 18.6734 35.5691 18.6738 34.6915C17.7831 34.6899 16.8904 34.6927 15.9998 34.6915V32.017C16.8904 32.0162 17.7831 32.0182 18.6738 32.017C18.6734 31.1262 18.675 30.2334 18.6738 29.3425ZM37.271 34.6911H34.6369V37.3256H37.271V34.6911Z" fill="#BB6194"/>
<path d="M39.945 28.025H37.271V24.0333H33.0605C33.0182 24.0333 32.6801 23.8774 32.615 23.8402C32.2525 23.6352 32.0044 23.2296 31.9636 22.8155C31.7906 21.0686 32.0923 19.0444 31.9636 17.2679C32.0679 16.5573 32.5395 16.1053 33.2587 16.0486C35.0025 15.9115 36.9245 16.1537 38.6871 16.0506C39.213 16.0246 39.945 16.6712 39.945 17.1876V28.0246V28.025ZM37.271 18.7247H34.6369V21.3592H37.271V18.7247Z" fill="#BB6194"/>
<path d="M17.1881 16.0617C18.9703 16.1584 20.9654 15.8938 22.7236 16.0513C23.4177 16.1132 23.8816 16.5872 23.9811 17.2686C23.8672 19.0487 24.1341 21.021 23.9831 22.7778C23.9264 23.4377 23.4509 23.9245 22.8047 24.034C21.0066 23.9101 18.9879 24.1978 17.2157 24.0356C16.5772 23.9768 16.0625 23.4457 15.9998 22.8158L16.0042 17.2327C16.112 16.5952 16.538 16.1396 17.1881 16.0617ZM21.3075 18.725H18.6734V21.3595H21.3075V18.725Z" fill="#BB6194"/>
<path d="M29.2896 22.7168H26.6555V26.7085H29.2896V22.7168Z" fill="#BB6194"/>
<path d="M29.2896 17.3677H26.6555V20.0422H29.2896V17.3677Z" fill="#BB6194"/>
</g>
<defs>
<linearGradient id="paint0_linear_611_1521" x1="27.9998" y1="0" x2="27.9998" y2="57" gradientUnits="userSpaceOnUse">
<stop stop-color="#BB6194"/>
<stop offset="1" stop-color="#FFF3F9"/>
</linearGradient>
<clipPath id="clip0_611_1521">
<rect width="24" height="24" fill="white" transform="translate(15.9998 16)"/>
</clipPath>
</defs>
</svg>
