<svg width="20" height="20" viewBox="0 0 20 20" fill="none"
    xmlns="http://www.w3.org/2000/svg">
    <g clip-path="url(#clip0_147_599)">
        <path d="M0 18.5938C0 13.5418 0 8.48945 0 3.4375C0.0117188 3.40742 0.0273438 3.37852 0.034375 3.34766C0.200781 2.63555 0.704687 2.15313 1.42266 2.05078C1.64336 2.01953 1.87227 2.04609 2.10977 2.04609C2.10977 1.75352 2.10703 1.50039 2.11055 1.24766C2.11836 0.691016 2.45703 0.232422 2.98555 0.0570313C3.03281 0.0410156 3.07852 0.0191406 3.125 0C3.26836 0 3.41133 0 3.55469 0C4.37656 0.296094 4.60703 0.626953 4.60703 1.50977C4.60703 1.67734 4.60703 1.84453 4.60703 2.01562H8.75508C8.75508 1.74648 8.74727 1.49258 8.75664 1.23945C8.77422 0.760937 8.98906 0.392578 9.40898 0.157422C9.53164 0.0882813 9.67227 0.0515625 9.80469 0C9.94805 0 10.091 0 10.2344 0C10.2496 0.0109375 10.2633 0.0269531 10.2801 0.0324219C10.9371 0.236328 11.25 0.65625 11.2516 1.33945C11.252 1.56484 11.2516 1.78984 11.2516 2.02031H15.3937C15.3937 1.75117 15.3859 1.49258 15.3953 1.23438C15.4129 0.755859 15.6297 0.389453 16.0492 0.155469C16.1719 0.0871094 16.3129 0.0507812 16.4453 0C16.5887 0 16.7316 0 16.875 0C16.8898 0.0113281 16.9035 0.0273437 16.9203 0.0328125C17.5832 0.241797 17.8898 0.660156 17.8906 1.3582C17.8906 1.57695 17.8906 1.7957 17.8906 2.03203C18.0711 2.03203 18.232 2.02578 18.3926 2.0332C19.0188 2.06172 19.4953 2.34648 19.7977 2.89531C19.8898 3.0625 19.934 3.25586 20 3.4375V18.5938C19.9863 18.6359 19.9703 18.6777 19.9594 18.7207C19.8184 19.273 19.4887 19.6645 18.9605 19.8824C18.8422 19.9312 18.7164 19.9613 18.5938 20H1.40625C1.36406 19.9863 1.32227 19.9703 1.27969 19.9594C0.728125 19.818 0.335938 19.4895 0.118359 18.9613C0.0691406 18.843 0.0386719 18.7164 0 18.5938ZM0.78125 7.5V7.71797C0.78125 10.7063 0.78125 13.6941 0.78125 16.6824C0.78125 17.3176 1.12109 17.6562 1.75859 17.6562C7.25313 17.6562 12.7473 17.6562 18.2418 17.6562C18.8785 17.6562 19.2184 17.3172 19.2184 16.6816C19.2184 13.6934 19.2184 10.7055 19.2184 7.71719V7.5H18.9598C16.5836 7.5 14.2074 7.5 11.8313 7.49961C11.5469 7.49961 11.3691 7.34688 11.3684 7.11016C11.3676 6.87344 11.5457 6.72188 11.8293 6.71875C11.875 6.71836 11.9203 6.71875 11.966 6.71875C14.3031 6.71875 16.6402 6.71875 18.9773 6.71875H19.2137C19.2137 5.65508 19.2254 4.61445 19.2066 3.57461C19.2008 3.25508 19.007 2.99297 18.6984 2.89531C18.4477 2.81602 18.1715 2.81836 17.8898 2.78242C17.8898 3.02773 17.891 3.21563 17.8898 3.40391C17.8836 4.13008 17.3449 4.68516 16.6457 4.68711C15.9473 4.68906 15.4016 4.13438 15.393 3.41133C15.3906 3.21797 15.393 3.02422 15.393 2.82539H11.2516C11.2516 3.02539 11.2527 3.21328 11.2516 3.40078C11.2457 4.12969 10.7109 4.68398 10.0117 4.68711C9.31406 4.69023 8.76641 4.13633 8.75508 3.41406C8.75195 3.22031 8.75469 3.02656 8.75469 2.82305H4.60703C4.60703 3.02461 4.60898 3.21836 4.60703 3.41172C4.59766 4.13477 4.05195 4.68906 3.35352 4.68711C2.65508 4.68516 2.11602 4.12891 2.11016 3.40352C2.10859 3.21094 2.11016 3.01797 2.11016 2.81289C1.9625 2.81289 1.83984 2.81289 1.71719 2.81289C1.13477 2.81484 0.782813 3.16641 0.782422 3.75039C0.78125 4.675 0.782422 5.59922 0.782422 6.52383C0.782422 6.58594 0.782422 6.64766 0.782422 6.71914H1.04336C3.38711 6.71914 5.73047 6.71914 8.07422 6.71914C8.1457 6.71914 8.21836 6.71484 8.28867 6.72383C8.4875 6.74922 8.6332 6.91641 8.63203 7.11094C8.63125 7.30547 8.48477 7.4707 8.28555 7.49531C8.21484 7.50391 8.14258 7.5 8.07109 7.5C5.72734 7.5 3.38398 7.5 1.04023 7.5H0.782422H0.78125ZM19.1965 18.2066C18.8082 18.45 18.3793 18.4391 17.9484 18.4391C12.8906 18.4367 7.83242 18.4422 2.77461 18.4324C2.10977 18.4312 1.42344 18.5695 0.790234 18.2086C0.757031 18.841 1.11602 19.2188 1.72813 19.2188C7.2418 19.2188 12.7555 19.2188 18.2691 19.2188C18.3211 19.2188 18.3734 19.2199 18.4254 19.216C18.9262 19.177 19.2762 18.7293 19.1969 18.2066H19.1965ZM2.89062 2.34336C2.89062 2.68828 2.88906 3.03359 2.89102 3.37852C2.89297 3.68984 3.07656 3.89883 3.34727 3.90469C3.62461 3.91094 3.82344 3.69648 3.82461 3.37891C3.82734 2.68867 3.82734 1.99883 3.82461 1.30859C3.82344 0.990234 3.62539 0.776563 3.34766 0.782422C3.07617 0.788281 2.89297 0.996875 2.89102 1.3082C2.88867 1.65313 2.89062 1.99844 2.89062 2.34336ZM17.1094 2.3625C17.1094 2.0043 17.1121 1.64648 17.1086 1.28828C17.1055 0.992578 16.9172 0.787891 16.652 0.782422C16.3809 0.776953 16.1773 0.986719 16.1758 1.28945C16.1723 1.99258 16.1719 2.6957 16.1758 3.39883C16.1773 3.70117 16.3824 3.91094 16.6535 3.90469C16.9184 3.89844 17.1059 3.69336 17.1086 3.39766C17.1121 3.05273 17.1094 2.70742 17.1094 2.3625ZM10.4703 2.34336C10.4703 1.9918 10.4727 1.64023 10.4695 1.28867C10.4668 0.992188 10.2801 0.787891 10.0145 0.782422C9.74375 0.776563 9.53906 0.985937 9.53711 1.28906C9.53281 1.99219 9.53281 2.69531 9.53711 3.39805C9.53906 3.70117 9.74414 3.91055 10.0148 3.90469C10.2801 3.89883 10.4668 3.69414 10.4695 3.39766C10.4727 3.04609 10.4703 2.69453 10.4703 2.34297V2.34336Z" fill="#23955D" />
        <path d="M8.25548 16.0547C7.68673 16.0231 7.27071 15.5317 7.36212 14.9778C7.43595 14.5289 7.50782 14.0797 7.59376 13.6332C7.61563 13.5188 7.58516 13.4543 7.50782 13.3805C7.19727 13.084 6.89415 12.7801 6.58477 12.4824C6.30196 12.2106 6.18477 11.8899 6.31134 11.5102C6.43712 11.1324 6.71798 10.9422 7.10938 10.8918C7.53477 10.8371 7.95938 10.7746 8.38165 10.7C8.45977 10.6864 8.55391 10.6145 8.59141 10.5434C8.79181 10.1645 8.9797 9.77893 9.16563 9.3926C9.33634 9.03792 9.60704 8.83089 10.0055 8.83167C10.4051 8.83245 10.6723 9.04495 10.8426 9.39807C11.0285 9.7844 11.2152 10.1703 11.4156 10.5492C11.4524 10.6192 11.5504 10.686 11.6293 10.6992C12.0711 10.775 12.5164 10.8309 12.9594 10.9004C13.3168 10.9563 13.5695 11.1532 13.6891 11.4977C13.8117 11.8512 13.7281 12.168 13.4688 12.4305C13.1535 12.7496 12.8297 13.061 12.5051 13.3711C12.4234 13.4492 12.3875 13.518 12.4117 13.6399C12.4965 14.0735 12.5629 14.5106 12.6375 14.9461C12.7004 15.3125 12.593 15.6207 12.2969 15.8438C11.9938 16.0719 11.6602 16.0875 11.3238 15.9141C10.9484 15.7207 10.5731 15.527 10.2043 15.3207C10.0649 15.2426 9.95548 15.2352 9.81212 15.3168C9.46212 15.516 9.1047 15.7024 8.74337 15.8801C8.58946 15.9559 8.41876 15.9981 8.25587 16.0551L8.25548 16.0547ZM8.13126 15.111C8.1297 15.2356 8.21095 15.2762 8.35977 15.1992C8.81016 14.9664 9.26251 14.7371 9.70548 14.4907C9.91759 14.3723 10.1024 14.3805 10.3102 14.4953C10.7367 14.7313 11.1699 14.9551 11.6035 15.1778C11.6668 15.2102 11.7473 15.2082 11.8199 15.2219C11.8297 15.1442 11.8582 15.0633 11.8465 14.9887C11.7688 14.4942 11.6887 14 11.5957 13.5082C11.5563 13.2992 11.6133 13.1453 11.7637 13.0024C12.1266 12.6571 12.4836 12.3051 12.8387 11.9512C12.8895 11.9008 12.9156 11.8258 12.9527 11.7621C12.882 11.7266 12.8145 11.6707 12.7399 11.659C12.2516 11.5821 11.7629 11.5094 11.2727 11.4465C11.0594 11.4192 10.9145 11.3274 10.8207 11.1293C10.6063 10.677 10.3828 10.2293 10.1559 9.78323C10.1215 9.71604 10.0492 9.668 9.99454 9.61096C9.94493 9.66604 9.88087 9.71331 9.84845 9.77698C9.62227 10.2235 9.39727 10.6707 9.1836 11.1231C9.09024 11.3207 8.94923 11.4176 8.73556 11.4457C8.23282 11.5114 7.73126 11.5871 7.23009 11.6653C7.16759 11.675 7.07657 11.7141 7.06212 11.7594C7.04766 11.8047 7.10079 11.8879 7.14571 11.9328C7.46837 12.2547 7.78438 12.5844 8.12657 12.8844C8.38126 13.1078 8.46016 13.3418 8.38243 13.6758C8.27345 14.1434 8.21368 14.6227 8.13048 15.1102L8.13126 15.111Z" fill="#F6A61D" />
        <path d="M10.3891 7.10347C10.3922 7.31831 10.211 7.50073 9.99611 7.49839C9.78869 7.49604 9.61447 7.323 9.61095 7.11479C9.60744 6.89995 9.78869 6.71753 10.0039 6.71987C10.2117 6.72221 10.386 6.89565 10.3891 7.10307V7.10347Z" fill="#F6A61D" />
    </g>
    <defs>
        <clipPath id="clip0_147_599">
            <rect width="20" height="20" fill="white" />
        </clipPath>
    </defs>
</svg>