<svg width="197" height="70" viewBox="0 0 197 70" fill="none"
    xmlns="http://www.w3.org/2000/svg">
    <path d="M122.329 47.5902C119.976 47.5902 118.384 47.198 117.179 46.7476L118.599 40.6609C119.417 40.9514 120.263 41.0967 121.124 41.1112C123.749 41.1112 124.524 39.3244 124.524 35.8089V12.377H132.586V35.591C132.586 42.2879 130.061 47.5902 122.329 47.5902Z" fill="white" />
    <path fill-rule="evenodd" clip-rule="evenodd" d="M150.935 43.5373C160.547 43.5373 166.357 36.3755 166.357 28.0516C166.357 19.7277 160.547 12.6676 150.935 12.6676C141.323 12.6676 135.613 19.7277 135.613 28.0516C135.613 36.3755 141.423 43.5373 150.935 43.5373ZM150.935 36.5934C146.186 36.5934 143.532 32.6421 143.532 28.0516C143.532 23.4611 146.172 19.5098 150.935 19.5098C155.698 19.5098 158.438 23.4611 158.438 28.0516C158.438 32.6421 155.798 36.5934 150.935 36.5934Z" fill="white" />
    <path fill-rule="evenodd" clip-rule="evenodd" d="M169.169 0H176.729V13.4229H182.152C184.103 13.4229 186.025 13.8151 187.833 14.5705C189.626 15.3259 191.276 16.4299 192.653 17.8245C194.03 19.2191 195.121 20.8752 195.867 22.7056C196.613 24.536 197 26.4826 197 28.4582C197 32.4386 195.436 36.2737 192.653 39.0919C189.87 41.9102 186.097 43.4936 182.166 43.4936H169.183V0.0145272L169.169 0ZM176.729 34.5014V36.8257H181.047C182.152 36.8257 183.242 36.6078 184.261 36.172C185.279 35.7507 186.212 35.1116 186.986 34.3271C187.761 33.5426 188.378 32.5984 188.808 31.567C189.224 30.5356 189.454 29.4315 189.454 28.313C189.454 26.0613 188.565 23.8968 187.001 22.2988C185.423 20.7009 183.285 19.8147 181.062 19.8147H176.758V34.5014H176.729Z" fill="white" />
    <path d="M46.0508 43.6388C55.5049 43.6388 61.2003 36.6078 61.2003 28.4146C61.2003 20.2214 55.4905 13.2921 46.0508 13.2921C36.6111 13.2921 31.0018 20.2214 31.0018 28.4146C31.0018 36.6078 36.7116 43.6388 46.0508 43.6388ZM46.0508 36.8112C41.3884 36.8112 38.7917 32.9325 38.7917 28.4146C38.7917 23.8968 41.3884 20.0181 46.0508 20.0181C50.7133 20.0181 53.4104 23.9113 53.4104 28.4146C53.4104 32.918 50.8137 36.8112 46.0508 36.8112ZM76.1489 43.6388C84.0392 43.6388 88.6012 39.7456 88.6012 34.3997C88.6012 22.7491 71.5868 26.3082 71.5868 22.1245C71.5868 20.541 73.3514 19.2917 76.0484 19.2917C79.5776 19.2917 82.7911 20.8752 84.5556 22.6474L87.5827 17.287C84.2974 14.6722 80.2231 13.2631 76.0484 13.3066C68.4881 13.3066 64.3277 17.5194 64.3277 22.4441C64.3277 33.7751 81.2417 29.8964 81.2417 34.6176C81.2417 36.4044 79.678 37.6828 76.4645 37.6828C72.9354 37.6828 68.6889 35.6926 66.6087 33.6879L63.3809 39.1064C66.4939 41.9537 71.2712 43.6388 76.1489 43.6388ZM103.378 43.6388C111.268 43.6388 115.83 39.7456 115.83 34.3997C115.83 22.7491 98.83 26.3082 98.83 22.1245C98.83 20.541 100.595 19.2917 103.292 19.2917C106.821 19.2917 110.034 20.8752 111.799 22.6474L114.826 17.287C111.541 14.6722 107.481 13.2776 103.306 13.2921C95.7312 13.2921 91.5852 17.5049 91.5852 22.4295C91.5852 33.7605 108.499 29.8818 108.499 34.6031C108.499 36.3899 106.936 37.6683 103.722 37.6683C100.193 37.6683 95.9464 35.6781 93.8662 33.6734L90.624 39.1064C93.6367 41.9537 98.3996 43.6388 103.378 43.6388Z" fill="white" />
    <path fill-rule="evenodd" clip-rule="evenodd" d="M0.0287201 0H7.61775V13.4955H13.0693C15.0347 13.4955 16.9714 13.8877 18.779 14.6431C20.5866 15.3985 22.2364 16.5171 23.6136 17.9262C25.0052 19.3353 26.0955 20.9914 26.8415 22.8218C27.5875 24.6522 27.9748 26.6133 27.9748 28.6035C27.9748 32.6129 26.3968 36.4626 23.5993 39.2953C20.8018 42.1281 17.0001 43.726 13.0549 43.726H0V0.0145272L0.0287201 0ZM7.61775 34.6903V37.0291H11.9503C13.0549 37.0291 14.1596 36.7967 15.1781 36.3754C16.1967 35.9396 17.1292 35.3149 17.9183 34.516C18.7073 33.717 19.3242 32.7727 19.7545 31.7413C20.1849 30.7099 20.4001 29.5913 20.4001 28.4728C20.4001 26.2066 19.5106 24.0275 17.9326 22.4296C16.3545 20.8316 14.2026 19.9309 11.9646 19.9309H7.63211V34.6903H7.61775Z" fill="white" />
    <path d="M123.505 4.86651C123.505 7.59758 125.485 9.63134 128.211 9.63134C128.828 9.64587 129.459 9.52965 130.033 9.29722C130.606 9.06479 131.137 8.71615 131.582 8.26581C132.027 7.81548 132.371 7.29251 132.601 6.71143C132.83 6.13036 132.945 5.5057 132.931 4.86651C132.931 2.00471 130.908 0.101685 128.225 0.101685C125.542 0.101685 123.519 2.00471 123.519 4.86651H123.505Z" fill="#FED766" />
    <path fill-rule="evenodd" clip-rule="evenodd" d="M42.2348 67.5212L44.3723 66.1702L44.4297 66.2573C44.9749 67.129 45.7065 67.4921 46.4812 67.4921C47.0981 67.4921 47.5428 67.3469 47.8441 67.0127C48.1454 66.6786 48.3032 66.1411 48.3032 65.2986V57.0473H51.3589V65.5019C51.3589 66.6786 51.0146 67.7536 50.2686 68.5526C49.5226 69.337 48.3893 69.8164 46.8255 69.8164C44.7023 69.8164 43.2821 69.0756 42.2922 67.6083L42.2348 67.5212ZM17.1866 69.584V60.0543H19.6828L19.8693 61.2601C20.8161 60.4756 21.9208 59.8219 23.3984 59.8219C24.5891 59.8219 25.4499 60.1851 26.0238 60.8533C26.5833 61.5216 26.8415 62.4803 26.8415 63.6716V69.584H23.8001V63.9621C23.8001 63.2503 23.6853 62.7854 23.4558 62.5094C23.2263 62.2334 22.882 62.1027 22.3655 62.1027C21.5191 62.1027 20.9883 62.4368 20.1993 63.105V69.5695H17.1866V69.584ZM11.7064 69.584V60.0543H14.7191V69.584H11.7064ZM1.00425 69.584V57.0473H10.0279V59.299H4.07428V62.3206H9.16716V64.5868H4.07428V69.584H1.01861H1.00425ZM67.8281 55.9868V59.9527H69.4779C70.1092 59.9527 70.7404 60.0834 71.3286 60.3304C71.9168 60.5773 72.4476 60.955 72.9067 61.4199C73.3514 61.8847 73.71 62.4368 73.9539 63.0469C74.1978 63.657 74.3269 64.3107 74.3269 64.9644C74.3269 66.2864 73.8105 67.5648 72.9067 68.509C72.0029 69.4533 70.7691 69.9762 69.4779 69.9762H65.2172V56.0013H67.8281V55.9868ZM69.2197 67.681C69.5353 67.681 69.851 67.5938 70.1379 67.4776C70.4678 67.3323 70.7547 67.129 71.013 66.882C71.2568 66.6205 71.4577 66.3155 71.6012 65.9813C71.7303 65.6472 71.802 65.284 71.802 64.9209C71.802 64.18 71.5151 63.4827 71.013 62.9597C70.5108 62.4368 69.8223 62.1462 69.105 62.1462H67.7277V66.9401V67.6955H69.105C69.105 67.6955 69.1767 67.6955 69.2054 67.6955L69.2197 67.681ZM35.0331 55.9868H37.6441V69.9617H33.3833C32.0922 69.9617 30.8584 69.4387 29.9546 68.4945C29.0508 67.5502 28.5343 66.2864 28.5343 64.9499C28.5343 64.2962 28.6634 63.6425 28.9073 63.0324C29.1512 62.4222 29.5098 61.8702 29.9546 61.4054C30.3993 60.9405 30.9445 60.5773 31.5326 60.3158C32.1208 60.0689 32.7521 59.9381 33.3833 59.9381H35.0331V55.9723V55.9868ZM35.1335 67.681V66.9256V62.1317H33.7563C33.039 62.1317 32.3647 62.4222 31.8483 62.9452C31.3461 63.4682 31.0592 64.18 31.0592 64.9063C31.0592 65.2695 31.131 65.6327 31.2601 65.9668C31.3892 66.3009 31.59 66.606 31.8483 66.8675C32.0921 67.129 32.3934 67.3323 32.7233 67.4631C33.0103 67.5938 33.3259 67.6665 33.6415 67.6665C33.6702 67.6665 33.7133 67.6665 33.7419 67.6665H35.1192L35.1335 67.681ZM63.467 64.703C63.467 67.5067 61.5302 69.9181 58.3167 69.9181C55.1032 69.9181 53.1952 67.5067 53.1952 64.703C53.1952 63.3084 53.6686 62.001 54.558 61.0567C55.4331 60.1125 56.7243 59.5169 58.3167 59.5169C61.5302 59.5169 63.467 61.8993 63.467 64.703ZM14.9343 57.7155C14.9343 58.6598 14.1883 59.4152 13.2558 59.4152C12.3233 59.4152 11.5773 58.6598 11.5773 57.7155C11.5773 56.7713 12.3233 56.0159 13.2558 56.0159C14.1883 56.0159 14.9343 56.7713 14.9343 57.7155ZM58.3167 67.5212C56.753 67.5212 55.8923 66.2138 55.8923 64.6884C55.8923 63.1631 56.753 61.8557 58.3167 61.8557C59.8804 61.8557 60.7699 63.1631 60.7699 64.6884C60.7699 66.2138 59.9091 67.5212 58.3167 67.5212Z" fill="white" />
    <path d="M79.1472 68.262C79.1472 69.2063 78.4012 69.9617 77.4687 69.9617C76.5362 69.9617 75.7902 69.2063 75.7902 68.262C75.7902 67.3178 76.5362 66.5624 77.4687 66.5624C78.4012 66.5624 79.1472 67.3178 79.1472 68.262Z" fill="white" />
    <path fill-rule="evenodd" clip-rule="evenodd" d="M156.2 57.0907H151.365V69.6274H156.573C158.165 69.6274 159.571 69.3369 160.575 68.7268C161.594 68.1166 162.211 67.1724 162.211 65.894C162.211 65.0369 161.91 64.3542 161.422 63.8602C160.963 63.3954 160.346 63.0903 159.643 62.9305C160.791 62.4947 161.479 61.3471 161.479 60.2285C161.479 59.6329 161.336 59.139 161.063 58.7322C160.791 58.3255 160.403 58.0059 159.93 57.7589C158.983 57.2795 157.663 57.0907 156.185 57.0907H156.2ZM155.985 62.1025H154.421V59.168H156.028C156.888 59.168 157.505 59.2697 157.907 59.5022C158.108 59.6184 158.251 59.7636 158.352 59.938C158.452 60.1123 158.495 60.3302 158.495 60.5917C158.495 61.0565 158.309 61.4197 157.907 61.6812C157.505 61.9427 156.874 62.1025 155.97 62.1025H155.985ZM156.315 67.521H154.421V64.1363H156.315C157.305 64.1363 158.036 64.267 158.524 64.5285C158.768 64.6592 158.94 64.819 159.069 65.0224C159.184 65.2258 159.256 65.4582 159.256 65.7487C159.256 66.3589 159.012 66.7947 158.524 67.0852C158.036 67.3758 157.304 67.5355 156.329 67.5355L156.315 67.521Z" fill="white" />
    <path fill-rule="evenodd" clip-rule="evenodd" d="M129.258 66.2573V62.2188H127.723V60.2141L129.387 60.0979V57.5847H132.285V60.0833H134.953V62.2188H132.285V66.2573C132.285 66.7803 132.414 67.1434 132.629 67.3759C132.859 67.6083 133.189 67.7245 133.662 67.7245C133.992 67.7245 134.408 67.6228 134.695 67.5357L134.796 67.5066L135.312 69.4823L135.226 69.5113C134.638 69.6856 133.877 69.86 132.916 69.86C131.611 69.86 130.693 69.5113 130.104 68.8721C129.516 68.2329 129.258 67.3323 129.258 66.2718V66.2573Z" fill="white" />
    <path fill-rule="evenodd" clip-rule="evenodd" d="M115.945 56.1174H112.99V69.6129H115.945V67.216L117.408 65.7924L120.005 69.6129H123.319L119.144 64.0055L123.003 60.0833H119.632L115.93 64.0491V56.1029L115.945 56.1174Z" fill="white" />
    <path fill-rule="evenodd" clip-rule="evenodd" d="M110.278 56.1174H107.265V66.9109C107.265 67.7825 107.438 68.5234 107.882 69.0464C108.327 69.5694 109.03 69.8599 110.034 69.8599C110.709 69.8599 111.196 69.7582 111.541 69.642L111.612 69.6129L111.225 67.6228H111.139C110.952 67.6663 110.881 67.6663 110.766 67.6663C110.651 67.6663 110.536 67.6228 110.436 67.5356C110.35 67.4484 110.278 67.2886 110.278 67.0272V56.1174Z" fill="white" />
    <path fill-rule="evenodd" clip-rule="evenodd" d="M97.2089 64.5721C98.2274 64.0055 99.7768 63.6424 101.9 63.439C101.871 63.0322 101.742 62.6981 101.498 62.4366C101.24 62.1751 100.81 62.0008 100.164 62.0008C99.1743 62.0008 98.2275 62.3785 97.2232 62.8724L97.1515 62.916L96.0181 61.1437L96.1042 61.1001C97.3954 60.4174 98.9591 59.8508 100.681 59.8508C102.072 59.8508 103.134 60.214 103.865 60.9258C104.583 61.6376 104.941 62.6981 104.941 64.0636V69.6129H102.445L102.244 68.6396C101.298 69.3224 100.222 69.8454 98.9878 69.8454C97.9979 69.8454 97.1802 69.5403 96.592 69.0318C96.0038 68.5234 95.6738 67.7971 95.6738 66.9835C95.6738 66.4606 95.7886 66.0102 96.0468 65.6035C96.3051 65.1967 96.6924 64.8626 97.2089 64.5721ZM99.9202 67.7389C100.681 67.7389 101.254 67.4339 101.914 66.8673V65.1386C100.666 65.2839 99.8342 65.5163 99.3034 65.7923C99.0308 65.9376 98.8587 66.0974 98.7439 66.2572C98.6291 66.417 98.5861 66.5913 98.5861 66.7802C98.5861 67.1143 98.7152 67.3467 98.9447 67.5065C99.1743 67.6663 99.5186 67.7389 99.9202 67.7389Z" fill="white" />
    <path fill-rule="evenodd" clip-rule="evenodd" d="M89.046 59.328V69.613H92.1017V59.328H96.1616V57.0763H85.0147V59.328H89.046Z" fill="white" />
    <path fill-rule="evenodd" clip-rule="evenodd" d="M140.72 59.5603C139.114 59.5603 137.837 60.1559 136.962 61.1002C136.087 62.0444 135.599 63.3373 135.599 64.7464C135.599 67.5501 137.536 69.9616 140.72 69.9616C143.905 69.9616 145.871 67.5501 145.871 64.7464C145.871 61.9427 143.92 59.5603 140.72 59.5603ZM140.72 67.4629C139.974 67.4629 139.386 67.1434 138.999 66.6494C138.597 66.1555 138.396 65.4728 138.396 64.7319C138.396 63.991 138.612 63.3082 138.999 62.8143C139.386 62.3204 139.974 62.0008 140.72 62.0008C141.466 62.0008 142.069 62.3204 142.471 62.8143C142.872 63.3082 143.088 63.991 143.088 64.7319C143.088 65.4728 142.872 66.1555 142.471 66.6494C142.069 67.1434 141.481 67.4629 140.72 67.4629Z" fill="white" />
    <path fill-rule="evenodd" clip-rule="evenodd" d="M168.351 59.5603C166.744 59.5603 165.467 60.1559 164.592 61.1002C163.717 62.0444 163.229 63.3373 163.229 64.7464C163.229 67.5501 165.166 69.9616 168.351 69.9616C171.536 69.9616 173.501 67.5501 173.501 64.7464C173.501 61.9427 171.55 59.5603 168.351 59.5603ZM168.351 67.4629C167.605 67.4629 167.017 67.1434 166.629 66.6494C166.228 66.1555 166.027 65.4728 166.027 64.7319C166.027 63.991 166.242 63.3082 166.629 62.8143C167.017 62.3204 167.605 62.0008 168.351 62.0008C169.097 62.0008 169.699 62.3204 170.101 62.8143C170.503 63.3082 170.718 63.991 170.718 64.7319C170.718 65.4728 170.503 66.1555 170.101 66.6494C169.699 67.1434 169.111 67.4629 168.351 67.4629Z" fill="white" />
    <path fill-rule="evenodd" clip-rule="evenodd" d="M184.906 66.911L184.835 66.8675L183.744 68.6252L183.83 68.6833C184.906 69.4678 186.283 69.9617 187.761 69.9617C189.239 69.9617 190.286 69.6276 191.032 69.0755C191.778 68.5235 192.165 67.7536 192.165 66.911C192.165 66.0104 191.749 65.3857 191.147 64.9499C190.559 64.5141 189.784 64.2381 189.067 64.0056C188.938 63.9621 188.823 63.933 188.694 63.8894C188.263 63.7587 187.862 63.6279 187.546 63.4827C187.144 63.2938 186.929 63.0759 186.929 62.7999C186.929 62.5675 187.03 62.3786 187.245 62.2334C187.46 62.0881 187.79 62.0009 188.278 62.0009C189.067 62.0009 190.085 62.4948 190.86 62.9597L190.932 63.0033L192.008 61.0857L191.907 61.0276C190.989 60.432 189.813 59.9817 188.206 59.9817C186.972 59.9817 185.939 60.2868 185.222 60.7952C184.505 61.3182 184.089 62.059 184.089 62.9452C184.089 63.7587 184.505 64.3543 185.093 64.7901C185.681 65.2259 186.427 65.531 187.116 65.7489C187.202 65.7779 187.288 65.807 187.359 65.836C187.847 65.9958 188.306 66.1556 188.651 66.33C189.067 66.5479 189.296 66.7803 189.296 67.0563C189.296 67.3178 189.196 67.5357 188.966 67.681C188.737 67.8408 188.364 67.9424 187.833 67.9424C186.857 67.9424 185.867 67.5647 184.906 66.9256V66.911Z" fill="white" />
    <path fill-rule="evenodd" clip-rule="evenodd" d="M184.906 66.911L184.835 66.8675L183.744 68.6252L183.83 68.6833C184.906 69.4678 186.283 69.9617 187.761 69.9617C189.239 69.9617 190.286 69.6276 191.032 69.0755C191.778 68.5235 192.165 67.7536 192.165 66.911C192.165 66.0104 191.749 65.3857 191.147 64.9499C190.559 64.5141 189.784 64.2381 189.067 64.0056C188.938 63.9621 188.823 63.933 188.694 63.8894C188.263 63.7587 187.862 63.6279 187.546 63.4827C187.144 63.2938 186.929 63.0759 186.929 62.7999C186.929 62.5675 187.03 62.3786 187.245 62.2334C187.46 62.0881 187.79 62.0009 188.278 62.0009C189.067 62.0009 190.085 62.4948 190.86 62.9597L190.932 63.0033L192.008 61.0857L191.907 61.0276C190.989 60.432 189.813 59.9817 188.206 59.9817C186.972 59.9817 185.939 60.2868 185.222 60.7952C184.505 61.3182 184.089 62.059 184.089 62.9452C184.089 63.7587 184.505 64.3543 185.093 64.7901C185.681 65.2259 186.427 65.531 187.116 65.7489C187.202 65.7779 187.288 65.807 187.359 65.836C187.847 65.9958 188.306 66.1556 188.651 66.33C189.067 66.5479 189.296 66.7803 189.296 67.0563C189.296 67.3178 189.196 67.5357 188.966 67.681C188.737 67.8408 188.364 67.9424 187.833 67.9424C186.857 67.9424 185.867 67.5647 184.906 66.9256V66.911Z" fill="white" />
    <path fill-rule="evenodd" clip-rule="evenodd" d="M175.696 66.911L175.624 66.8675L174.534 68.6252L174.62 68.6833C175.696 69.4678 177.073 69.9617 178.551 69.9617C180.029 69.9617 181.076 69.6276 181.822 69.0755C182.568 68.5235 182.955 67.7536 182.955 66.911C182.955 66.0104 182.539 65.3857 181.937 64.9499C181.348 64.5141 180.574 64.2381 179.856 64.0056C179.727 63.9621 179.613 63.933 179.483 63.8894C179.053 63.7587 178.651 63.6279 178.336 63.4827C177.934 63.2938 177.719 63.0759 177.719 62.7999C177.719 62.5675 177.819 62.3786 178.035 62.2334C178.25 62.0881 178.58 62.0009 179.053 62.0009C179.842 62.0009 180.861 62.4948 181.635 62.9597L181.707 63.0033L182.783 61.0857L182.683 61.0276C181.764 60.432 180.588 59.9817 178.981 59.9817C177.748 59.9817 176.715 60.2868 175.997 60.7952C175.28 61.3182 174.864 62.059 174.864 62.9452C174.864 63.7587 175.28 64.3543 175.868 64.7901C176.456 65.2259 177.202 65.531 177.891 65.7489C177.977 65.7779 178.063 65.807 178.135 65.836C178.623 65.9958 179.082 66.1556 179.426 66.33C179.842 66.5479 180.072 66.7803 180.072 67.0563C180.072 67.3178 179.971 67.5357 179.742 67.681C179.512 67.8408 179.139 67.9424 178.608 67.9424C177.633 67.9424 176.643 67.5647 175.682 66.9256L175.696 66.911Z" fill="white" />
    <path fill-rule="evenodd" clip-rule="evenodd" d="M175.696 66.911L175.624 66.8675L174.534 68.6252L174.62 68.6833C175.696 69.4678 177.073 69.9617 178.551 69.9617C180.029 69.9617 181.076 69.6276 181.822 69.0755C182.568 68.5235 182.955 67.7536 182.955 66.911C182.955 66.0104 182.539 65.3857 181.937 64.9499C181.348 64.5141 180.574 64.2381 179.856 64.0056C179.727 63.9621 179.613 63.933 179.483 63.8894C179.053 63.7587 178.651 63.6279 178.336 63.4827C177.934 63.2938 177.719 63.0759 177.719 62.7999C177.719 62.5675 177.819 62.3786 178.035 62.2334C178.25 62.0881 178.58 62.0009 179.053 62.0009C179.842 62.0009 180.861 62.4948 181.635 62.9597L181.707 63.0033L182.783 61.0857L182.683 61.0276C181.764 60.432 180.588 59.9817 178.981 59.9817C177.748 59.9817 176.715 60.2868 175.997 60.7952C175.28 61.3182 174.864 62.059 174.864 62.9452C174.864 63.7587 175.28 64.3543 175.868 64.7901C176.456 65.2259 177.202 65.531 177.891 65.7489C177.977 65.7779 178.063 65.807 178.135 65.836C178.623 65.9958 179.082 66.1556 179.426 66.33C179.842 66.5479 180.072 66.7803 180.072 67.0563C180.072 67.3178 179.971 67.5357 179.742 67.681C179.512 67.8408 179.139 67.9424 178.608 67.9424C177.633 67.9424 176.643 67.5647 175.682 66.9256L175.696 66.911Z" fill="white" />
    <path d="M196.986 68.262C196.986 69.2063 196.24 69.9617 195.307 69.9617C194.375 69.9617 193.629 69.2063 193.629 68.262C193.629 67.3178 194.375 66.5624 195.307 66.5624C196.24 66.5624 196.986 67.3178 196.986 68.262Z" fill="white" />
</svg>