<svg width="109" height="39" viewBox="0 0 109 39" fill="none" xmlns="http://www.w3.org/2000/svg">
<path d="M67.1064 26.1067C65.8157 26.1067 64.9422 25.8916 64.2811 25.6445L65.0602 22.3055C65.5088 22.4649 65.9731 22.5446 66.4453 22.5525C67.8855 22.5525 68.3105 21.5723 68.3105 19.6438V6.78967H72.7334V19.5243C72.7334 23.198 71.3483 26.1067 67.1064 26.1067Z" fill="#2378E5"/>
<path fill-rule="evenodd" clip-rule="evenodd" d="M82.7989 23.8834C88.0717 23.8834 91.259 19.9546 91.259 15.3884C91.259 10.8221 88.0717 6.9491 82.7989 6.9491C77.5261 6.9491 74.3939 10.8221 74.3939 15.3884C74.3939 19.9546 77.5812 23.8834 82.7989 23.8834ZM82.7989 20.0742C80.194 20.0742 78.7381 17.9066 78.7381 15.3884C78.7381 12.8701 80.1861 10.7025 82.7989 10.7025C85.4117 10.7025 86.9149 12.8701 86.9149 15.3884C86.9149 17.9066 85.4668 20.0742 82.7989 20.0742Z" fill="#2378E5"/>
<path fill-rule="evenodd" clip-rule="evenodd" d="M92.8015 0H96.949V7.36344H99.9238C100.994 7.36344 102.049 7.5786 103.04 7.993C104.024 8.40739 104.929 9.01304 105.685 9.77807C106.44 10.5431 107.038 11.4516 107.447 12.4557C107.857 13.4598 108.069 14.5276 108.069 15.6114C108.069 17.795 107.211 19.8988 105.685 21.4448C104.158 22.9908 102.088 23.8595 99.9316 23.8595H92.8094V0.00796927L92.8015 0ZM96.949 18.9266V20.2016H99.3178C99.9238 20.2016 100.522 20.0821 101.081 19.843C101.639 19.6119 102.151 19.2613 102.576 18.831C103.001 18.4006 103.339 17.8826 103.575 17.3168C103.804 16.751 103.93 16.1454 103.93 15.5318C103.93 14.2965 103.442 13.1092 102.584 12.2326C101.718 11.356 100.546 10.8698 99.3257 10.8698H96.9647V18.9266H96.949Z" fill="#2378E5"/>
<path d="M25.2623 23.9391C30.4485 23.9391 33.5729 20.0821 33.5729 15.5875C33.5729 11.0929 30.4407 7.29169 25.2623 7.29169C20.0839 7.29169 17.0068 11.0929 17.0068 15.5875C17.0068 20.0821 20.139 23.9391 25.2623 23.9391ZM25.2623 20.1936C22.7046 20.1936 21.2801 18.0659 21.2801 15.5875C21.2801 13.1091 22.7046 10.9814 25.2623 10.9814C27.82 10.9814 29.2995 13.1171 29.2995 15.5875C29.2995 18.0579 27.8751 20.1936 25.2623 20.1936ZM41.7733 23.9391C46.1017 23.9391 48.6043 21.8034 48.6043 18.8708C48.6043 12.4796 39.2707 14.432 39.2707 12.1369C39.2707 11.2683 40.2387 10.5829 41.7182 10.5829C43.6542 10.5829 45.417 11.4516 46.385 12.4238L48.0456 9.48319C46.2434 8.04875 44.0083 7.27575 41.7182 7.29966C37.5708 7.29966 35.2885 9.61069 35.2885 12.3122C35.2885 18.5281 44.5671 16.4004 44.5671 18.9903C44.5671 19.9705 43.7093 20.6718 41.9464 20.6718C40.0104 20.6718 37.6809 19.58 36.5398 18.4803L34.7691 21.4528C36.4768 23.0147 39.0975 23.9391 41.7733 23.9391ZM56.7103 23.9391C61.0387 23.9391 63.5414 21.8034 63.5414 18.8708C63.5414 12.4796 54.2156 14.432 54.2156 12.1369C54.2156 11.2683 55.1835 10.5829 56.6631 10.5829C58.5991 10.5829 60.3619 11.4516 61.3299 12.4238L62.9905 9.48319C61.1883 8.04875 58.9611 7.28372 56.671 7.29169C52.5157 7.29169 50.2413 9.60272 50.2413 12.3042C50.2413 18.5201 59.5198 16.3924 59.5198 18.9823C59.5198 19.9625 58.662 20.6638 56.8992 20.6638C54.9632 20.6638 52.6337 19.5721 51.4926 18.4723L49.714 21.4528C51.3667 23.0147 53.9794 23.9391 56.7103 23.9391Z" fill="#2378E5"/>
<path fill-rule="evenodd" clip-rule="evenodd" d="M0.0157551 0H4.1789V7.40328H7.16947C8.24764 7.40328 9.31006 7.61845 10.3017 8.03284C11.2933 8.44723 12.1983 9.06085 12.9538 9.83386C13.7172 10.6069 14.3153 11.5153 14.7245 12.5194C15.1338 13.5235 15.3463 14.5994 15.3463 15.6911C15.3463 17.8906 14.4806 20.0024 12.9459 21.5564C11.4113 23.1104 9.3258 23.987 7.16159 23.987H0V0.00796927L0.0157551 0ZM4.1789 19.0302V20.3132H6.55562C7.1616 20.3132 7.76758 20.1857 8.32634 19.9546C8.8851 19.7155 9.39664 19.3729 9.82949 18.9346C10.2623 18.4963 10.6007 17.9783 10.8368 17.4125C11.0729 16.8467 11.191 16.233 11.191 15.6194C11.191 14.3762 10.703 13.1809 9.83734 12.3043C8.97165 11.4277 7.79117 10.9336 6.56347 10.9336H4.18678V19.0302H4.1789Z" fill="#2378E5"/>
<path d="M67.7517 2.66965C67.7517 4.16784 68.8378 5.28351 70.333 5.28351C70.6714 5.29148 71.0177 5.22773 71.3325 5.10022C71.6473 4.97271 71.9385 4.78146 72.1825 4.53442C72.4264 4.28737 72.6153 4.00049 72.7412 3.68172C72.8671 3.36296 72.9301 3.02029 72.9222 2.66965C72.9222 1.09974 71.8126 0.0557861 70.3409 0.0557861C68.8692 0.0557861 67.7596 1.09974 67.7596 2.66965H67.7517Z" fill="#FED766"/>
<path fill-rule="evenodd" clip-rule="evenodd" d="M23.1689 37.0404L24.3415 36.2993L24.373 36.3471C24.6721 36.8252 25.0734 37.0244 25.4984 37.0244C25.8368 37.0244 26.0808 36.9448 26.246 36.7615C26.4113 36.5782 26.4979 36.2833 26.4979 35.8211V31.2947H28.1742V35.9327C28.1742 36.5782 27.9853 37.1679 27.576 37.6062C27.1668 38.0365 26.5451 38.2995 25.6873 38.2995C24.5225 38.2995 23.7434 37.8931 23.2004 37.0882L23.1689 37.0404ZM9.42812 38.172V32.9443H10.7975L10.8998 33.6057C11.4192 33.1754 12.0252 32.8168 12.8358 32.8168C13.489 32.8168 13.9612 33.016 14.276 33.3826C14.5829 33.7491 14.7245 34.2751 14.7245 34.9286V38.172H13.0561V35.088C13.0561 34.6975 12.9932 34.4425 12.8672 34.291C12.7413 34.1396 12.5524 34.0679 12.2691 34.0679C11.8048 34.0679 11.5136 34.2512 11.0808 34.6178V38.164H9.42812V38.172ZM6.42182 38.172V32.9443H8.0745V38.172H6.42182ZM0.550903 38.172V31.2947H5.50106V32.5299H2.23504V34.1874H5.02886V35.4306H2.23504V38.172H0.558781H0.550903ZM37.2088 30.7129V32.8885H38.1138C38.4601 32.8885 38.8063 32.9602 39.129 33.0957C39.4517 33.2312 39.7429 33.4384 39.9947 33.6934C40.2387 33.9484 40.4354 34.2512 40.5692 34.5859C40.703 34.9206 40.7738 35.2792 40.7738 35.6378C40.7738 36.363 40.4905 37.0643 39.9947 37.5823C39.4989 38.1003 38.8221 38.3872 38.1138 38.3872H35.7765V30.7209H37.2088V30.7129ZM37.9721 37.128C38.1453 37.128 38.3184 37.0802 38.4758 37.0165C38.6568 36.9368 38.8142 36.8252 38.9559 36.6897C39.0897 36.5463 39.1998 36.3789 39.2785 36.1957C39.3494 36.0124 39.3887 35.8131 39.3887 35.6139C39.3887 35.2075 39.2313 34.825 38.9559 34.5381C38.6804 34.2512 38.3027 34.0918 37.9092 34.0918H37.1537V36.7216V37.136H37.9092C37.9092 37.136 37.9485 37.136 37.9643 37.136L37.9721 37.128ZM19.2182 30.7129H20.6506V38.3792H18.3132C17.6049 38.3792 16.9281 38.0923 16.4323 37.5743C15.9365 37.0563 15.6532 36.363 15.6532 35.6299C15.6532 35.2712 15.724 34.9126 15.8578 34.5779C15.9916 34.2432 16.1883 33.9404 16.4323 33.6854C16.6763 33.4304 16.9753 33.2312 17.298 33.0877C17.6207 32.9522 17.9669 32.8805 18.3132 32.8805H19.2182V30.705V30.7129ZM19.2733 37.128V36.7137V34.0838H18.5178C18.1243 34.0838 17.7544 34.2432 17.4711 34.5301C17.1957 34.817 17.0383 35.2075 17.0383 35.6059C17.0383 35.8052 17.0776 36.0044 17.1485 36.1877C17.2193 36.371 17.3295 36.5383 17.4711 36.6818C17.6049 36.8252 17.7702 36.9368 17.9512 37.0085C18.1086 37.0802 18.2817 37.1201 18.4549 37.1201C18.4706 37.1201 18.4942 37.1201 18.51 37.1201H19.2655L19.2733 37.128ZM34.8163 35.4944C34.8163 37.0324 33.7539 38.3553 31.991 38.3553C30.2282 38.3553 29.1815 37.0324 29.1815 35.4944C29.1815 34.7293 29.4412 34.0121 29.9291 33.4941C30.4092 32.9761 31.1175 32.6494 31.991 32.6494C33.7539 32.6494 34.8163 33.9563 34.8163 35.4944ZM8.19254 31.6612C8.19254 32.1792 7.78332 32.5936 7.27178 32.5936C6.76024 32.5936 6.35099 32.1792 6.35099 31.6612C6.35099 31.1433 6.76024 30.7289 7.27178 30.7289C7.78332 30.7289 8.19254 31.1433 8.19254 31.6612ZM31.991 37.0404C31.1332 37.0404 30.661 36.3232 30.661 35.4864C30.661 34.6497 31.1332 33.9324 31.991 33.9324C32.8488 33.9324 33.3368 34.6497 33.3368 35.4864C33.3368 36.3232 32.8646 37.0404 31.991 37.0404Z" fill="#2378E5"/>
<path d="M43.4181 37.4468C43.4181 37.9648 43.0088 38.3792 42.4973 38.3792C41.9858 38.3792 41.5765 37.9648 41.5765 37.4468C41.5765 36.9288 41.9858 36.5144 42.4973 36.5144C43.0088 36.5144 43.4181 36.9288 43.4181 37.4468Z" fill="#2378E5"/>
<path fill-rule="evenodd" clip-rule="evenodd" d="M85.6872 31.3185H83.035V38.1958H85.8918C86.7654 38.1958 87.5366 38.0364 88.0875 37.7017C88.6462 37.367 88.9847 36.849 88.9847 36.1477C88.9847 35.6776 88.8194 35.303 88.5518 35.0321C88.3 34.7771 87.9616 34.6097 87.5759 34.5221C88.2055 34.283 88.5833 33.6534 88.5833 33.0398C88.5833 32.7131 88.5046 32.4421 88.3551 32.219C88.2055 31.9959 87.9931 31.8205 87.7333 31.6851C87.2139 31.4221 86.4899 31.3185 85.6793 31.3185H85.6872ZM85.5691 34.0678H84.7113V32.4581H85.5927C86.0649 32.4581 86.4033 32.5138 86.6237 32.6414C86.7339 32.7051 86.8126 32.7848 86.8677 32.8804C86.9227 32.9761 86.9464 33.0956 86.9464 33.239C86.9464 33.494 86.844 33.6933 86.6237 33.8367C86.4033 33.9802 86.0571 34.0678 85.5613 34.0678H85.5691ZM85.7501 37.0403H84.7113V35.1835H85.7501C86.2932 35.1835 86.6945 35.2552 86.9621 35.3987C87.0959 35.4704 87.1903 35.558 87.2612 35.6696C87.3241 35.7812 87.3635 35.9087 87.3635 36.0681C87.3635 36.4028 87.2297 36.6418 86.9621 36.8012C86.6945 36.9606 86.2932 37.0483 85.758 37.0483L85.7501 37.0403Z" fill="#2378E5"/>
<path fill-rule="evenodd" clip-rule="evenodd" d="M70.9075 36.347V34.1316H70.0655V33.0319L70.9784 32.9681V31.5895H72.5681V32.9602H74.0319V34.1316H72.5681V36.347C72.5681 36.6339 72.6389 36.8331 72.757 36.9606C72.8829 37.0881 73.0639 37.1519 73.3236 37.1519C73.5046 37.1519 73.7328 37.0961 73.8902 37.0483L73.9453 37.0324L74.2286 38.1162L74.1814 38.1321C73.8587 38.2277 73.4416 38.3234 72.9144 38.3234C72.1982 38.3234 71.6945 38.1321 71.3719 37.7815C71.0492 37.4308 70.9075 36.9367 70.9075 36.355V36.347Z" fill="#2378E5"/>
<path fill-rule="evenodd" clip-rule="evenodd" d="M63.6043 30.7846H61.9831V38.1879H63.6043V36.873L64.407 36.092L65.8315 38.1879H67.6494L65.3593 35.1118L67.4763 32.9601H65.6269L63.5964 35.1357V30.7766L63.6043 30.7846Z" fill="#2378E5"/>
<path fill-rule="evenodd" clip-rule="evenodd" d="M60.4957 30.7845H58.843V36.7056C58.843 37.1837 58.9375 37.5901 59.1814 37.877C59.4254 38.1639 59.811 38.3233 60.3619 38.3233C60.7318 38.3233 60.9994 38.2675 61.1883 38.2038L61.2276 38.1878L61.0151 37.0961H60.9679C60.8656 37.12 60.8263 37.12 60.7633 37.12C60.7003 37.12 60.6374 37.0961 60.5823 37.0483C60.5351 37.0004 60.4957 36.9128 60.4957 36.7693V30.7845Z" fill="#2378E5"/>
<path fill-rule="evenodd" clip-rule="evenodd" d="M53.3263 35.4226C53.885 35.1118 54.735 34.9126 55.8997 34.801C55.884 34.5779 55.8131 34.3946 55.6794 34.2511C55.5377 34.1077 55.3016 34.0121 54.9475 34.0121C54.4044 34.0121 53.885 34.2193 53.3342 34.4902L53.2948 34.5141L52.6731 33.5419L52.7203 33.518C53.4286 33.1434 54.2864 32.8326 55.2308 32.8326C55.9941 32.8326 56.5765 33.0319 56.9779 33.4224C57.3714 33.8128 57.5681 34.3946 57.5681 35.1437V38.1879H56.1988L56.0886 37.6539C55.5692 38.0285 54.9789 38.3154 54.3021 38.3154C53.7591 38.3154 53.3105 38.148 52.9879 37.8691C52.6652 37.5902 52.4842 37.1917 52.4842 36.7455C52.4842 36.4586 52.5472 36.2115 52.6888 35.9884C52.8305 35.7653 53.043 35.582 53.3263 35.4226ZM54.8137 37.1599C55.2308 37.1599 55.5456 36.9925 55.9076 36.6817V35.7334C55.2229 35.8131 54.7665 35.9406 54.4753 36.092C54.3257 36.1717 54.2313 36.2594 54.1684 36.347C54.1054 36.4347 54.0818 36.5303 54.0818 36.6339C54.0818 36.8172 54.1526 36.9447 54.2785 37.0324C54.4044 37.12 54.5933 37.1599 54.8137 37.1599Z" fill="#2378E5"/>
<path fill-rule="evenodd" clip-rule="evenodd" d="M48.8483 32.5458V38.1879H50.5246V32.5458H52.7518V31.3105H46.6369V32.5458H48.8483Z" fill="#2378E5"/>
<path fill-rule="evenodd" clip-rule="evenodd" d="M77.1956 32.6732C76.3141 32.6732 75.6137 32.9999 75.1337 33.5179C74.6536 34.0359 74.386 34.7452 74.386 35.5182C74.386 37.0562 75.4485 38.3791 77.1956 38.3791C78.9427 38.3791 80.0209 37.0562 80.0209 35.5182C80.0209 33.9801 78.9506 32.6732 77.1956 32.6732ZM77.1956 37.0084C76.7863 37.0084 76.4637 36.8331 76.2512 36.5621C76.0308 36.2912 75.9207 35.9166 75.9207 35.5102C75.9207 35.1038 76.0387 34.7292 76.2512 34.4583C76.4637 34.1873 76.7863 34.012 77.1956 34.012C77.6048 34.012 77.9353 34.1873 78.1557 34.4583C78.3761 34.7292 78.4941 35.1038 78.4941 35.5102C78.4941 35.9166 78.3761 36.2912 78.1557 36.5621C77.9353 36.8331 77.6127 37.0084 77.1956 37.0084Z" fill="#2378E5"/>
<path fill-rule="evenodd" clip-rule="evenodd" d="M92.3529 32.6732C91.4715 32.6732 90.7711 32.9999 90.291 33.5179C89.811 34.0359 89.5434 34.7452 89.5434 35.5182C89.5434 37.0562 90.6058 38.3791 92.3529 38.3791C94.1001 38.3791 95.1782 37.0562 95.1782 35.5182C95.1782 33.9801 94.1079 32.6732 92.3529 32.6732ZM92.3529 37.0084C91.9437 37.0084 91.621 36.8331 91.4086 36.5621C91.1882 36.2912 91.078 35.9166 91.078 35.5102C91.078 35.1038 91.1961 34.7292 91.4086 34.4583C91.621 34.1873 91.9437 34.012 92.3529 34.012C92.7622 34.012 93.0927 34.1873 93.3131 34.4583C93.5334 34.7292 93.6515 35.1038 93.6515 35.5102C93.6515 35.9166 93.5334 36.2912 93.3131 36.5621C93.0927 36.8331 92.77 37.0084 92.3529 37.0084Z" fill="#2378E5"/>
<path fill-rule="evenodd" clip-rule="evenodd" d="M101.435 36.7057L101.395 36.6818L100.797 37.646L100.845 37.6779C101.435 38.1082 102.19 38.3792 103.001 38.3792C103.811 38.3792 104.386 38.1959 104.795 37.8931C105.204 37.5902 105.417 37.1679 105.417 36.7057C105.417 36.2116 105.189 35.8689 104.858 35.6298C104.536 35.3908 104.111 35.2394 103.717 35.1119C103.646 35.0879 103.583 35.072 103.512 35.0481C103.276 34.9764 103.056 34.9047 102.883 34.825C102.662 34.7214 102.544 34.6018 102.544 34.4504C102.544 34.3229 102.6 34.2193 102.718 34.1396C102.836 34.0599 103.017 34.0121 103.284 34.0121C103.717 34.0121 104.276 34.2831 104.701 34.5381L104.74 34.562L105.33 33.5101L105.275 33.4782C104.772 33.1515 104.126 32.9044 103.245 32.9044C102.568 32.9044 102.001 33.0718 101.608 33.3507C101.214 33.6376 100.986 34.044 100.986 34.5301C100.986 34.9764 101.214 35.3031 101.537 35.5422C101.86 35.7813 102.269 35.9486 102.647 36.0681C102.694 36.0841 102.741 36.1 102.781 36.116C103.048 36.2036 103.3 36.2913 103.489 36.3869C103.717 36.5064 103.843 36.634 103.843 36.7854C103.843 36.9288 103.788 37.0483 103.662 37.128C103.536 37.2157 103.331 37.2715 103.04 37.2715C102.505 37.2715 101.962 37.0643 101.435 36.7136V36.7057Z" fill="#2378E5"/>
<path fill-rule="evenodd" clip-rule="evenodd" d="M101.435 36.7057L101.395 36.6818L100.797 37.646L100.845 37.6779C101.435 38.1082 102.19 38.3792 103.001 38.3792C103.811 38.3792 104.386 38.1959 104.795 37.8931C105.204 37.5902 105.417 37.1679 105.417 36.7057C105.417 36.2116 105.189 35.8689 104.858 35.6298C104.536 35.3908 104.111 35.2394 103.717 35.1119C103.646 35.0879 103.583 35.072 103.512 35.0481C103.276 34.9764 103.056 34.9047 102.883 34.825C102.662 34.7214 102.544 34.6018 102.544 34.4504C102.544 34.3229 102.6 34.2193 102.718 34.1396C102.836 34.0599 103.017 34.0121 103.284 34.0121C103.717 34.0121 104.276 34.2831 104.701 34.5381L104.74 34.562L105.33 33.5101L105.275 33.4782C104.772 33.1515 104.126 32.9044 103.245 32.9044C102.568 32.9044 102.001 33.0718 101.608 33.3507C101.214 33.6376 100.986 34.044 100.986 34.5301C100.986 34.9764 101.214 35.3031 101.537 35.5422C101.86 35.7813 102.269 35.9486 102.647 36.0681C102.694 36.0841 102.741 36.1 102.781 36.116C103.048 36.2036 103.3 36.2913 103.489 36.3869C103.717 36.5064 103.843 36.634 103.843 36.7854C103.843 36.9288 103.788 37.0483 103.662 37.128C103.536 37.2157 103.331 37.2715 103.04 37.2715C102.505 37.2715 101.962 37.0643 101.435 36.7136V36.7057Z" fill="#2378E5"/>
<path fill-rule="evenodd" clip-rule="evenodd" d="M96.3823 36.7057L96.343 36.6818L95.7449 37.646L95.7921 37.6779C96.3823 38.1082 97.1379 38.3792 97.9485 38.3792C98.759 38.3792 99.3335 38.1959 99.7428 37.8931C100.152 37.5902 100.364 37.1679 100.364 36.7057C100.364 36.2116 100.136 35.8689 99.8057 35.6298C99.4831 35.3908 99.0581 35.2394 98.6646 35.1119C98.5938 35.0879 98.5308 35.072 98.46 35.0481C98.2239 34.9764 98.0035 34.9047 97.8304 34.825C97.61 34.7214 97.492 34.6018 97.492 34.4504C97.492 34.3229 97.5471 34.2193 97.6651 34.1396C97.7832 34.0599 97.9642 34.0121 98.2239 34.0121C98.6567 34.0121 99.2155 34.2831 99.6405 34.5381L99.6798 34.562L100.27 33.5101L100.215 33.4782C99.7113 33.1515 99.066 32.9044 98.1845 32.9044C97.5077 32.9044 96.9411 33.0718 96.5476 33.3507C96.1541 33.6376 95.9259 34.044 95.9259 34.5301C95.9259 34.9764 96.1541 35.3031 96.4768 35.5422C96.7994 35.7813 97.2087 35.9486 97.5864 36.0681C97.6336 36.0841 97.6809 36.1 97.7202 36.116C97.9878 36.2036 98.2396 36.2913 98.4285 36.3869C98.6567 36.5064 98.7827 36.634 98.7827 36.7854C98.7827 36.9288 98.7276 37.0483 98.6016 37.128C98.4757 37.2157 98.2711 37.2715 97.9799 37.2715C97.4448 37.2715 96.9018 37.0643 96.3745 36.7136L96.3823 36.7057Z" fill="#2378E5"/>
<path fill-rule="evenodd" clip-rule="evenodd" d="M96.3823 36.7057L96.343 36.6818L95.7449 37.646L95.7921 37.6779C96.3823 38.1082 97.1379 38.3792 97.9485 38.3792C98.759 38.3792 99.3335 38.1959 99.7428 37.8931C100.152 37.5902 100.364 37.1679 100.364 36.7057C100.364 36.2116 100.136 35.8689 99.8057 35.6298C99.4831 35.3908 99.0581 35.2394 98.6646 35.1119C98.5938 35.0879 98.5308 35.072 98.46 35.0481C98.2239 34.9764 98.0035 34.9047 97.8304 34.825C97.61 34.7214 97.492 34.6018 97.492 34.4504C97.492 34.3229 97.5471 34.2193 97.6651 34.1396C97.7832 34.0599 97.9642 34.0121 98.2239 34.0121C98.6567 34.0121 99.2155 34.2831 99.6405 34.5381L99.6798 34.562L100.27 33.5101L100.215 33.4782C99.7113 33.1515 99.066 32.9044 98.1845 32.9044C97.5077 32.9044 96.9411 33.0718 96.5476 33.3507C96.1541 33.6376 95.9259 34.044 95.9259 34.5301C95.9259 34.9764 96.1541 35.3031 96.4768 35.5422C96.7994 35.7813 97.2087 35.9486 97.5864 36.0681C97.6336 36.0841 97.6809 36.1 97.7202 36.116C97.9878 36.2036 98.2396 36.2913 98.4285 36.3869C98.6567 36.5064 98.7827 36.634 98.7827 36.7854C98.7827 36.9288 98.7276 37.0483 98.6016 37.128C98.4757 37.2157 98.2711 37.2715 97.9799 37.2715C97.4448 37.2715 96.9018 37.0643 96.3745 36.7136L96.3823 36.7057Z" fill="#2378E5"/>
<path d="M108.061 37.4468C108.061 37.9648 107.652 38.3792 107.14 38.3792C106.629 38.3792 106.22 37.9648 106.22 37.4468C106.22 36.9288 106.629 36.5144 107.14 36.5144C107.652 36.5144 108.061 36.9288 108.061 37.4468Z" fill="#2378E5"/>
</svg>
