<svg width="150" height="34" viewBox="0 0 150 34" fill="none" xmlns="http://www.w3.org/2000/svg">
<path d="M11.3093 23.2695C5.07193 23.2695 0.00195312 18.1946 0.00195312 11.9621C0.00195312 5.72966 5.07681 0.654785 11.3093 0.654785C17.5418 0.654785 22.6167 5.72966 22.6167 11.9621C22.6167 18.1946 17.5418 23.2695 11.3093 23.2695Z" fill="black"/>
<path d="M88.8732 23.2695C82.6358 23.2695 77.5658 18.1946 77.5658 11.9621C77.5658 5.72966 82.6407 0.654785 88.8732 0.654785C92.7025 0.654785 96.2388 2.56946 98.3391 5.7785L94.5537 8.25489C93.2935 6.33044 91.1688 5.18261 88.8732 5.18261C85.1317 5.18261 82.0887 8.22559 82.0887 11.967C82.0887 15.7085 85.1317 18.7514 88.8732 18.7514C91.3056 18.7514 93.7674 17.5938 95.2034 15.8257V14.8293H90.7585V10.3063H99.7263V17.2373L99.3551 17.8039C97.1718 21.1301 93.0591 23.2841 88.8732 23.2841V23.2695Z" fill="black"/>
<path d="M66.6641 1.09424H62.1411V22.8249H66.6641V1.09424Z" fill="black"/>
<path d="M116.128 1.09424H111.605V22.8249H116.128V1.09424Z" fill="black"/>
<path d="M47.996 11.3124C49.1438 10.1792 49.7739 8.66992 49.7739 7.06296C49.7739 3.77088 47.0972 1.09424 43.8052 1.09424H33.5187V22.8249H38.0416V12.9535L38.6082 12.9633C42.5353 12.9633 45.0214 18.5559 45.0214 22.8298H49.5443C49.5443 18.4778 48.1426 14.9952 46.1204 12.5725C46.8091 12.2795 47.4441 11.8594 47.996 11.3173V11.3124ZM38.0416 5.61718H43.8052C44.6013 5.61718 45.251 6.2668 45.251 7.06296C45.251 7.45371 45.0996 7.82005 44.8212 8.09357C44.5427 8.3671 44.1911 8.50385 43.7857 8.51362L38.0416 8.43058V5.62206V5.61718Z" fill="black"/>
<path d="M145.063 1.09424V9.25117C140.853 4.87964 134.498 1.73897 129.472 1.15285V22.8298H133.995V7.0825C139.451 9.42701 145.049 14.1649 145.059 18.8587V22.8298H149.581V1.09913H145.059L145.063 1.09424Z" fill="black"/>
<path d="M65.9167 28.2124H61.8236V29.3456H63.3036V33.805H64.4368V29.3456H65.9167V28.2124Z" fill="black"/>
<path d="M76.5012 29.3456V28.2124H72.4569V33.805H76.5012V32.6718H73.595V31.4166H75.324V30.2834H73.595V29.3456H76.5012Z" fill="black"/>
<path d="M86.6363 28.2124L86.4946 28.8571C85.9622 28.696 85.337 28.6764 85.0489 28.6764C84.7607 28.6764 84.1404 28.7008 83.608 28.8571L83.4663 28.2124H82.299L83.5347 33.8099H86.5679L87.8037 28.2124H86.6363ZM85.6496 32.667H84.4481L84.028 30.7669C84.4383 30.8402 84.8339 30.85 85.0489 30.85C85.2638 30.85 85.6594 30.8353 86.0697 30.7669L85.6496 32.667ZM85.0489 29.9659C84.365 29.9659 83.8131 29.8731 83.8131 29.7607C83.8131 29.6484 84.365 29.5556 85.0489 29.5556C85.7327 29.5556 86.2846 29.6484 86.2846 29.7607C86.2846 29.8731 85.7327 29.9659 85.0489 29.9659Z" fill="black"/>
</svg>
