<svg width="21" height="21" viewBox="0 0 21 21" fill="none"
    xmlns="http://www.w3.org/2000/svg">
    <path d="M8.46638 20.3601C6.81061 20.2966 5.28837 19.8519 3.89966 18.9354C3.78393 18.8628 3.70381 18.8537 3.58809 18.9354C2.72459 19.5525 1.8522 20.1605 0.979803 20.7685C0.908587 20.8138 0.846273 20.8683 0.775057 20.9137C0.579213 21.0316 0.392272 21.0316 0.20533 20.8955C0.0272902 20.7685 -0.0439257 20.5598 0.0272902 20.3329C0.303252 19.4345 0.579214 18.5361 0.855175 17.6468C0.979803 17.2384 1.11333 16.8301 1.22906 16.4126C1.25576 16.3219 1.24686 16.1858 1.19345 16.1041C0.365566 14.6703 -0.0528277 13.1276 0.00948621 11.4669C0.11631 8.47227 1.4071 6.12193 3.82844 4.44311C5.35958 3.38137 7.06876 2.92764 8.91148 3.00931C12.7126 3.18173 15.9619 5.97673 16.7897 9.7518C17.8313 14.4706 14.9025 19.126 10.2379 20.1332C9.65924 20.2603 9.05391 20.2875 8.46638 20.3692V20.3601ZM1.416 19.2167C1.51392 19.1532 1.56733 19.1169 1.62075 19.0806C2.17267 18.6994 2.71569 18.3092 3.26761 17.9281C3.68601 17.6377 3.78393 17.6468 4.19342 17.9281C5.94711 19.1441 7.86994 19.5706 9.94411 19.1532C13.9678 18.3455 16.5672 14.4434 15.8728 10.3235C15.0806 5.65005 10.229 2.81874 5.8848 4.48849C1.38929 6.22175 -0.391103 11.6484 2.19047 15.7865C2.3151 15.9952 2.35071 16.1948 2.27949 16.4308C2.05694 17.1114 1.8522 17.8011 1.63855 18.4907C1.56733 18.7176 1.50502 18.9445 1.416 19.2167Z" fill="#23955D" />
    <path d="M19.5978 15.2804C19.4002 14.6374 19.194 13.9945 18.9964 13.3516C18.9277 13.1287 18.859 12.9058 18.7816 12.683C18.7043 12.4687 18.7387 12.2801 18.859 12.0915C19.4603 11.1657 19.8383 10.1456 19.9586 9.04831C20.1905 6.98239 19.6493 5.1222 18.3006 3.52775C16.8144 1.779 14.8815 0.930348 12.5877 0.964637C11.2734 0.981782 10.0535 1.35896 8.93669 2.05332C8.86796 2.09618 8.79924 2.13904 8.73051 2.1819C8.48997 2.31049 8.21507 2.25048 8.07762 2.0276C7.94017 1.80472 7.98312 1.51326 8.22366 1.37611C8.67038 1.11894 9.1085 0.836053 9.58099 0.647462C13.9279 -1.14415 18.7559 0.904631 20.4396 5.28507C21.3674 7.71103 21.1269 10.0856 19.8383 12.3401C19.761 12.4687 19.7524 12.5715 19.8039 12.7087C20.1819 13.9002 20.5599 15.0918 20.9379 16.2747C21.0066 16.4976 21.0152 16.6948 20.8348 16.8662C20.6716 17.0205 20.4396 17.0463 20.2421 16.9177C19.3916 16.3433 18.5411 15.7604 17.6906 15.1689C17.4587 15.0061 17.4071 14.7146 17.5618 14.5003C17.7164 14.2774 17.9999 14.226 18.2404 14.3888C18.6871 14.6889 19.1253 14.9889 19.5634 15.2889C19.572 15.2889 19.5892 15.2718 19.5978 15.2718V15.2804Z" fill="#23955D" />
    <path d="M7.03457 14.0019C7.79685 14.0019 8.55822 14.0003 9.3205 14.0019C9.75076 14.0028 10.0009 14.1895 10 14.5003C10 14.8104 9.74894 14.9987 9.31959 14.9987C7.77319 15.0004 6.22589 15.0004 4.6795 14.9987C4.25015 14.9987 4 14.8104 4 14.4995C4 14.1886 4.25015 14.0028 4.68041 14.0011C5.46543 13.9986 6.24954 14.0011 7.03457 14.0011V14.0019Z" fill="#F6A61D" />
    <path d="M6.49399 11.9987C5.87977 11.9987 5.26647 12.0021 4.65225 11.9979C4.24462 11.9954 3.99634 11.7988 4.00004 11.4955C4.00375 11.193 4.2511 11.003 4.66336 11.0022C5.89088 10.9997 7.11933 10.9989 8.34685 11.0022C8.75262 11.003 9.00276 11.2022 8.99998 11.5046C8.99627 11.8054 8.74614 11.9954 8.33665 11.9979C7.72243 12.0012 7.10914 11.9987 6.49491 11.9987H6.49399Z" fill="#F6A61D" />
    <path d="M6 8.99874C5.53044 8.99874 5.06172 9.00207 4.59216 8.99791C4.22352 8.99458 4 8.80232 4 8.5002C4 8.19725 4.22352 8.00416 4.59216 8.0025C5.53044 7.99917 6.46872 7.99917 7.40784 8.0025C7.77565 8.00333 8 8.19808 8 8.49937C8 8.80066 7.77481 8.99375 7.40784 8.99707C6.93828 9.00124 6.46956 8.99791 6 8.99791V8.99874Z" fill="#F6A61D" />
</svg>