<svg width="18" height="18" viewBox="0 0 18 18" fill="none" xmlns="http://www.w3.org/2000/svg">
<path fill-rule="evenodd" clip-rule="evenodd" d="M7.85615 10.1439C6.68615 8.97387 5.80415 7.66387 5.21815 6.33487C5.09415 6.05387 5.16715 5.72487 5.38415 5.50787L6.20315 4.68987C6.87415 4.01887 6.87415 3.06987 6.28815 2.48387L5.11415 1.30987C4.33315 0.528871 3.06715 0.528871 2.28615 1.30987L1.63415 1.96187C0.893146 2.70287 0.584146 3.77187 0.784146 4.83187C1.27815 7.44487 2.79615 10.3059 5.24515 12.7549C7.69415 15.2039 10.5551 16.7219 13.1681 17.2159C14.2281 17.4159 15.2971 17.1069 16.0381 16.3659L16.6891 15.7149C17.4701 14.9339 17.4701 13.6679 16.6891 12.8869L15.5161 11.7139C14.9301 11.1279 13.9801 11.1279 13.3951 11.7139L12.4921 12.6179C12.2751 12.8349 11.9461 12.9079 11.6651 12.7839C10.3361 12.1969 9.02615 11.3139 7.85615 10.1439Z" fill="#1064AD"/>
</svg>
