<svg width="22" height="22" viewBox="0 0 22 22" fill="none"
    xmlns="http://www.w3.org/2000/svg">
    <g clip-path="url(#clip0_147_610)">
        <path d="M4.28396 22.0001C4.09927 21.8952 4.04393 21.7422 4.0489 21.5457C4.06009 21.088 4.05077 20.6291 4.05325 20.1707C4.0545 19.9215 4.18944 19.7714 4.40336 19.7714C4.61728 19.7714 4.74973 19.9209 4.7516 20.1707C4.75409 20.5431 4.75409 20.9155 4.75533 21.2879C4.75533 21.3011 4.76341 21.3143 4.77212 21.3418H9.68851V11.3438H4.75222V11.5942C4.75222 13.8641 4.75222 16.134 4.75222 18.4039C4.75222 18.4755 4.75844 18.5482 4.74724 18.6181C4.72051 18.7883 4.60795 18.8926 4.42264 18.9017C4.22364 18.9115 4.10114 18.8072 4.06072 18.6319C4.0433 18.5563 4.05263 18.4749 4.05263 18.3964C4.05263 16.0475 4.05077 13.6991 4.05574 11.3501C4.05574 11.1943 4.00848 11.086 3.88784 10.976C2.66341 9.85594 1.44519 8.73016 0.225112 7.6061C-0.0764876 7.32824 -0.0758658 7.2085 0.225112 6.93063C0.439652 6.73298 0.653571 6.53532 0.868111 6.33824C1.12121 6.10678 1.28164 6.10678 1.53723 6.34225C3.04896 7.73443 4.56193 9.12548 6.06931 10.5217C6.1943 10.6374 6.3193 10.685 6.4959 10.6844C9.49573 10.6798 12.4962 10.6798 15.4966 10.6844C15.6844 10.6844 15.8119 10.6305 15.9419 10.5102C17.4381 9.12433 18.9399 7.74303 20.4404 6.36115C20.7277 6.09647 20.8682 6.09704 21.1593 6.36402C21.3632 6.55079 21.566 6.7387 21.7693 6.92605C22.0759 7.20964 22.0752 7.32881 21.7612 7.6187C20.5635 8.72272 19.3683 9.82902 18.1632 10.9267C18.0002 11.0751 17.9349 11.2224 17.9405 11.4315C17.9555 11.9826 17.9486 12.5343 17.9436 13.0855C17.9418 13.3003 17.7944 13.4424 17.5954 13.4435C17.3958 13.4447 17.2559 13.302 17.2465 13.0883C17.2447 13.0385 17.2465 12.9881 17.2465 12.9382C17.2465 12.4799 17.2465 12.0216 17.2465 11.5632V11.3392H12.3158V21.3429H17.2465V21.0857C17.2465 18.9945 17.2465 16.904 17.2465 14.8128C17.2465 14.7412 17.2403 14.6684 17.2515 14.5985C17.2783 14.4278 17.3921 14.3253 17.5767 14.3155C17.7633 14.3058 17.8852 14.4015 17.9331 14.5665C17.9505 14.6272 17.9461 14.6942 17.9461 14.7584C17.9461 17.0214 17.9449 19.2839 17.9499 21.5469C17.9499 21.7428 17.8989 21.8958 17.7154 22.0006H4.28396V22.0001ZM10.4229 11.3346V21.3429H11.5765V11.3346H10.4229ZM0.817741 7.29673C0.90791 7.35688 0.98502 7.39527 1.04472 7.45027C2.13918 8.45574 3.24298 9.45261 4.31754 10.4764C4.59862 10.7445 4.88654 10.6626 5.17197 10.6724C3.83498 9.43886 2.50359 8.2111 1.16536 6.97704C1.08016 7.05553 0.976314 7.15063 0.817741 7.29615V7.29673ZM16.8299 10.6689C17.1545 10.693 17.453 10.7056 17.7465 10.4231C18.7987 9.41021 19.8894 8.43167 20.9652 7.43938C21.0237 7.38553 21.0778 7.32766 21.1294 7.27667C21.0075 7.16782 20.8987 7.07042 20.816 6.99652C19.4902 8.21798 18.1594 9.44402 16.8299 10.6689Z" fill="#23955D" />
        <path d="M11.4664 -7.48698e-05C11.8619 0.0950293 12.2717 0.156331 12.6504 0.290967C14.6105 0.986488 15.7995 2.80321 15.5625 4.70414C15.3262 6.6005 13.7393 8.14852 11.679 8.40404C9.77431 8.64065 8.2178 8.01102 7.16811 6.52774C6.11282 5.03644 6.15075 3.48097 7.1364 1.94956C7.2788 1.72899 7.46909 1.67055 7.65627 1.77138C7.85091 1.87623 7.87578 2.06357 7.72654 2.29388C6.80806 3.70899 6.92807 5.33779 8.03933 6.54836C9.09835 7.70164 10.8427 8.11586 12.3755 7.57789C13.9177 7.03649 14.9301 5.67123 14.881 4.15987C14.8368 2.79748 14.1596 1.75362 12.8724 1.09706C11.574 0.434769 10.2544 0.489769 8.96776 1.17211C8.92734 1.19331 8.89003 1.21909 8.84898 1.23972C8.64439 1.3417 8.44664 1.30102 8.34217 1.13774C8.24205 0.980759 8.28994 0.809456 8.4796 0.694873C9.05233 0.348258 9.67916 0.129977 10.3582 0.0406022C10.4173 0.0325814 10.4745 0.0131022 10.533 -0.0012207C10.8439 -0.0012207 11.1548 -0.0012207 11.4658 -0.0012207L11.4664 -7.48698e-05Z" fill="#F6A61D" />
        <path d="M5.03017 0C5.22419 0.178177 5.33488 0.668594 5.19621 0.886302C5.14024 0.974531 4.99348 1.06104 4.88839 1.06104C4.7833 1.06104 4.63654 0.973386 4.58182 0.885156C4.44252 0.661146 4.55321 0.177031 4.75034 0H5.03017Z" fill="#F6A61D" />
        <path d="M11.3488 6.29747C11.3488 6.47794 11.3557 6.64236 11.347 6.80622C11.3358 7.02679 11.1965 7.15512 10.99 7.14997C10.7929 7.14481 10.6387 7.01762 10.6592 6.80965C10.6922 6.46648 10.6343 6.27398 10.1866 6.20351C9.71523 6.12903 9.4012 5.65351 9.40057 5.2221C9.40057 5.02101 9.52743 4.87721 9.71772 4.86288C9.89681 4.84913 10.0436 4.96314 10.089 5.15221C10.1872 5.56012 10.2954 5.63976 10.7575 5.64033C10.9596 5.64033 11.1623 5.64663 11.3631 5.63346C11.6828 5.61283 11.9054 5.3808 11.9011 5.08919C11.8967 4.80215 11.6635 4.57242 11.3457 4.55752C11.1368 4.54778 10.9266 4.55637 10.7164 4.55351C10.0231 4.54262 9.46773 4.09346 9.40804 3.49705C9.34212 2.83762 9.77244 2.32257 10.4919 2.18278C10.5541 2.17075 10.6325 2.08653 10.643 2.02637C10.6673 1.89403 10.6449 1.75481 10.6561 1.6196C10.6723 1.43054 10.8153 1.3045 10.9981 1.30335C11.1816 1.30221 11.3302 1.4271 11.3433 1.61559C11.3557 1.79205 11.3457 1.97023 11.3457 2.15184C11.4894 2.17419 11.6057 2.18335 11.717 2.21028C12.2226 2.33231 12.5913 2.76085 12.5994 3.22663C12.6031 3.43231 12.4856 3.57268 12.2928 3.59387C12.1044 3.6145 11.9545 3.49762 11.9091 3.29538C11.8233 2.91497 11.699 2.82044 11.2761 2.81872C11.074 2.81814 10.8719 2.81242 10.6704 2.82273C10.3284 2.84049 10.1008 3.06106 10.1002 3.3607C10.1002 3.65575 10.334 3.88663 10.6679 3.90554C10.8694 3.917 11.0715 3.9084 11.2736 3.90955C11.9912 3.91413 12.5459 4.37018 12.5957 4.99523C12.6479 5.64893 12.1871 6.17372 11.4714 6.27627C11.4415 6.28028 11.4123 6.28658 11.3482 6.29804L11.3488 6.29747Z" fill="#F6A61D" />
        <path d="M6.44929 9.62324C6.32989 9.56194 6.23599 9.53501 6.17443 9.47886C5.59424 8.95178 5.01778 8.42126 4.44505 7.8873C4.28959 7.74235 4.28896 7.55615 4.42142 7.4261C4.56009 7.28975 4.77277 7.28574 4.9388 7.43641C5.5134 7.95834 6.08924 8.4797 6.64517 9.01881C6.73037 9.10131 6.75649 9.28293 6.72788 9.40152C6.70674 9.4886 6.55065 9.54819 6.44991 9.62324H6.44929Z" fill="#23955D" />
        <path d="M17.7222 7.62442C17.6445 7.74302 17.6059 7.83927 17.5344 7.9063C16.9791 8.42593 16.4188 8.94156 15.8567 9.45432C15.677 9.61817 15.4693 9.62505 15.3225 9.48697C15.1832 9.35578 15.1894 9.16328 15.3548 9.00973C15.917 8.48609 16.4841 7.9676 17.0488 7.44625C17.1706 7.33395 17.3199 7.27953 17.4685 7.36088C17.5686 7.41588 17.6327 7.5276 17.7222 7.625V7.62442Z" fill="#23955D" />
        <path d="M8.88318 9.30249C8.81229 9.38098 8.75322 9.50301 8.65745 9.53567C8.55236 9.57176 8.37077 9.56947 8.29802 9.50817C7.91558 9.18561 7.5493 8.84587 7.1936 8.49811C7.06985 8.37723 7.08789 8.21567 7.21848 8.0902C7.35715 7.95728 7.53749 7.93837 7.67741 8.05926C8.05549 8.38639 8.41679 8.73014 8.77809 9.07332C8.82722 9.11973 8.83779 9.20051 8.88256 9.30192L8.88318 9.30249Z" fill="#23955D" />
        <path d="M13.465 9.61578C13.3755 9.5476 13.238 9.49088 13.1982 9.39807C13.1578 9.30411 13.1678 9.13625 13.2356 9.06807C13.5801 8.72088 13.9438 8.38859 14.3151 8.06489C14.4556 7.94172 14.6341 7.95489 14.7753 8.08437C14.9158 8.21385 14.932 8.37828 14.7989 8.50776C14.4476 8.84979 14.0813 9.17864 13.715 9.5075C13.664 9.55333 13.5801 9.56765 13.4656 9.61578H13.465Z" fill="#23955D" />
        <path d="M4.04331 1.62481C3.95004 1.62481 3.85365 1.63913 3.76472 1.62194C3.57443 1.5847 3.46685 1.47012 3.48053 1.28449C3.49359 1.1109 3.60553 1.00606 3.79084 0.992305C3.96061 0.979128 4.13286 0.981993 4.30263 0.990587C4.501 1.0009 4.64962 1.14126 4.63905 1.3097C4.62786 1.48902 4.51655 1.60132 4.3219 1.6271C4.23049 1.63913 4.13597 1.62939 4.04269 1.62939C4.04269 1.62824 4.04269 1.6271 4.04269 1.62595L4.04331 1.62481Z" fill="#F6A61D" />
        <path d="M17.111 4.68705C17.0258 4.68705 16.9394 4.69507 16.8548 4.68533C16.6682 4.66471 16.5594 4.56387 16.5476 4.38971C16.5358 4.2144 16.6334 4.08835 16.8156 4.06486C17.0134 4.03966 17.2198 4.03736 17.4182 4.06028C17.6103 4.08205 17.7223 4.21382 17.7049 4.39486C17.6881 4.5719 17.5687 4.67903 17.3666 4.6882C17.2814 4.69221 17.1956 4.68877 17.1104 4.68877C17.1104 4.6882 17.1104 4.68762 17.1104 4.68705H17.111Z" fill="#F6A61D" />
        <path d="M5.73167 0.988823C5.81686 0.988823 5.9033 0.980802 5.98787 0.990542C6.17318 1.01117 6.28574 1.10914 6.29942 1.2833C6.31372 1.46893 6.20739 1.59497 6.01585 1.61903C5.82557 1.64309 5.62657 1.64195 5.43566 1.62018C5.24227 1.59841 5.13158 1.46893 5.14401 1.28846C5.15645 1.11028 5.27585 1.00257 5.47546 0.988823C5.56066 0.983094 5.64647 0.987677 5.73167 0.987677C5.73167 0.987677 5.73167 0.98825 5.73167 0.988823Z" fill="#F6A61D" />
        <path d="M17.6159 5.14135C17.6159 5.06286 17.6103 4.98379 17.6165 4.9053C17.6321 4.71968 17.7515 4.61484 17.9455 4.6051C18.1308 4.59593 18.2695 4.69161 18.2925 4.86062C18.3174 5.04338 18.3186 5.23301 18.2931 5.4152C18.2682 5.59452 18.1258 5.68791 17.9262 5.67129C17.7396 5.65525 17.6327 5.55098 17.6171 5.37739C17.6103 5.29947 17.6159 5.21984 17.6159 5.14135Z" fill="#F6A61D" />
        <path d="M18.318 3.63862C18.3118 3.71023 18.3155 3.80534 18.2925 3.89414C18.2477 4.062 18.1209 4.14737 17.9331 4.13419C17.7453 4.12101 17.6315 4.02075 17.6197 3.84659C17.6085 3.69018 17.6116 3.53206 17.6178 3.37508C17.6252 3.18773 17.7478 3.08117 17.9399 3.06971C18.1352 3.05825 18.2633 3.16138 18.3006 3.33956C18.3192 3.4295 18.3124 3.52461 18.3186 3.63862H18.318Z" fill="#F6A61D" />
        <path d="M18.7906 4.68816C18.7054 4.68816 18.6196 4.69332 18.5344 4.68702C18.346 4.67212 18.234 4.57358 18.2173 4.4017C18.1992 4.2178 18.3012 4.0866 18.494 4.06254C18.6917 4.0379 18.8982 4.03905 19.0959 4.06311C19.2775 4.08488 19.3814 4.21379 19.3714 4.38452C19.3615 4.56384 19.2477 4.67327 19.0462 4.68759C18.9616 4.69332 18.8758 4.68873 18.79 4.68816H18.7906Z" fill="#F6A61D" />
        <path d="M5.24286 2.08376C5.23788 2.16912 5.24099 2.25621 5.22731 2.34042C5.1987 2.51344 5.07495 2.60969 4.89275 2.61141C4.70993 2.61313 4.57436 2.51917 4.55508 2.34615C4.53581 2.16969 4.53581 1.98865 4.55384 1.81162C4.57187 1.64032 4.69687 1.54464 4.88653 1.54407C5.08801 1.5435 5.20492 1.64548 5.22917 1.82709C5.24037 1.91131 5.23104 1.99839 5.23104 2.08376H5.24223H5.24286Z" fill="#F6A61D" />
    </g>
    <defs>
        <clipPath id="clip0_147_610">
            <rect width="22" height="22" fill="white" />
        </clipPath>
    </defs>
</svg>