<svg width="48" height="48" viewBox="0 0 48 48" fill="none"
    xmlns="http://www.w3.org/2000/svg">
    <path d="M0 25.5C0 24.5 0 23.5 0 22.5C0.0725 21.9137 0.1325 21.3262 0.2175 20.7412C0.97375 15.51 3.17875 10.9837 6.88125 7.21125C10.475 3.5525 14.8075 1.26 19.8662 0.36875C20.7387 0.215 21.6213 0.12125 22.5 0C23.5 0 24.5 0 25.5 0C26.3175 0.10625 27.1388 0.185 27.9513 0.325C32.4425 1.0925 36.4175 2.96625 39.8275 5.98875C44.0238 9.70875 46.6462 14.3337 47.6325 19.8662C47.7875 20.7387 47.88 21.6225 48.0013 22.5012V25.5012C47.9288 26.0875 47.865 26.675 47.7812 27.26C47.0962 32.0537 45.17 36.2863 41.9487 39.9C38.2513 44.0475 33.6562 46.6375 28.18 47.6287C27.2938 47.7887 26.395 47.88 25.5012 48.0025H22.5012C21.9163 47.93 21.3288 47.8675 20.745 47.7837C15.9525 47.0962 11.72 45.175 8.105 41.9512C3.9575 38.2525 1.3675 33.66 0.375 28.1838C0.21375 27.2938 0.1225 26.3937 0 25.5ZM3.35875 23.98C3.33625 35.3662 12.5912 44.6325 23.9937 44.6413C35.3725 44.65 44.5925 35.4512 44.6425 24.0413C44.6913 12.6663 35.4525 3.39375 24.0312 3.3575C12.6512 3.32125 3.38125 12.5687 3.35875 23.98Z" fill="#292927" />
    <path d="M25.6787 26.8337C25.6787 27.2525 25.6887 27.6275 25.6762 28C25.645 28.9525 24.9262 29.6762 24.015 29.6875C23.0887 29.6987 22.3437 28.9587 22.3237 27.9837C22.3075 27.1725 22.3175 26.36 22.32 25.5475C22.3237 24.3487 22.9462 23.6925 24.1475 23.6387C25.5475 23.5762 26.6687 22.985 27.5037 21.8687C28.6125 20.3875 28.64 18.3525 27.5925 16.8275C26.54 15.295 24.6675 14.6062 22.8587 15.0862C21.095 15.5537 19.8125 17.1012 19.6612 18.935C19.6375 19.23 19.6262 19.5337 19.5425 19.8125C19.3125 20.575 18.5312 21.055 17.7612 20.945C16.91 20.8237 16.325 20.175 16.3012 19.3225C16.1962 15.73 18.9625 12.3587 22.5375 11.7187C27.66 10.8012 32.1062 14.8437 31.68 20.03C31.4275 23.0962 29.1537 25.8275 26.1187 26.705C25.9837 26.7437 25.85 26.7825 25.6787 26.8312V26.8337Z" fill="#292927" />
    <path d="M24.0025 36.7488C22.875 36.7513 21.945 35.8238 21.9425 34.6975C21.94 33.5725 22.8725 32.6375 23.9963 32.635C25.12 32.6325 26.055 33.5663 26.0563 34.69C26.0575 35.8175 25.1313 36.7463 24.0025 36.7475V36.7488Z" fill="#292927" />
</svg>