<svg xmlns="http://www.w3.org/2000/svg" width="64" height="52" viewBox="0 0 64 52" fill="none">
    <path opacity="1" d="M31.25 3.59999C25.55 5.8 21.35 8.55 18.65 11.85C16.05 15.05 14.75 18.45 14.75 22.05C14.75 25.05 15.55 27.45 17.15 29.25C18.85 31.05 21.4 32.75 24.8 34.35L26.15 35.1C26.45 40.2 25.35 44.15 22.85 46.95C20.45 49.75 17.15 51.15 12.95 51.15C8.85 51.15 5.75 49.9 3.65 47.4C1.55 44.9 0.5 41.6 0.5 37.5C0.5 29.9 2.95 22.7 7.85 15.9C12.85 9 19.95 3.75 29.15 0.149994L31.25 3.59999ZM63.95 3.59999C58.25 5.8 54.05 8.55 51.35 11.85C48.75 15.05 47.45 18.45 47.45 22.05C47.45 25.05 48.25 27.45 49.85 29.25C51.55 31.05 54.1 32.75 57.5 34.35L58.85 35.1C59.15 40.2 58.05 44.15 55.55 46.95C53.15 49.75 49.85 51.15 45.65 51.15C41.55 51.15 38.45 49.9 36.35 47.4C34.25 44.9 33.2 41.6 33.2 37.5C33.2 29.9 35.65 22.7 40.55 15.9C45.55 9 52.65 3.75 61.85 0.149994L63.95 3.59999Z" fill="#DBD6D9"/>
</svg>