<svg width="33" height="32" viewBox="0 0 33 32" fill="none" xmlns="http://www.w3.org/2000/svg">
<path d="M16.0714 31.5C7.46946 31.5 0.5 24.5583 0.5 16C0.5 7.44168 7.46946 0.5 16.0714 0.5C24.6734 0.5 31.6429 7.44168 31.6429 16C31.6429 24.5583 24.6734 31.5 16.0714 31.5Z" fill="#E8E8E8" stroke="#E8E8E8"/>
<path d="M24.1071 16C24.1071 11.6 20.491 8 16.0714 8C11.6517 8 8.03564 11.6 8.03564 16C8.03564 20 10.9486 23.3 14.7656 23.9V18.3H12.7566V16H14.7656V14.2C14.7656 12.2 15.9709 11.1 17.7789 11.1C18.683 11.1 19.587 11.3 19.587 11.3V13.3H18.5825C17.5781 13.3 17.2767 13.9 17.2767 14.5V16H19.4865L19.0848 18.3H17.1763V24C21.1941 23.4 24.1071 20 24.1071 16Z" fill="#232321"/>
</svg>
