<svg width="33" height="32" viewBox="0 0 33 32" fill="none" xmlns="http://www.w3.org/2000/svg">
<path d="M16.0714 31.5C7.46946 31.5 0.5 24.5583 0.5 16C0.5 7.44168 7.46946 0.5 16.0714 0.5C24.6734 0.5 31.6429 7.44168 31.6429 16C31.6429 24.5583 24.6734 31.5 16.0714 31.5Z" fill="#E8E8E8" stroke="#E8E8E8"/>
<path d="M11.6517 24H8.23653V13.3H11.6517V24ZM9.94413 11.8C8.83922 11.8 8.03564 11 8.03564 9.9C8.03564 8.8 8.93966 8 9.94413 8C11.049 8 11.8526 8.8 11.8526 9.9C11.8526 11 11.049 11.8 9.94413 11.8ZM24.1071 24H20.6919V18.2C20.6919 16.5 19.9888 16 18.9843 16C17.9798 16 16.9754 16.8 16.9754 18.3V24H13.5602V13.3H16.7745V14.8C17.0758 14.1 18.2812 13 19.9888 13C21.8972 13 23.9062 14.1 23.9062 17.4V24H24.1071Z" fill="#232321"/>
</svg>
