<svg width="32" height="32" viewBox="0 0 32 32" fill="none" xmlns="http://www.w3.org/2000/svg">
<path d="M0 16C0 24.8366 7.13165 32 15.929 32C24.7263 32 31.858 24.8366 31.858 16C31.858 7.16344 24.7263 0 15.929 0C7.13165 0 0 7.16344 0 16Z" fill="#E8E8E8"/>
<path d="M15.9292 9.19995C18.1194 9.19995 18.4181 9.19995 19.3141 9.19995C20.1105 9.19995 20.5088 9.39995 20.8074 9.49995C21.2057 9.69995 21.5043 9.79995 21.803 10.1C22.1017 10.4 22.3008 10.7 22.4003 11.1C22.4999 11.4 22.5994 11.8 22.699 12.6C22.699 13.5 22.699 13.7 22.699 16C22.699 18.3 22.699 18.5 22.699 19.4C22.699 20.2 22.4999 20.6 22.4003 20.9C22.2012 21.3 22.1017 21.6 21.803 21.9C21.5043 22.2 21.2057 22.4 20.8074 22.5C20.5088 22.6 20.1105 22.7 19.3141 22.8C18.4181 22.8 18.219 22.8 15.9292 22.8C13.6394 22.8 13.4403 22.8 12.5443 22.8C11.7478 22.8 11.3496 22.6 11.0509 22.5C10.6527 22.3 10.354 22.2 10.0554 21.9C9.7567 21.6 9.55758 21.3 9.45803 20.9C9.35847 20.6 9.25892 20.2 9.15936 19.4C9.15936 18.5 9.15936 18.3 9.15936 16C9.15936 13.7 9.15936 13.5 9.15936 12.6C9.15936 11.8 9.35847 11.4 9.45803 11.1C9.65714 10.7 9.7567 10.4 10.0554 10.1C10.354 9.79995 10.6527 9.59995 11.0509 9.49995C11.3496 9.39995 11.7478 9.29995 12.5443 9.19995C13.4403 9.19995 13.7389 9.19995 15.9292 9.19995ZM15.9292 7.69995C13.6394 7.69995 13.4403 7.69995 12.5443 7.69995C11.6483 7.69995 11.0509 7.89995 10.5531 8.09995C10.0554 8.29995 9.55758 8.59995 9.0598 9.09995C8.56202 9.59995 8.36291 9.99995 8.06424 10.6C7.86513 11.1 7.76557 11.7 7.66602 12.6C7.66602 13.5 7.66602 13.8 7.66602 16C7.66602 18.3 7.66602 18.5 7.66602 19.4C7.66602 20.3 7.86513 20.9 8.06424 21.4C8.26335 21.9 8.56202 22.4 9.0598 22.9C9.55758 23.4 9.95581 23.6 10.5531 23.9C11.0509 24.1 11.6483 24.1999 12.5443 24.2999C13.4403 24.2999 13.7389 24.2999 15.9292 24.2999C18.1194 24.2999 18.4181 24.2999 19.3141 24.2999C20.2101 24.2999 20.8074 24.1 21.3052 23.9C21.803 23.7 22.3008 23.4 22.7986 22.9C23.2963 22.4 23.4955 22 23.7941 21.4C23.9932 20.9 24.0928 20.3 24.1923 19.4C24.1923 18.5 24.1923 18.2 24.1923 16C24.1923 13.8 24.1923 13.5 24.1923 12.6C24.1923 11.7 23.9932 11.1 23.7941 10.6C23.595 10.1 23.2963 9.59995 22.7986 9.09995C22.3008 8.59995 21.9026 8.39995 21.3052 8.09995C20.8074 7.89995 20.2101 7.79995 19.3141 7.69995C18.4181 7.69995 18.219 7.69995 15.9292 7.69995Z" fill="#232321"/>
<path d="M15.9292 11.7C13.5398 11.7 11.6483 13.6 11.6483 16C11.6483 18.4 13.5398 20.3 15.9292 20.3C18.3185 20.3 20.2101 18.4 20.2101 16C20.2101 13.6 18.3185 11.7 15.9292 11.7ZM15.9292 18.8C14.4358 18.8 13.1416 17.6 13.1416 16C13.1416 14.5 14.3363 13.2 15.9292 13.2C17.4225 13.2 18.7168 14.4 18.7168 16C18.7168 17.5 17.4225 18.8 15.9292 18.8Z" fill="#232321"/>
<path d="M20.3097 12.6C20.8595 12.6 21.3052 12.1522 21.3052 11.6C21.3052 11.0477 20.8595 10.6 20.3097 10.6C19.7598 10.6 19.3141 11.0477 19.3141 11.6C19.3141 12.1522 19.7598 12.6 20.3097 12.6Z" fill="#232321"/>
</svg>
