<svg width="32" height="32" viewBox="0 0 32 32" fill="none" xmlns="http://www.w3.org/2000/svg">
<path d="M0 16C0 24.8366 7.09996 32 15.8582 32C24.6164 32 31.7164 24.8366 31.7164 16C31.7164 7.16344 24.6164 0 15.8582 0C7.09996 0 0 7.16344 0 16Z" fill="#E8E8E8"/>
<path d="M23.4313 9.19177C23.3241 9.67532 23.2135 10.1579 23.1102 10.6424C22.3219 14.3305 21.5355 18.0187 20.7477 21.7068C20.6891 21.9818 20.6357 22.2586 20.5641 22.5307C20.2983 23.5425 19.5605 23.4814 18.988 23.0709C17.8094 22.2259 16.6457 21.3607 15.4758 20.5037C15.3018 20.3763 15.1225 20.2552 14.9552 20.1192C14.8601 20.0418 14.8024 20.0514 14.7163 20.1346C14.0391 20.7878 13.3561 21.4357 12.6764 22.087C12.474 22.2807 12.2443 22.3999 11.9367 22.3884C11.9544 22.124 11.9708 21.8688 11.9891 21.6136C12.0688 20.4955 12.1462 19.3775 12.2337 18.2605C12.2404 18.172 12.2943 18.0663 12.3606 18.0067C14.9038 15.7158 17.4508 13.4288 19.9974 11.1418C20.0286 11.1139 20.0705 11.0914 20.0887 11.0563C20.1296 10.9774 20.1589 10.8924 20.1925 10.8102C20.1046 10.7871 20.0094 10.7304 19.9311 10.7486C19.7888 10.7818 19.6465 10.8429 19.522 10.9207C16.3516 12.9001 13.183 14.8823 10.0164 16.8685C9.89817 16.943 9.80011 16.9516 9.66985 16.9108C8.34562 16.494 7.01851 16.0864 5.69476 15.6673C5.52124 15.6125 5.34868 15.5279 5.2016 15.4212C4.95983 15.2457 4.92906 14.9929 5.1444 14.791C5.32369 14.6233 5.53951 14.4709 5.76686 14.381C7.0858 13.8595 8.41195 13.3577 9.73666 12.8506C13.8723 11.2668 18.0075 9.68349 22.144 8.10307C22.2767 8.0526 22.4195 8.01318 22.5598 8.00309C22.9948 7.97137 23.2789 8.18478 23.3923 8.60632C23.4029 8.64622 23.4183 8.68515 23.4313 8.72457V9.19225V9.19177Z" fill="#232321"/>
</svg>
