<svg xmlns="http://www.w3.org/2000/svg" version="1.1"
    xmlns:xlink="http://www.w3.org/1999/xlink" width="512" height="512" x="0" y="0" viewBox="0 0 24 24" style="enable-background:new 0 0 512 512" xml:space="preserve" class="">
    <g>
        <path d="M3 3h18c.6 0 1 .4 1 1v16c0 .6-.4 1-1 1H3c-.6 0-1-.4-1-1V4c0-.6.4-1 1-1zm8.5 10.5V12h-1V9H9v3H7.5V9H6v4.5h3V15h1.5v-1.5zM18 15l-2.3-3L18 9h-1.8l-1.8 2.3V9H13v6h1.5v-2.3l1.8 2.3z" fill="#656366" opacity="1" data-original="#656366"></path>
    </g>
</svg>