<svg xmlns="http://www.w3.org/2000/svg" version="1.1"
    xmlns:xlink="http://www.w3.org/1999/xlink" width="512" height="512" x="0" y="0" viewBox="0 0 24 24" style="enable-background:new 0 0 512 512" xml:space="preserve" class="">
    <g>
        <g fill="#656366">
            <path d="M2.5 8.5A.5.5 0 0 0 3 8V6.5h1.5a.5.5 0 0 0 0-1H3v-1h1.5a.5.5 0 0 0 0-1h-2A.5.5 0 0 0 2 4v4a.5.5 0 0 0 .5.5zM7.5 8.5C8.327 8.5 9 7.827 9 7V6a.5.5 0 0 0-1 0v1a.5.5 0 0 1-1 0V6a.5.5 0 0 0-1 0v1c0 .827.673 1.5 1.5 1.5zM10.5 8.5A.5.5 0 0 0 11 8V4a.5.5 0 0 0-1 0v4a.5.5 0 0 0 .5.5zM12.5 8.5A.5.5 0 0 0 13 8V4a.5.5 0 0 0-1 0v4a.5.5 0 0 0 .5.5zM15.5 8.5A.5.5 0 0 0 16 8V6.5h1V8a.5.5 0 0 0 1 0V4a.5.5 0 0 0-1 0v1.5h-1V4a.5.5 0 0 0-1 0v4a.5.5 0 0 0 .5.5zM19.5 8.5h1c.827 0 1.5-.673 1.5-1.5V5c0-.827-.673-1.5-1.5-1.5h-1a.5.5 0 0 0-.5.5v4a.5.5 0 0 0 .5.5zm.5-4h.5a.5.5 0 0 1 .5.5v2a.5.5 0 0 1-.5.5H20zM9 12.5c-.552 0-1 .449-1 1v3a1.001 1.001 0 0 0 2 0v-3c0-.551-.448-1-1-1zM14 14.5a1 1 0 1 0 0-2 1 1 0 0 0 0 2zM19 12.5c-.552 0-1 .449-1 1v3a1.001 1.001 0 0 0 2 0v-3c0-.551-.448-1-1-1z" fill="#656366" opacity="1" data-original="#656366" class=""></path>
            <path d="M19.5 9.5h-15C2.57 9.5 1 11.07 1 13v4c0 1.93 1.57 3.5 3.5 3.5h15c1.93 0 3.5-1.57 3.5-3.5v-4c0-1.93-1.57-3.5-3.5-3.5zM5 18a.5.5 0 0 1-1 0v-3.882l-.053.105a.5.5 0 0 1-.895-.447l1-2A.5.5 0 0 1 5 12zm6-1.5c0 1.103-.897 2-2 2s-2-.897-2-2v-3c0-1.103.897-2 2-2s2 .897 2 2zm5 0c0 1.103-.897 2-2 2s-2-.897-2-2c0-.6.271-1.133.691-1.5-.42-.367-.691-.9-.691-1.5 0-1.103.897-2 2-2s2 .897 2 2c0 .6-.271 1.133-.691 1.5.42.367.691.9.691 1.5zm5 0c0 1.103-.897 2-2 2s-2-.897-2-2v-3c0-1.103.897-2 2-2s2 .897 2 2z" fill="#656366" opacity="1" data-original="#656366" class=""></path>
            <path d="M14 17.5a1 1 0 1 0 0-2 1 1 0 0 0 0 2z" fill="#656366" opacity="1" data-original="#656366" class=""></path>
        </g>
    </g>
</svg>