<svg xmlns="http://www.w3.org/2000/svg" version="1.1"
    xmlns:xlink="http://www.w3.org/1999/xlink" width="512" height="512" x="0" y="0" viewBox="0 0 53 53" style="enable-background:new 0 0 512 512" xml:space="preserve" class="">
    <g>
        <path d="M26.5 32.873a8.053 8.053 0 0 1 8.053 8.054 8.053 8.053 0 0 1-16.106 0 8.053 8.053 0 0 1 8.053-8.054zm14.887-2.382a4 4 0 0 0 0-5.657c-8.208-8.208-21.564-8.208-29.772 0a4 4 0 0 0 5.657 5.657c5.089-5.087 13.369-5.088 18.459 0a3.988 3.988 0 0 0 2.828 1.172 3.99 3.99 0 0 0 2.828-1.172zM6.83 20.176c5.259-5.26 12.246-8.156 19.671-8.156 7.425 0 14.413 2.896 19.672 8.156a4 4 0 1 0 5.656-5.657C45.059 7.748 36.063 4.021 26.5 4.021c-9.562 0-18.558 3.729-25.329 10.499a4 4 0 1 0 5.659 5.656z" fill="#656366" opacity="1" data-original="#656366" class=""></path>
    </g>
</svg>