<svg width="789" height="433" viewBox="0 0 789 433" fill="none" xmlns="http://www.w3.org/2000/svg">
<path d="M461.607 115.863C462.258 106.546 459.605 98.8637 455.5 88.863C432.663 33.2267 341.315 43.7891 301.5 88.863C293.224 98.2322 289.031 106.731 284.304 115.863H254.331C260.616 100.611 269.11 85.7076 279.834 71.6914C334.934 -0.32505 428.045 -21.642 487.801 24.0786C516.398 45.9583 532.174 79.2254 534.812 115.863H461.607Z" fill="#EA7F15"/>
<path d="M427.276 278.863C424.5 288 418.839 301.935 406.5 313.363C363.437 353.248 288.053 368.788 251.5 322.863C239.844 308.219 237.227 287.995 232.5 278.863H214.5C214.5 294.363 218.656 314.988 229.5 334.863C263.57 397.307 340.654 404.776 406.5 377.863C454.862 358.096 481.5 321 500.481 278.863H427.276Z" fill="#0F66AD"/>
<mask id="path-3-outside-1_575_3637" maskUnits="userSpaceOnUse" x="-7" y="132.863" width="791" height="137" fill="black">
<rect fill="white" x="-7" y="132.863" width="791" height="137"/>
<path d="M79.4442 163.268L53.1981 212.047H86.092L81.0845 163.268H79.4442ZM90.3224 261.863L87.3007 232.163H43.3559L27.2975 261.863H0.101742L70.8969 137.281H101.028L117.173 261.863H90.3224ZM208.937 261.863H149.279L175.784 137.281H226.636C248.047 137.281 262.293 148.073 262.293 164.131C262.293 180.535 250.551 193.744 234.147 195.989L233.974 197.629C247.702 200.133 256.249 209.63 256.249 222.494C256.249 245.459 236.565 261.863 208.937 261.863ZM197.973 156.62L191.066 188.391H211.786C226.032 188.391 236.047 180.707 236.047 169.916C236.047 161.368 229.571 156.62 217.398 156.62H197.973ZM179.669 241.401H204.448C219.211 241.401 229.917 233.027 229.917 221.113C229.917 211.443 222.751 206.004 209.714 206.004H187.353L179.669 241.401ZM369.597 239.588L365.108 261.863H282.485L308.99 137.281H391.527L386.951 159.555H330.66L324.185 188.65H377.368L373.051 209.285H319.954L313.22 239.588H369.597ZM429.59 137.281H473.708C505.479 137.281 524.732 156.188 524.732 187.96C524.732 230.696 497.536 261.863 459.721 261.863H403.172L429.59 137.281ZM451.433 159.383L434.08 239.675H457.39C480.787 239.675 497.882 220.076 497.882 190.895C497.882 171.47 486.831 159.383 467.923 159.383H451.433ZM604.668 265.057C574.106 265.057 555.889 247.963 555.802 224.48C555.802 221.026 556.148 217.314 556.925 213.601L573.07 137.281H599.402L583.344 212.997C582.653 216.105 582.307 219.127 582.394 221.803C582.653 234.149 591.459 241.66 606.222 241.66C620.813 241.66 631.346 233.027 634.713 217.573L651.808 137.281H678.054L659.837 223.357C654.311 249.517 634.454 265.057 604.668 265.057ZM778.106 239.157L773.444 261.863H691.943L718.448 137.281H744.608L722.765 239.157H778.106Z"/>
</mask>
<path d="M79.4442 163.268L53.1981 212.047H86.092L81.0845 163.268H79.4442ZM90.3224 261.863L87.3007 232.163H43.3559L27.2975 261.863H0.101742L70.8969 137.281H101.028L117.173 261.863H90.3224ZM208.937 261.863H149.279L175.784 137.281H226.636C248.047 137.281 262.293 148.073 262.293 164.131C262.293 180.535 250.551 193.744 234.147 195.989L233.974 197.629C247.702 200.133 256.249 209.63 256.249 222.494C256.249 245.459 236.565 261.863 208.937 261.863ZM197.973 156.62L191.066 188.391H211.786C226.032 188.391 236.047 180.707 236.047 169.916C236.047 161.368 229.571 156.62 217.398 156.62H197.973ZM179.669 241.401H204.448C219.211 241.401 229.917 233.027 229.917 221.113C229.917 211.443 222.751 206.004 209.714 206.004H187.353L179.669 241.401ZM369.597 239.588L365.108 261.863H282.485L308.99 137.281H391.527L386.951 159.555H330.66L324.185 188.65H377.368L373.051 209.285H319.954L313.22 239.588H369.597ZM429.59 137.281H473.708C505.479 137.281 524.732 156.188 524.732 187.96C524.732 230.696 497.536 261.863 459.721 261.863H403.172L429.59 137.281ZM451.433 159.383L434.08 239.675H457.39C480.787 239.675 497.882 220.076 497.882 190.895C497.882 171.47 486.831 159.383 467.923 159.383H451.433ZM604.668 265.057C574.106 265.057 555.889 247.963 555.802 224.48C555.802 221.026 556.148 217.314 556.925 213.601L573.07 137.281H599.402L583.344 212.997C582.653 216.105 582.307 219.127 582.394 221.803C582.653 234.149 591.459 241.66 606.222 241.66C620.813 241.66 631.346 233.027 634.713 217.573L651.808 137.281H678.054L659.837 223.357C654.311 249.517 634.454 265.057 604.668 265.057ZM778.106 239.157L773.444 261.863H691.943L718.448 137.281H744.608L722.765 239.157H778.106Z" fill="#0F66AD"/>
<path d="M79.4442 163.268V159.268H77.0541L75.9217 161.372L79.4442 163.268ZM53.1981 212.047L49.6756 210.152L46.5037 216.047H53.1981V212.047ZM86.092 212.047V216.047H90.5236L90.0711 211.639L86.092 212.047ZM81.0845 163.268L85.0636 162.859L84.6949 159.268H81.0845V163.268ZM90.3224 261.863L86.343 262.268L86.7088 265.863H90.3224V261.863ZM87.3007 232.163L91.2801 231.759L90.9144 228.163H87.3007V232.163ZM43.3559 232.163V228.163H40.9714L39.8373 230.261L43.3559 232.163ZM27.2975 261.863V265.863H29.6819L30.816 263.765L27.2975 261.863ZM0.101742 261.863L-3.37597 259.887L-6.77203 265.863H0.101742V261.863ZM70.8969 137.281V133.281H68.5692L67.4192 135.304L70.8969 137.281ZM101.028 137.281L104.995 136.767L104.543 133.281H101.028V137.281ZM117.173 261.863V265.863H121.725L121.14 261.349L117.173 261.863ZM75.9217 161.372L49.6756 210.152L56.7206 213.943L82.9666 165.163L75.9217 161.372ZM53.1981 216.047H86.092V208.047H53.1981V216.047ZM90.0711 211.639L85.0636 162.859L77.1054 163.676L82.1129 212.456L90.0711 211.639ZM81.0845 159.268H79.4442V167.268H81.0845V159.268ZM94.3019 261.458L91.2801 231.759L83.3212 232.568L86.343 262.268L94.3019 261.458ZM87.3007 228.163H43.3559V236.163H87.3007V228.163ZM39.8373 230.261L23.7789 259.96L30.816 263.765L46.8745 234.066L39.8373 230.261ZM27.2975 257.863H0.101742V265.863H27.2975V257.863ZM3.57945 263.839L74.3746 139.257L67.4192 135.304L-3.37597 259.887L3.57945 263.839ZM70.8969 141.281H101.028V133.281H70.8969V141.281ZM97.0612 137.795L113.206 262.377L121.14 261.349L104.995 136.767L97.0612 137.795ZM117.173 257.863H90.3224V265.863H117.173V257.863ZM149.279 261.863L145.367 261.031L144.339 265.863H149.279V261.863ZM175.784 137.281V133.281H172.546L171.872 136.448L175.784 137.281ZM234.147 195.989L233.605 192.026L230.497 192.451L230.169 195.57L234.147 195.989ZM233.975 197.629L229.996 197.21L229.608 200.899L233.257 201.564L233.975 197.629ZM197.973 156.62V152.62H194.749L194.064 155.77L197.973 156.62ZM191.066 188.391L187.157 187.542L186.103 192.391H191.066V188.391ZM179.669 241.401L175.76 240.553L174.708 245.401H179.669V241.401ZM187.353 206.004V202.004H184.128L183.444 205.155L187.353 206.004ZM208.937 257.863H149.279V265.863H208.937V257.863ZM153.192 262.695L179.697 138.113L171.872 136.448L145.367 261.031L153.192 262.695ZM175.784 141.281H226.636V133.281H175.784V141.281ZM226.636 141.281C236.713 141.281 244.711 143.824 250.085 147.877C255.368 151.863 258.293 157.416 258.293 164.131H266.293C266.293 154.788 262.094 146.916 254.902 141.491C247.8 136.133 237.97 133.281 226.636 133.281V141.281ZM258.293 164.131C258.293 178.485 248.077 190.045 233.605 192.026L234.689 199.952C253.024 197.443 266.293 182.584 266.293 164.131H258.293ZM230.169 195.57L229.996 197.21L237.953 198.048L238.125 196.408L230.169 195.57ZM233.257 201.564C239.385 202.682 244.108 205.309 247.282 208.847C250.437 212.365 252.249 216.988 252.249 222.494H260.249C260.249 215.136 257.787 208.578 253.237 203.506C248.705 198.453 242.291 195.08 234.692 193.694L233.257 201.564ZM252.249 222.494C252.249 242.595 235.073 257.863 208.937 257.863V265.863C238.056 265.863 260.249 248.324 260.249 222.494H252.249ZM194.064 155.77L187.157 187.542L194.974 189.241L201.881 157.47L194.064 155.77ZM191.066 192.391H211.786V184.391H191.066V192.391ZM211.786 192.391C227.17 192.391 240.047 183.853 240.047 169.916H232.047C232.047 177.562 224.893 184.391 211.786 184.391V192.391ZM240.047 169.916C240.047 164.496 237.918 159.9 233.621 156.814C229.528 153.874 223.909 152.62 217.398 152.62V160.62C223.061 160.62 226.766 161.74 228.954 163.311C230.938 164.736 232.047 166.788 232.047 169.916H240.047ZM217.398 152.62H197.973V160.62H217.398V152.62ZM179.669 245.401H204.448V237.401H179.669V245.401ZM204.448 245.401C220.502 245.401 233.917 236.054 233.917 221.113H225.917C225.917 230 217.92 237.401 204.448 237.401V245.401ZM233.917 221.113C233.917 215.175 231.651 210.146 227.106 206.733C222.732 203.45 216.705 202.004 209.714 202.004V210.004C215.761 210.004 219.834 211.278 222.303 213.131C224.599 214.855 225.917 217.38 225.917 221.113H233.917ZM209.714 202.004H187.353V210.004H209.714V202.004ZM183.444 205.155L175.76 240.553L183.578 242.25L191.262 206.852L183.444 205.155ZM369.597 239.588L373.518 240.379L374.484 235.588H369.597V239.588ZM365.108 261.863V265.863H368.382L369.029 262.653L365.108 261.863ZM282.485 261.863L278.572 261.031L277.544 265.863H282.485V261.863ZM308.99 137.281V133.281H305.751L305.077 136.448L308.99 137.281ZM391.527 137.281L395.445 138.086L396.432 133.281H391.527V137.281ZM386.951 159.555V163.555H390.213L390.869 160.36L386.951 159.555ZM330.66 159.555V155.555H327.452L326.756 158.686L330.66 159.555ZM324.185 188.65L320.28 187.781L319.197 192.65H324.185V188.65ZM377.368 188.65L381.283 189.469L382.291 184.65H377.368V188.65ZM373.051 209.285V213.285H376.301L376.966 210.104L373.051 209.285ZM319.954 209.285V205.285H316.746L316.05 208.417L319.954 209.285ZM313.22 239.588L309.315 238.721L308.234 243.588H313.22V239.588ZM365.676 238.798L361.187 261.073L369.029 262.653L373.518 240.379L365.676 238.798ZM365.108 257.863H282.485V265.863H365.108V257.863ZM286.397 262.695L312.902 138.113L305.077 136.448L278.572 261.031L286.397 262.695ZM308.99 141.281H391.527V133.281H308.99V141.281ZM387.608 136.476L383.033 158.75L390.869 160.36L395.445 138.086L387.608 136.476ZM386.951 155.555H330.66V163.555H386.951V155.555ZM326.756 158.686L320.28 187.781L328.089 189.519L334.564 160.424L326.756 158.686ZM324.185 192.65H377.368V184.65H324.185V192.65ZM373.452 187.831L369.136 208.465L376.966 210.104L381.283 189.469L373.452 187.831ZM373.051 205.285H319.954V213.285H373.051V205.285ZM316.05 208.417L309.315 238.721L317.125 240.456L323.859 210.152L316.05 208.417ZM313.22 243.588H369.597V235.588H313.22V243.588ZM429.59 137.281V133.281H426.349L425.677 136.451L429.59 137.281ZM403.172 261.863L399.259 261.033L398.234 265.863H403.172V261.863ZM451.433 159.383V155.383H448.205L447.523 158.538L451.433 159.383ZM434.08 239.675L430.17 238.83L429.123 243.675H434.08V239.675ZM429.59 141.281H473.708V133.281H429.59V141.281ZM473.708 141.281C488.801 141.281 500.452 145.757 508.32 153.548C516.182 161.334 520.732 172.888 520.732 187.96H528.732C528.732 171.26 523.655 157.475 513.949 147.863C504.247 138.258 490.386 133.281 473.708 133.281V141.281ZM520.732 187.96C520.732 228.993 494.852 257.863 459.721 257.863V265.863C500.22 265.863 528.732 232.398 528.732 187.96H520.732ZM459.721 257.863H403.172V265.863H459.721V257.863ZM407.085 262.693L433.503 138.11L425.677 136.451L399.259 261.033L407.085 262.693ZM447.523 158.538L430.17 238.83L437.989 240.52L455.343 160.228L447.523 158.538ZM434.08 243.675H457.39V235.675H434.08V243.675ZM457.39 243.675C470.285 243.675 481.522 238.241 489.469 228.805C497.38 219.411 501.882 206.251 501.882 190.895H493.882C493.882 204.721 489.836 215.95 483.35 223.651C476.901 231.309 467.892 235.675 457.39 235.675V243.675ZM501.882 190.895C501.882 180.441 498.899 171.485 492.906 165.114C486.883 158.71 478.255 155.383 467.923 155.383V163.383C476.499 163.383 482.85 166.099 487.079 170.595C491.339 175.123 493.882 181.924 493.882 190.895H501.882ZM467.923 155.383H451.433V163.383H467.923V155.383ZM555.802 224.48H551.802V224.487V224.494L555.802 224.48ZM556.925 213.601L553.011 212.773L553.01 212.782L556.925 213.601ZM573.07 137.281V133.281H569.827L569.156 136.453L573.07 137.281ZM599.402 137.281L603.315 138.111L604.339 133.281H599.402V137.281ZM583.344 212.997L587.248 213.865L587.253 213.846L587.256 213.827L583.344 212.997ZM582.394 221.803L586.393 221.719L586.392 221.697L586.392 221.674L582.394 221.803ZM634.713 217.573L638.622 218.424L638.624 218.415L638.625 218.406L634.713 217.573ZM651.808 137.281V133.281H648.57L647.895 136.448L651.808 137.281ZM678.054 137.281L681.967 138.109L682.989 133.281H678.054V137.281ZM659.837 223.357L655.924 222.529L655.923 222.531L659.837 223.357ZM604.668 261.057C590.115 261.057 578.918 256.992 571.414 250.542C563.957 244.131 559.842 235.111 559.802 224.465L551.802 224.494C551.85 237.331 556.886 248.601 566.199 256.608C575.466 264.575 588.659 269.057 604.668 269.057V261.057ZM559.802 224.48C559.802 221.286 560.123 217.849 560.84 214.421L553.01 212.782C552.173 216.779 551.802 220.767 551.802 224.48H559.802ZM560.838 214.429L576.983 138.108L569.156 136.453L553.011 212.773L560.838 214.429ZM573.07 141.281H599.402V133.281H573.07V141.281ZM595.489 136.451L579.431 212.167L587.256 213.827L603.315 138.111L595.489 136.451ZM579.439 212.129C578.695 215.476 578.296 218.841 578.396 221.932L586.392 221.674C586.319 219.412 586.611 216.734 587.248 213.865L579.439 212.129ZM578.395 221.887C578.545 229.057 581.222 235.169 586.299 239.426C591.299 243.62 598.201 245.66 606.222 245.66V237.66C599.481 237.66 594.598 235.946 591.439 233.297C588.357 230.712 586.502 226.895 586.393 221.719L578.395 221.887ZM606.222 245.66C614.334 245.66 621.559 243.246 627.247 238.477C632.922 233.719 636.785 226.853 638.622 218.424L630.805 216.721C629.274 223.746 626.188 228.925 622.107 232.347C618.039 235.758 612.702 237.66 606.222 237.66V245.66ZM638.625 218.406L655.72 138.114L647.895 136.448L630.801 216.74L638.625 218.406ZM651.808 141.281H678.054V133.281H651.808V141.281ZM674.14 136.452L655.924 222.529L663.75 224.185L681.967 138.109L674.14 136.452ZM655.923 222.531C653.334 234.787 647.453 244.33 638.924 250.837C630.374 257.36 618.865 261.057 604.668 261.057V269.057C620.257 269.057 633.57 264.984 643.776 257.197C654.004 249.394 660.814 238.087 663.75 224.184L655.923 222.531ZM778.106 239.157L782.025 239.961L783.011 235.157H778.106V239.157ZM773.444 261.863V265.863H776.706L777.362 262.667L773.444 261.863ZM691.943 261.863L688.031 261.031L687.003 265.863H691.943V261.863ZM718.448 137.281V133.281H715.21L714.536 136.448L718.448 137.281ZM744.608 137.281L748.519 138.119L749.557 133.281H744.608V137.281ZM722.765 239.157L718.854 238.318L717.817 243.157H722.765V239.157ZM774.188 238.352L769.526 261.058L777.362 262.667L782.025 239.961L774.188 238.352ZM773.444 257.863H691.943V265.863H773.444V257.863ZM695.856 262.695L722.361 138.113L714.536 136.448L688.031 261.031L695.856 262.695ZM718.448 141.281H744.608V133.281H718.448V141.281ZM740.697 136.442L718.854 238.318L726.676 239.995L748.519 138.119L740.697 136.442ZM722.765 243.157H778.106V235.157H722.765V243.157Z" fill="#0F66AD" mask="url(#path-3-outside-1_575_3637)"/>
</svg>
