<svg width="60" height="60" viewBox="0 0 60 60" fill="none" xmlns="http://www.w3.org/2000/svg">
<path d="M59.1196 32.9656V46.0576H39.4719M35.284 46.0576H0.880859V3.08301H59.1196V31.208M52.6617 42.1828H39.4719M55.2449 9.71706V39.4822M17.6715 6.95776H52.6617M7.28008 6.95776H15.9249M4.75561 39.3061V9.77577M35.284 42.1828H7.33878" stroke="#131313" stroke-width="1.76125" stroke-miterlimit="10"/>
<path d="M52.8965 53.2493H56.7713M43.2683 53.2493H51.1353M31.7615 56.9186H59.993M4.99045 9.72434H0.880859V3.08301H7.33878V7.376C7.33878 8.67299 6.28743 9.72434 4.99045 9.72434ZM55.01 9.72434H59.1196V3.08301H52.6617V7.376C52.6617 8.67299 53.713 9.72434 55.01 9.72434ZM4.99045 39.4162H0.880859V46.0576H7.33878V41.7646C7.33878 40.4676 6.28743 39.4162 4.99045 39.4162ZM55.01 39.4162H59.1196V46.0576H52.6617V41.7646C52.6617 40.4676 53.713 39.4162 55.01 39.4162ZM56.7713 56.9186H43.2683V51.9284C43.2683 50.6314 44.3197 49.5801 45.6167 49.5801H54.4229C55.7199 49.5801 56.7713 50.6314 56.7713 51.9284V56.9186ZM35.284 44.4761H39.4719V56.9039H35.284V44.4761ZM35.284 38.3008H39.4719V44.4615H35.284V38.3008ZM11.4093 11.6935V34.7268H38.5065L11.4093 11.6935Z" stroke="#131313" stroke-width="1.76125" stroke-miterlimit="10"/>
<path d="M22.1919 23.2822V25.0435M22.1919 26.8047V28.566M22.1919 30.3272V32.0885M11.4092 27.8142V34.7267H18.3217C18.3217 30.909 15.2269 27.8142 11.4092 27.8142Z" stroke="#4285B4" stroke-width="1.76125" stroke-miterlimit="10"/>
<path d="M31.1917 12.6228L27.4087 16.4058M31.1917 16.4058L27.4087 12.6228M43.3187 12.5054L45.2102 14.3969L47.1016 12.5054M37.3175 11.8394V17.1892M39.9924 14.5143H34.6427M45.2102 14.5143V17.0841M25.1564 18.0114C24.2032 17.1382 23.6055 15.8833 23.6055 14.4886C23.6055 13.1696 24.1401 11.9756 25.0044 11.1113M49.3789 18.0114C50.3321 17.1382 50.9299 15.8833 50.9299 14.4886C50.9299 13.1696 50.3953 11.9756 49.531 11.1113" stroke="#4285B4" stroke-width="1.76125" stroke-miterlimit="10"/>
</svg>
