<svg width="60" height="60" viewBox="0 0 60 60" fill="none" xmlns="http://www.w3.org/2000/svg">
<g clip-path="url(#clip0_424_10942)">
<path d="M27.1875 24.375H23.4375C23.1889 24.375 22.9504 24.4738 22.7746 24.6496C22.5988 24.8254 22.5 25.0639 22.5 25.3125V27.1875H21.5625V26.25C21.5625 26.0014 21.4637 25.7629 21.2879 25.5871C21.1121 25.4113 20.8736 25.3125 20.625 25.3125H18.2813L15.75 21.9375C15.6627 21.8211 15.5494 21.7266 15.4193 21.6615C15.2891 21.5964 15.1455 21.5625 15 21.5625H13.125V6.5625H14.0775C14.6923 6.56226 15.301 6.44073 15.8688 6.20489C16.4365 5.96905 16.9522 5.62353 17.3862 5.18811C17.8203 4.75268 18.1641 4.23592 18.3981 3.6674C18.6322 3.09889 18.7517 2.48979 18.75 1.875C18.75 1.62636 18.6512 1.3879 18.4754 1.21209C18.2996 1.03627 18.0611 0.9375 17.8125 0.9375H2.8125C2.56386 0.9375 2.32541 1.03627 2.14959 1.21209C1.97378 1.3879 1.875 1.62636 1.875 1.875C1.875 3.11674 2.3677 4.30775 3.24496 5.18658C4.12221 6.06542 5.31233 6.56026 6.55407 6.5625H7.5V21.5625H5.625C5.47946 21.5625 5.33592 21.5964 5.20574 21.6615C5.07556 21.7266 4.96233 21.8211 4.875 21.9375L2.34375 25.3125H1.875C1.62636 25.3125 1.38791 25.4113 1.21209 25.5871C1.03628 25.7629 0.937505 26.0014 0.937505 26.25V33.75C0.937505 33.9986 1.03628 34.2371 1.21209 34.4129C1.38791 34.5887 1.62636 34.6875 1.875 34.6875H20.625C20.8736 34.6875 21.1121 34.5887 21.2879 34.4129C21.4637 34.2371 21.5625 33.9986 21.5625 33.75V32.8125H22.5V34.6875C22.5 34.9361 22.5988 35.1746 22.7746 35.3504C22.9504 35.5262 23.1889 35.625 23.4375 35.625H27.1875C27.4361 35.625 27.6746 35.5262 27.8504 35.3504C28.0262 35.1746 28.125 34.9361 28.125 34.6875V25.3125C28.125 25.0639 28.0262 24.8254 27.8504 24.6496C27.6746 24.4738 27.4361 24.375 27.1875 24.375ZM3.91032 2.8125H16.7203C16.5281 3.36019 16.1707 3.83471 15.6973 4.17057C15.2239 4.50642 14.6579 4.68704 14.0775 4.6875H6.55407C5.97381 4.68587 5.40825 4.5048 4.93494 4.16912C4.46163 3.83344 4.10374 3.35958 3.91032 2.8125ZM9.375 6.5625H11.25V21.5625H9.375V6.5625ZM6.09375 23.4375H14.5313L15.9375 25.3125H4.6875L6.09375 23.4375ZM19.6875 32.8125H2.8125V27.1875H19.6875V32.8125ZM21.5625 30.9375V29.0625H22.5V30.9375H21.5625ZM26.25 33.75H24.375V26.25H26.25V33.75ZM58.125 0.9375H51.5625C50.5679 0.9375 49.6141 1.33259 48.9109 2.03585C48.2076 2.73911 47.8125 3.69294 47.8125 4.6875C47.8125 5.68206 48.2076 6.63589 48.9109 7.33915C49.6141 8.04241 50.5679 8.4375 51.5625 8.4375H53.4375V56.25C53.4375 56.9959 53.7338 57.7113 54.2613 58.2387C54.7887 58.7662 55.5041 59.0625 56.25 59.0625C56.9959 59.0625 57.7113 58.7662 58.2387 58.2387C58.7662 57.7113 59.0625 56.9959 59.0625 56.25V1.875C59.0625 1.62636 58.9637 1.3879 58.7879 1.21209C58.6121 1.03627 58.3736 0.9375 58.125 0.9375ZM49.6875 4.6875C49.6875 4.19022 49.885 3.71331 50.2367 3.36167C50.5883 3.01004 51.0652 2.8125 51.5625 2.8125H57.1875V6.5625H51.5625C51.0652 6.5625 50.5883 6.36496 50.2367 6.01332C49.885 5.66169 49.6875 5.18478 49.6875 4.6875ZM56.25 57.1875C56.0014 57.1875 55.7629 57.0887 55.5871 56.9129C55.4113 56.7371 55.3125 56.4986 55.3125 56.25V8.4375H57.1875V56.25C57.1875 56.4986 57.0887 56.7371 56.9129 56.9129C56.7371 57.0887 56.4986 57.1875 56.25 57.1875ZM30.2691 25.5881L45.2663 10.5909L46.5919 11.9166L31.5947 26.9137L30.2691 25.5881ZM30.2672 34.4137L31.5928 33.0881L39.0914 40.5867L46.59 48.0853L45.2644 49.4109L30.2672 34.4137Z" fill="#131313"/>
<path d="M16.3566 47.9114L8.85656 44.1614C8.7136 44.0899 8.55474 44.0562 8.39508 44.0635C8.23543 44.0707 8.08027 44.1186 7.94435 44.2027C7.80842 44.2868 7.69625 44.4042 7.61848 44.5438C7.54071 44.6834 7.49993 44.8406 7.5 45.0004V53.4379C7.5 53.6053 7.54479 53.7696 7.62973 53.9138C7.71467 54.058 7.83666 54.1768 7.98303 54.2579C8.1294 54.339 8.29482 54.3795 8.46211 54.3751C8.6294 54.3707 8.79246 54.3216 8.93437 54.2329L16.4344 49.5454C16.5757 49.4572 16.691 49.3329 16.7683 49.1852C16.8457 49.0376 16.8823 48.8721 16.8743 48.7056C16.8664 48.5391 16.8143 48.3778 16.7232 48.2382C16.6322 48.0986 16.5057 47.9858 16.3566 47.9114ZM9.375 51.7504V46.5173L14.0231 48.8442L9.375 51.7504Z" fill="#4285B4"/>
<rect x="0.833333" y="38.6117" width="20.5556" height="20.5556" rx="10.2778" stroke="#4285B4" stroke-width="1.66667"/>
</g>
<defs>
<clipPath id="clip0_424_10942">
<rect width="60" height="60" fill="white"/>
</clipPath>
</defs>
</svg>
