<svg width="60" height="60" viewBox="0 0 60 60" fill="none" xmlns="http://www.w3.org/2000/svg">
<g clip-path="url(#clip0_424_10966)">
<path d="M43.3725 8.08161C43.3725 6.8907 42.3998 5.91797 41.2089 5.91797C40.018 5.91797 39.0452 6.8907 39.0452 8.08161C39.0452 9.27251 40.018 10.2452 41.2089 10.2452C42.3998 10.2452 43.3725 9.27251 43.3725 8.08161ZM41.2089 9.05433C40.6725 9.05433 40.2271 8.61797 40.2271 8.07251C40.2271 7.53615 40.6634 7.0907 41.2089 7.0907C41.7452 7.0907 42.1907 7.52706 42.1907 8.07251C42.1907 8.61797 41.7452 9.05433 41.2089 9.05433ZM38.5907 51.9725C37.1816 51.9725 36.0271 53.118 36.0271 54.5362C36.0449 55.2043 36.3228 55.839 36.8016 56.3053C37.2804 56.7715 37.9224 57.0324 38.5907 57.0324C39.259 57.0324 39.901 56.7715 40.3798 56.3053C40.8586 55.839 41.1365 55.2043 41.1543 54.5362C41.1543 53.118 40.0089 51.9725 38.5907 51.9725ZM38.5907 55.8998C37.8362 55.8998 37.218 55.2907 37.218 54.5362C37.218 53.7816 37.8362 53.1634 38.5907 53.1634C39.3452 53.1634 39.9634 53.7816 39.9634 54.5362C39.9634 55.2816 39.3543 55.8998 38.5907 55.8998ZM31.7271 52.5271C30.618 52.5271 29.7271 53.4271 29.7271 54.5271C29.7271 55.6271 30.6271 56.5271 31.7271 56.5271C32.2575 56.5271 32.7662 56.3163 33.1413 55.9413C33.5163 55.5662 33.7271 55.0575 33.7271 54.5271C33.7361 53.4271 32.8362 52.5271 31.7271 52.5271ZM31.7271 55.3362C31.5113 55.3362 31.3043 55.2504 31.1517 55.0978C30.9991 54.9453 30.9134 54.7383 30.9134 54.5225C30.9134 54.3067 30.9991 54.0998 31.1517 53.9472C31.3043 53.7946 31.5113 53.7089 31.7271 53.7089C31.8371 53.7037 31.9471 53.7209 32.0504 53.7594C32.1536 53.7979 32.248 53.857 32.3277 53.9331C32.4075 54.0092 32.471 54.1006 32.5143 54.2019C32.5577 54.3032 32.5801 54.4123 32.5801 54.5225C32.5801 54.6327 32.5577 54.7418 32.5143 54.8431C32.471 54.9444 32.4075 55.0359 32.3277 55.1119C32.248 55.188 32.1536 55.2471 32.0504 55.2856C31.9471 55.3242 31.8371 55.3414 31.7271 55.3362ZM25.418 52.5271C24.3089 52.5271 23.418 53.4271 23.418 54.5271C23.418 55.6271 24.318 56.5271 25.418 56.5271C26.518 56.5271 27.418 55.6271 27.418 54.5271C27.4271 53.4271 26.5271 52.5271 25.418 52.5271ZM25.418 55.3362C25.2022 55.3362 24.9952 55.2504 24.8426 55.0978C24.6901 54.9453 24.6043 54.7383 24.6043 54.5225C24.6043 54.3067 24.6901 54.0998 24.8426 53.9472C24.9952 53.7946 25.2022 53.7089 25.418 53.7089C25.5281 53.7037 25.638 53.7209 25.7413 53.7594C25.8445 53.7979 25.9389 53.857 26.0186 53.9331C26.0984 54.0092 26.1619 54.1006 26.2052 54.2019C26.2486 54.3032 26.271 54.4123 26.271 54.5225C26.271 54.6327 26.2486 54.7418 26.2052 54.8431C26.1619 54.9444 26.0984 55.0359 26.0186 55.1119C25.9389 55.188 25.8445 55.2471 25.7413 55.2856C25.638 55.3242 25.5281 55.3414 25.418 55.3362ZM45.4543 52.5271C44.3452 52.5271 43.4543 53.4271 43.4543 54.5271C43.4543 55.6271 44.3543 56.5271 45.4543 56.5271C45.9848 56.5271 46.4935 56.3163 46.8685 55.9413C47.2436 55.5662 47.4543 55.0575 47.4543 54.5271C47.4634 53.4271 46.5634 52.5271 45.4543 52.5271ZM45.4543 55.3362C45.2385 55.3362 45.0316 55.2504 44.879 55.0978C44.7264 54.9453 44.6407 54.7383 44.6407 54.5225C44.6407 54.3067 44.7264 54.0998 44.879 53.9472C45.0316 53.7946 45.2385 53.7089 45.4543 53.7089C45.5644 53.7037 45.6744 53.7209 45.7777 53.7594C45.8809 53.7979 45.9753 53.857 46.055 53.9331C46.1348 54.0092 46.1982 54.1006 46.2416 54.2019C46.285 54.3032 46.3074 54.4123 46.3074 54.5225C46.3074 54.6327 46.285 54.7418 46.2416 54.8431C46.1982 54.9444 46.1348 55.0359 46.055 55.1119C45.9753 55.188 45.8809 55.2471 45.7777 55.2856C45.6744 55.3242 45.5644 55.3414 45.4543 55.3362ZM49.7634 54.5271C49.7634 55.6271 50.6634 56.5271 51.7634 56.5271C52.8634 56.5271 53.7634 55.6271 53.7634 54.5271C53.7634 53.418 52.8634 52.5271 51.7634 52.5271C50.6634 52.5271 49.7634 53.4271 49.7634 54.5271ZM51.7634 53.7089C51.8735 53.7037 51.9835 53.7209 52.0868 53.7594C52.19 53.7979 52.2844 53.857 52.3641 53.9331C52.4439 54.0092 52.5073 54.1006 52.5507 54.2019C52.5941 54.3032 52.6164 54.4123 52.6164 54.5225C52.6164 54.6327 52.5941 54.7418 52.5507 54.8431C52.5073 54.9444 52.4439 55.0359 52.3641 55.1119C52.2844 55.188 52.19 55.2471 52.0868 55.2856C51.9835 55.3242 51.8735 55.3414 51.7634 55.3362C51.3089 55.3362 50.9452 54.9725 50.9452 54.5271C50.9543 54.0816 51.318 53.7089 51.7634 53.7089ZM53.1362 33.3816H50.6998L49.418 30.1634C49.3271 29.9452 49.118 29.7998 48.8816 29.7907C48.6452 29.7816 48.4271 29.918 48.3271 30.1362L46.3089 34.4816L46.0271 33.7634C45.9834 33.6516 45.9072 33.5555 45.8084 33.4874C45.7095 33.4193 45.5925 33.3825 45.4725 33.3816H42.8543L40.3362 27.7634C40.2879 27.6608 40.2123 27.5735 40.1177 27.5109C40.0231 27.4484 39.9131 27.4131 39.7998 27.4089C39.5907 27.418 39.3543 27.5452 39.2543 27.7543L35.9543 34.918L35.4634 33.9362C35.4137 33.8387 35.3383 33.7567 35.2454 33.6991C35.1525 33.6414 35.0455 33.6102 34.9362 33.6089H33.4543L31.8543 30.1725C31.8079 30.0697 31.7329 29.9824 31.6384 29.9208C31.5439 29.8592 31.4337 29.826 31.3209 29.825C31.2081 29.824 31.0973 29.8554 31.0018 29.9154C30.9062 29.9753 30.8298 30.0614 30.7816 30.1634L28.6998 34.518L28.418 33.6816C28.3785 33.5638 28.3026 33.4616 28.2013 33.3897C28.1 33.3178 27.9785 33.28 27.8543 33.2816H24.8725C24.5452 33.2816 24.2816 33.5452 24.2816 33.8725C24.2816 34.1998 24.5452 34.4634 24.8725 34.4634H27.4271L28.0452 36.2816C28.1271 36.5089 28.3271 36.6725 28.5725 36.6816C28.8089 36.6998 29.0362 36.5634 29.1452 36.3452L31.3089 31.818L32.5362 34.4634C32.6362 34.6725 32.8452 34.8089 33.0725 34.8089H34.5634L35.4543 36.5634C35.5543 36.7634 35.7634 36.8907 35.9816 36.8907H35.9907C36.218 36.8907 36.4271 36.7543 36.518 36.5452L39.7907 29.4452L41.9271 34.218C42.0271 34.4271 42.2362 34.5725 42.4725 34.5725H45.0634L45.6998 36.218C45.7816 36.4362 45.9998 36.5907 46.2362 36.5998C46.4816 36.5998 46.6907 36.4725 46.7907 36.2543L48.818 31.8907L49.7452 34.1998C49.8362 34.4271 50.0543 34.5725 50.2998 34.5725H53.1362C53.4634 34.5725 53.7271 34.3089 53.7271 33.9816C53.7283 33.9032 53.7139 33.8254 53.6847 33.7527C53.6556 33.6799 53.6122 33.6137 53.5572 33.5579C53.5022 33.502 53.4367 33.4577 53.3644 33.4274C53.2921 33.3972 53.2145 33.3816 53.1362 33.3816ZM24.7634 23.6907H29.4362C29.7634 23.6907 30.0271 23.4271 30.0271 23.0998C30.0271 22.7725 29.7634 22.5089 29.4362 22.5089H24.7634C24.4362 22.5089 24.1725 22.7725 24.1725 23.0998C24.1725 23.4271 24.4362 23.6907 24.7634 23.6907ZM24.7634 25.9271H30.8725C31.1998 25.9271 31.4634 25.6634 31.4634 25.3362C31.4634 25.0089 31.1998 24.7452 30.8725 24.7452H24.7634C24.4362 24.7452 24.1725 25.0089 24.1725 25.3362C24.1725 25.6634 24.4362 25.9271 24.7634 25.9271ZM32.9907 25.9271H34.1816C34.5089 25.9271 34.7725 25.6634 34.7725 25.3362C34.7725 25.0089 34.5089 24.7452 34.1816 24.7452H32.9907C32.6634 24.7452 32.3998 25.0089 32.3998 25.3362C32.3998 25.6634 32.6634 25.9271 32.9907 25.9271ZM48.0725 28.0816C48.1634 28.1271 48.2543 28.1543 48.3543 28.1543C48.4543 28.1543 48.5452 28.1271 48.6362 28.0816C48.7634 28.018 51.6816 26.3998 51.6816 24.0634C51.6801 23.6732 51.578 23.29 51.3853 22.9507C51.1925 22.6115 50.9155 22.3276 50.5811 22.1266C50.2467 21.9256 49.866 21.8141 49.476 21.8031C49.0859 21.792 48.6996 21.8817 48.3543 22.0634C48.0093 21.8798 47.6225 21.7886 47.2318 21.7987C46.841 21.8089 46.4595 21.9201 46.1245 22.1215C45.7895 22.3229 45.5123 22.6076 45.32 22.9479C45.1277 23.2882 45.0267 23.6725 45.0271 24.0634C45.0362 26.3998 47.9543 28.018 48.0725 28.0816ZM47.2998 22.9907C47.5543 22.9907 47.7907 23.0816 47.9816 23.2362C48.1998 23.418 48.518 23.418 48.7452 23.2362C48.9362 23.0816 49.1725 22.9907 49.4271 22.9907C50.018 22.9907 50.4998 23.4725 50.4998 24.0634C50.4998 25.2543 49.1452 26.3634 48.3634 26.8634C47.5816 26.3634 46.2271 25.2452 46.2271 24.0634C46.2258 23.9222 46.2528 23.7822 46.3062 23.6515C46.3597 23.5208 46.4387 23.402 46.5386 23.3022C46.6384 23.2023 46.7571 23.1234 46.8878 23.0699C47.0185 23.0164 47.1586 22.9895 47.2998 22.9907Z" fill="#4285B4"/>
<path d="M57.0737 48.3277C58.2191 48.3277 59.1555 47.3913 59.1555 46.2458V18.0549C59.1555 16.9095 58.2191 15.9731 57.0737 15.9731H41.8009V12.164C43.6009 11.9004 45.0646 10.4731 45.31 8.62766C45.3373 8.43675 45.3555 8.25494 45.3555 8.06403C45.3328 6.98081 44.8865 5.94962 44.1124 5.19157C43.3383 4.43353 42.298 4.00898 41.2146 4.00898C40.1311 4.00898 39.0908 4.43353 38.3167 5.19157C37.5426 5.94962 37.0963 6.98081 37.0737 8.06403C37.0737 8.25494 37.0918 8.43675 37.1191 8.62766C37.3646 10.464 38.8282 11.9004 40.6282 12.164V15.9731H38.1373V14.7913C38.1373 13.4549 37.0464 12.364 35.71 12.364C34.3736 12.364 33.2827 13.4549 33.2827 14.7913V15.9731H20.11C18.9646 15.9731 18.0282 16.9095 18.0282 18.0549V36.6731H16.1373C15.3918 36.6731 14.7827 36.064 14.7827 35.3186V19.0458C15.5464 18.7913 16.1009 18.0822 16.1009 17.2368V14.564C17.5009 14.2822 18.8282 13.7004 19.9555 12.864C20.7191 12.3004 20.8827 11.2186 20.3191 10.4458C20.3046 10.4327 20.2923 10.4174 20.2827 10.4004C20.9191 9.31857 21.2555 8.0913 21.2555 6.82766V3.33675C21.2555 2.55494 20.6191 1.92766 19.8464 1.92766H18.5555C18.3373 1.32766 17.7555 0.909482 17.0827 0.909482C16.2009 0.909482 15.4736 1.62766 15.4736 2.51857C15.4736 3.40039 16.1918 4.12766 17.0827 4.12766C17.7555 4.12766 18.3373 3.70948 18.5737 3.11857H19.8646C19.9918 3.11857 20.0918 3.21857 20.0918 3.34585V6.84585C20.0918 7.8913 19.8191 8.90039 19.2918 9.80039C18.8282 9.70039 18.3282 9.7913 17.91 10.1004C15.7282 11.7186 12.6827 11.7186 10.51 10.1004C10.1009 9.80039 9.60092 9.70948 9.13729 9.80039C8.61001 8.90039 8.33729 7.8913 8.33729 6.84585V3.33675C8.33729 3.20948 8.43729 3.10948 8.56456 3.10948H9.85547C10.0918 3.70039 10.6646 4.11857 11.3464 4.11857C12.2282 4.11857 12.9555 3.40039 12.9555 2.50948C12.9555 1.62766 12.2373 0.900391 11.3464 0.900391C10.6736 0.900391 10.0918 1.31857 9.85547 1.90948H8.55547C7.77365 1.90948 7.14638 2.54585 7.14638 3.31857V6.81857C7.14638 8.08221 7.48274 9.30948 8.1191 10.3913C8.10092 10.4095 8.09183 10.4277 8.08274 10.4368C7.5191 11.2095 7.68274 12.2913 8.44638 12.8549C9.57365 13.6913 10.8918 14.2731 12.2918 14.5549V17.2277C12.2918 18.0731 12.8464 18.7822 13.61 19.0277V35.3004C13.61 36.7004 14.7464 37.8458 16.1555 37.8458H18.0464V40.5458C17.3282 40.264 16.5373 40.1004 15.7191 40.1004C14.4009 40.1004 13.1191 40.5095 12.0555 41.2549C10.9882 40.5039 9.71507 40.1006 8.41001 40.1004C4.90092 40.1004 2.05547 42.9458 2.05547 46.4458C2.05547 47.5004 2.26456 48.5095 2.61001 49.4731H1.44638C1.11911 49.4731 0.855469 49.7368 0.855469 50.064C0.855469 50.3913 1.11911 50.6549 1.44638 50.6549H3.10092C4.74638 53.9549 7.95547 56.5095 9.97365 57.8822H1.56456C1.23729 57.8822 0.973651 58.1458 0.973651 58.4731C0.973651 58.8004 1.23729 59.064 1.56456 59.064H58.5555C58.8827 59.064 59.1464 58.8004 59.1464 58.4731C59.1464 58.1458 58.8827 57.8822 58.5555 57.8822H57.1827C57.2827 57.6458 57.3464 57.3822 57.3464 57.1095V51.9004C57.3464 50.8186 56.4646 49.9458 55.3827 49.9458H51.2827V48.3095H57.0737V48.3277ZM38.2827 8.48221C38.2268 8.06376 38.2609 7.63817 38.3828 7.23398C38.5048 6.8298 38.7117 6.45635 38.9898 6.13868C39.2679 5.82101 39.6106 5.56646 39.9951 5.39209C40.3796 5.21772 40.7969 5.12756 41.2191 5.12766C41.6406 5.12856 42.0571 5.21947 42.4406 5.39431C42.8241 5.56915 43.1659 5.82389 43.443 6.14148C43.7202 6.45907 43.9263 6.83218 44.0476 7.23586C44.1689 7.63954 44.2026 8.06446 44.1464 8.48221C43.9555 9.93675 42.6918 11.0368 41.2282 11.0368C39.7373 11.0277 38.4737 9.93675 38.2827 8.48221ZM17.0827 2.92766C16.8555 2.92766 16.6646 2.73675 16.6646 2.50948C16.6646 2.28221 16.8555 2.0913 17.0827 2.0913C17.31 2.0913 17.5009 2.28221 17.5009 2.50948C17.5009 2.73675 17.3191 2.92766 17.0827 2.92766ZM11.3373 2.10039C11.5646 2.10039 11.7555 2.2913 11.7555 2.51857C11.7555 2.74585 11.5646 2.93675 11.3373 2.93675C11.11 2.93675 10.9191 2.74585 10.9191 2.51857C10.9191 2.2913 11.1009 2.10039 11.3373 2.10039ZM12.9737 13.4822C11.5827 13.2731 10.2555 12.7368 9.15547 11.9095C8.9282 11.7368 8.87365 11.4186 9.04638 11.1549C9.05547 11.1458 9.06456 11.1368 9.07365 11.1186C9.25547 10.9004 9.58274 10.864 9.81001 11.0368C12.4009 12.964 16.0282 12.964 18.6282 11.0368C18.8646 10.864 19.1736 10.9004 19.3827 11.1458L19.4009 11.164C19.5646 11.4095 19.51 11.7368 19.2827 11.9095C18.1736 12.7277 16.8555 13.2731 15.4555 13.4822C15.1646 13.5277 14.9464 13.7913 14.9464 14.0822V17.2458C14.9464 17.6458 14.6191 17.964 14.2191 17.964C13.8191 17.964 13.5009 17.6368 13.5009 17.2458V14.0731C13.4944 13.929 13.4384 13.7916 13.3423 13.6839C13.2463 13.5763 13.1161 13.5051 12.9737 13.4822ZM34.4555 14.8004C34.4555 14.1186 35.01 13.5549 35.7009 13.5549C36.3918 13.5549 36.9464 14.1095 36.9464 14.8004V15.9822H34.4555V14.8004ZM19.2191 18.0549C19.2191 17.564 19.6191 17.164 20.11 17.164H57.0737C57.5646 17.164 57.9646 17.564 57.9646 18.0549V46.2549C57.9646 46.7458 57.5646 47.1458 57.0737 47.1458H22.0191C22.0373 46.9186 22.0464 46.6913 22.0464 46.464C22.0464 45.9095 21.9646 45.364 21.8282 44.8549C21.91 44.9004 22.01 44.9368 22.11 44.9368H55.0646C55.3918 44.9368 55.6555 44.6731 55.6555 44.3458V19.9731C55.6555 19.6458 55.3918 19.3822 55.0646 19.3822H22.1191C21.7918 19.3822 21.5282 19.6458 21.5282 19.9731V43.9458C21.0373 42.8287 20.2398 41.8736 19.2282 41.1913V18.0549H19.2191ZM21.8009 49.964C21.6191 49.964 21.4464 50.0004 21.2827 50.0458C21.3191 49.964 21.3555 49.8731 21.3918 49.7913H22.71C23.0373 49.7913 23.3009 49.5277 23.3009 49.2004C23.3009 48.8731 23.0373 48.6095 22.71 48.6095H21.7736C21.8009 48.5186 21.8191 48.4277 21.8373 48.3368H25.9009V49.9731H21.8009V49.964ZM22.71 43.7458V20.564H54.4736V43.7458H22.71ZM3.2282 46.464C3.2282 43.6186 5.54638 41.3095 8.40092 41.3095C9.60092 41.3095 10.7646 41.7277 11.6737 42.4822C11.8918 42.664 12.21 42.664 12.4373 42.4822C13.3464 41.7277 14.51 41.3095 15.7191 41.3095C18.5646 41.3095 20.8736 43.6186 20.8736 46.464C20.8736 47.2004 20.7555 47.9095 20.5555 48.6004H15.01C14.9072 48.6004 14.8061 48.6272 14.7168 48.6782C14.6276 48.7293 14.5531 48.8027 14.5009 48.8913L13.3555 50.8277L11.5464 44.6549C11.4736 44.4186 11.2646 44.2458 11.0191 44.2277C10.7737 44.2095 10.5373 44.3458 10.4373 44.5731L8.18274 49.4913H3.87365C3.47365 48.5277 3.2282 47.5186 3.2282 46.464ZM4.45547 50.6731H8.55547C8.79183 50.6731 9.00092 50.5368 9.09183 50.3277L10.8282 46.5186L12.5737 52.4731C12.6373 52.7004 12.8373 52.864 13.0646 52.8913C13.0918 52.8913 13.11 52.9004 13.1373 52.9004C13.3464 52.9004 13.5373 52.7913 13.6464 52.6095L15.3191 49.7913H20.0736C18.1646 53.9822 13.2646 57.0822 12.0282 57.8186C10.9009 57.1368 6.60092 54.4095 4.45547 50.6731ZM14.1191 57.9004C15.7373 56.8004 18.11 54.9458 19.8373 52.5549V57.1277C19.8373 57.4004 19.8918 57.664 20.0009 57.9004H14.1191ZM56.1555 51.9277V57.1368C56.1555 57.564 55.81 57.9095 55.3827 57.9095H21.8009C21.6994 57.9095 21.599 57.8895 21.5052 57.8507C21.4115 57.8118 21.3263 57.7549 21.2545 57.6832C21.1828 57.6114 21.1258 57.5262 21.087 57.4325C21.0482 57.3387 21.0282 57.2382 21.0282 57.1368V51.9277C21.0282 51.5004 21.3736 51.1549 21.8009 51.1549H55.3827C55.81 51.1549 56.1555 51.5004 56.1555 51.9277ZM50.1009 49.964H27.0918V48.3277H50.1009V49.964Z" fill="#131313"/>
</g>
<defs>
<clipPath id="clip0_424_10966">
<rect width="60" height="60" fill="white"/>
</clipPath>
</defs>
</svg>
