<svg xmlns="http://www.w3.org/2000/svg" version="1.1"
    xmlns:xlink="http://www.w3.org/1999/xlink" width="512" height="512" x="0" y="0" viewBox="0 0 8.467 8.467" style="enable-background:new 0 0 512 512" xml:space="preserve" class="">
    <g>
        <path d="M2.883.525a.677.677 0 0 0-.679.678v6.063c0 .376.303.679.68.679a.677.677 0 0 0 .678-.679V1.203a.677.677 0 0 0-.679-.678zM5.597.53a.677.677 0 0 0-.678.679V7.27c0 .376.302.679.678.679s.679-.303.679-.679V1.21A.677.677 0 0 0 5.597.53z" paint-order="markers fill stroke" fill="#ffffff" opacity="1" data-original="#000000" class=""></path>
    </g>
</svg>