<svg width="46" height="46" viewBox="0 0 46 46" fill="none" xmlns="http://www.w3.org/2000/svg">
<g filter="url(#filter0_d_611_1760)">
<path d="M33.3223 2H8.68164C4.99255 2 2.00195 4.9906 2.00195 8.67969V33.3203C2.00195 37.0094 4.99255 40 8.68164 40H33.3223C37.0114 40 40.002 37.0094 40.002 33.3203V8.67969C40.002 4.9906 37.0114 2 33.3223 2Z" fill="#2378E5"/>
<path d="M9.66016 19.6191C9.66016 20.5109 10.3136 21.1708 11.2142 21.1708C11.4196 21.1758 11.6239 21.1391 11.8147 21.0629C12.0055 20.9867 12.1788 20.8726 12.3242 20.7275C12.4694 20.5824 12.5837 20.4093 12.6601 20.2188C12.7364 20.0282 12.7732 19.8243 12.7682 19.6191C12.7682 18.6879 12.0984 18.0674 11.2142 18.0674C10.3136 18.0674 9.66016 18.6879 9.66016 19.6191Z" fill="#FED766"/>
<path d="M19.5461 16.885C21.4068 16.885 22.5291 15.5191 22.5291 13.9302C22.5291 12.3413 21.4053 10.9954 19.5461 10.9954C17.687 10.9954 16.584 12.3405 16.584 13.9302C16.584 15.5198 17.7078 16.885 19.5461 16.885ZM19.5461 15.5599C18.627 15.5599 18.1164 14.8064 18.1164 13.9302C18.1164 13.054 18.627 12.2997 19.5461 12.2997C20.4861 12.2997 20.9967 13.054 20.9967 13.9302C20.9967 14.8064 20.4861 15.5592 19.5461 15.5592V15.5599ZM26.0462 16.885C27.5988 16.885 28.4978 16.1307 28.4978 15.0917C28.4978 12.8296 25.1486 13.5222 25.1486 12.7077C25.1486 12.4015 25.4955 12.157 26.0269 12.157C26.7213 12.157 27.3554 12.4632 27.7022 12.8095L28.2976 11.7691C27.6498 11.2617 26.8487 10.9889 26.0254 10.9954C24.5369 10.9954 23.7182 11.8129 23.7182 12.7686C23.7182 14.9691 27.0488 14.2155 27.0488 15.1319C27.0488 15.4789 26.7421 15.7264 26.1087 15.7264C25.4143 15.7264 24.5763 15.3392 24.1677 14.952L23.5329 16.0051C24.1461 16.5587 25.0861 16.885 26.0462 16.885ZM31.9837 16.885C33.5362 16.885 34.4353 16.1307 34.4353 15.0917C34.4353 12.8296 31.0861 13.5222 31.0861 12.7077C31.0861 12.4015 31.4337 12.157 31.9651 12.157C32.6595 12.157 33.2928 12.4632 33.6396 12.8095L34.2351 11.7691C33.5885 11.2625 32.7891 10.9895 31.9673 10.9947C30.4751 10.9947 29.6601 11.8122 29.6601 12.7679C29.6601 14.9684 32.9899 14.2148 32.9899 15.1311C32.9899 15.4782 32.6833 15.7257 32.0499 15.7257C31.3555 15.7257 30.5175 15.3385 30.1089 14.9513L29.4711 16.0051C30.0635 16.5587 31.0028 16.885 31.9837 16.885Z" fill="white"/>
<path fill-rule="evenodd" clip-rule="evenodd" d="M9.94922 8.45703H11.4451V11.0314H12.519C12.9048 11.0314 13.2868 11.1072 13.6432 11.2547C13.9996 11.4021 14.3234 11.6182 14.5962 11.8905C14.869 12.1629 15.0854 12.4863 15.2331 12.8422C15.3807 13.1981 15.4567 13.5795 15.4567 13.9647C15.4567 14.7427 15.1472 15.4888 14.5962 16.039C14.0453 16.5891 13.2981 16.8981 12.519 16.8981H9.94922V8.45703ZM11.4446 15.1457V15.6005H12.2984L12.298 15.5996C12.5163 15.5996 12.7325 15.5567 12.9342 15.4733C13.1359 15.3899 13.3192 15.2677 13.4736 15.1135C13.628 14.9594 13.7504 14.7763 13.834 14.5749C13.9175 14.3735 13.9604 14.1576 13.9604 13.9396C13.9604 13.4993 13.7853 13.0771 13.4735 12.7658C13.1617 12.4545 12.7389 12.2797 12.298 12.2797H11.4451V15.1457H11.4446Z" fill="white"/>
<path d="M9.26975 33.4686C8.49153 33.4686 7.96662 33.3411 7.56836 33.1954L8.03909 31.2111C8.30661 31.3054 8.5879 31.3546 8.87149 31.3569C9.73974 31.3569 9.99379 30.7745 9.99379 29.6282V22.2871H12.6542V29.558C12.6542 31.7415 11.8211 33.4686 9.26975 33.4686Z" fill="white"/>
<path fill-rule="evenodd" clip-rule="evenodd" d="M18.8608 32.1517C22.0332 32.1517 23.9505 29.8178 23.9505 27.1016C23.9505 24.3854 22.0317 22.0859 18.8608 22.0859C15.69 22.0859 13.8047 24.387 13.8047 27.1016C13.8047 29.8163 15.722 32.1517 18.8608 32.1517ZM18.8608 29.8873C17.2914 29.8873 16.4193 28.599 16.4193 27.1009C16.4193 25.6027 17.2907 24.3145 18.8608 24.3145C20.463 24.3145 21.3358 25.6035 21.3358 27.1009C21.3358 28.5983 20.463 29.8873 18.8608 29.8873Z" fill="white"/>
<path fill-rule="evenodd" clip-rule="evenodd" d="M25.1055 17.957H27.5996V22.331H29.3902C30.0334 22.331 30.6704 22.4578 31.2647 22.704C31.859 22.9502 32.3989 23.3112 32.8538 23.7661C33.3086 24.2211 33.6694 24.7613 33.9156 25.3557C34.1617 25.9502 34.2884 26.5873 34.2884 27.2307C34.2884 28.5302 33.7724 29.7765 32.8538 30.6953C31.9352 31.6142 30.6893 32.1304 29.3902 32.1304H25.1055V17.957ZM27.5988 29.2036V29.963H29.0225L29.0217 29.9614C29.3857 29.9615 29.7462 29.8899 30.0826 29.7506C30.4189 29.6113 30.7245 29.4071 30.9819 29.1496C31.2393 28.8921 31.4435 28.5864 31.5828 28.2499C31.722 27.9135 31.7936 27.5529 31.7935 27.1888C31.7935 26.4534 31.5015 25.7482 30.9817 25.2282C30.4619 24.7082 29.7568 24.4161 29.0217 24.4161H27.5996V29.2036H27.5988Z" fill="white"/>
</g>
<defs>
<filter id="filter0_d_611_1760" x="0.00195312" y="0" width="46" height="46" filterUnits="userSpaceOnUse" color-interpolation-filters="sRGB">
<feFlood flood-opacity="0" result="BackgroundImageFix"/>
<feColorMatrix in="SourceAlpha" type="matrix" values="0 0 0 0 0 0 0 0 0 0 0 0 0 0 0 0 0 0 127 0" result="hardAlpha"/>
<feOffset dx="2" dy="2"/>
<feGaussianBlur stdDeviation="2"/>
<feComposite in2="hardAlpha" operator="out"/>
<feColorMatrix type="matrix" values="0 0 0 0 0 0 0 0 0 0 0 0 0 0 0 0 0 0 0.1 0"/>
<feBlend mode="normal" in2="BackgroundImageFix" result="effect1_dropShadow_611_1760"/>
<feBlend mode="normal" in="SourceGraphic" in2="effect1_dropShadow_611_1760" result="shape"/>
</filter>
</defs>
</svg>
