<svg width="56" height="57" viewBox="0 0 56 57" fill="none" xmlns="http://www.w3.org/2000/svg">
<path d="M28.0042 8.89682C38.6211 8.89682 47.262 17.689 47.262 28.4985C47.262 39.308 38.624 48.1002 28.0042 48.1002C17.3843 48.1002 8.74637 39.308 8.74343 28.4985H-0.000244141C-0.000244141 44.2151 12.5633 57 28.0012 57C43.4392 57 55.9998 44.2151 55.9998 28.4985C55.9998 12.7819 43.4392 0 28.0012 0V8.89981L28.0042 8.89682Z" fill="url(#paint0_linear_611_1507)"/>
<path d="M37.2537 15H19.7458C17.1247 15 14.9998 17.1249 14.9998 19.7461V37.2539C14.9998 39.8751 17.1247 42 19.7458 42H37.2537C39.8749 42 41.9998 39.8751 41.9998 37.2539V19.7461C41.9998 17.1249 39.8749 15 37.2537 15Z" fill="#2378E5"/>
<path d="M20.441 27.5186C20.441 28.1522 20.9053 28.6211 21.5452 28.6211C21.6912 28.6246 21.8363 28.5985 21.9719 28.5444C22.1075 28.4902 22.2306 28.4092 22.3339 28.3061C22.4371 28.203 22.5183 28.08 22.5726 27.9446C22.6268 27.8093 22.6529 27.6643 22.6494 27.5186C22.6494 26.8569 22.1734 26.416 21.5452 26.416C20.9053 26.416 20.441 26.8569 20.441 27.5186Z" fill="#FED766"/>
<path d="M27.4658 25.5759C28.7878 25.5759 29.5852 24.6054 29.5852 23.4764C29.5852 22.3475 28.7867 21.3912 27.4658 21.3912C26.1448 21.3912 25.3611 22.3469 25.3611 23.4764C25.3611 24.6059 26.1596 25.5759 27.4658 25.5759ZM27.4658 24.6344C26.8127 24.6344 26.4499 24.099 26.4499 23.4764C26.4499 22.8538 26.8127 22.3179 27.4658 22.3179C28.1336 22.3179 28.4964 22.8538 28.4964 23.4764C28.4964 24.099 28.1336 24.6339 27.4658 24.6339V24.6344ZM32.0843 25.5759C33.1874 25.5759 33.8262 25.0399 33.8262 24.3017C33.8262 22.6944 31.4465 23.1865 31.4465 22.6078C31.4465 22.3902 31.6929 22.2165 32.0705 22.2165C32.5639 22.2165 33.0144 22.4341 33.2609 22.6801L33.6839 21.9409C33.2236 21.5804 32.6544 21.3866 32.0694 21.3912C31.0118 21.3912 30.4301 21.972 30.4301 22.6511C30.4301 24.2146 32.7966 23.6792 32.7966 24.3302C32.7966 24.5768 32.5787 24.7527 32.1287 24.7527C31.6353 24.7527 31.0399 24.4776 30.7495 24.2025L30.2985 24.9507C30.7342 25.3441 31.4021 25.5759 32.0843 25.5759ZM36.303 25.5759C37.4061 25.5759 38.0449 25.0399 38.0449 24.3017C38.0449 22.6944 35.6652 23.1865 35.6652 22.6078C35.6652 22.3902 35.9122 22.2165 36.2898 22.2165C36.7831 22.2165 37.2331 22.4341 37.4796 22.6801L37.9026 21.9409C37.4432 21.5809 36.8753 21.387 36.2913 21.3907C35.2311 21.3907 34.652 21.9715 34.652 22.6506C34.652 24.2141 37.0179 23.6786 37.0179 24.3297C37.0179 24.5763 36.8 24.7522 36.35 24.7522C35.8566 24.7522 35.2612 24.477 34.9709 24.2019L34.5177 24.9507C34.9386 25.3441 35.606 25.5759 36.303 25.5759Z" fill="white"/>
<path fill-rule="evenodd" clip-rule="evenodd" d="M20.6471 19.5879H21.7099V21.417H22.473C22.7471 21.417 23.0185 21.4709 23.2718 21.5757C23.525 21.6804 23.7551 21.834 23.9489 22.0275C24.1428 22.221 24.2965 22.4508 24.4014 22.7036C24.5063 22.9565 24.5603 23.2276 24.5603 23.5013C24.5603 24.054 24.3404 24.5842 23.9489 24.975C23.5575 25.3659 23.0266 25.5855 22.473 25.5855H20.6471V19.5879ZM21.7096 24.3404V24.6635H22.3163L22.316 24.6629C22.4711 24.6629 22.6247 24.6324 22.768 24.5732C22.9114 24.5139 23.0416 24.427 23.1513 24.3175C23.261 24.208 23.348 24.0779 23.4073 23.9348C23.4666 23.7917 23.4972 23.6383 23.4971 23.4834C23.4971 23.1706 23.3727 22.8706 23.1512 22.6494C22.9296 22.4282 22.6292 22.304 22.316 22.304H21.7099V24.3404H21.7096Z" fill="white"/>
<path d="M20.1637 37.3593C19.6108 37.3593 19.2378 37.2687 18.9548 37.1652L19.2893 35.7553C19.4794 35.8223 19.6792 35.8572 19.8807 35.8589C20.4977 35.8589 20.6782 35.4451 20.6782 34.6306V29.4146H22.5685V34.5807C22.5685 36.1321 21.9765 37.3593 20.1637 37.3593Z" fill="white"/>
<path fill-rule="evenodd" clip-rule="evenodd" d="M26.978 36.4235C29.2321 36.4235 30.5944 34.7652 30.5944 32.8353C30.5944 30.9053 29.231 29.2715 26.978 29.2715C24.725 29.2715 23.3855 30.9064 23.3855 32.8353C23.3855 34.7641 24.7478 36.4235 26.978 36.4235ZM26.978 34.8146C25.8629 34.8146 25.2433 33.8992 25.2433 32.8347C25.2433 31.7702 25.8624 30.8549 26.978 30.8549C28.1164 30.8549 28.7366 31.7708 28.7366 32.8347C28.7366 33.8987 28.1164 34.8146 26.978 34.8146Z" fill="white"/>
<path fill-rule="evenodd" clip-rule="evenodd" d="M31.4148 26.3379H33.1869V29.4457H34.4592C34.9163 29.4457 35.3688 29.5358 35.7911 29.7108C36.2133 29.8857 36.597 30.1421 36.9202 30.4654C37.2433 30.7887 37.4997 31.1725 37.6746 31.5948C37.8495 32.0172 37.9395 32.4699 37.9395 32.9271C37.9395 33.8504 37.5729 34.7359 36.9202 35.3888C36.2675 36.0417 35.3823 36.4085 34.4592 36.4085H31.4148V26.3379ZM33.1864 34.3289V34.8684H34.1979L34.1974 34.8673C34.456 34.8674 34.7122 34.8165 34.9512 34.7175C35.1901 34.6185 35.4073 34.4734 35.5902 34.2905C35.7731 34.1075 35.9181 33.8903 36.0171 33.6513C36.116 33.4122 36.1669 33.156 36.1668 32.8973C36.1668 32.3748 35.9593 31.8737 35.59 31.5043C35.2207 31.1348 34.7197 30.9272 34.1974 30.9272H33.1869V34.3289H33.1864Z" fill="white"/>
<defs>
<linearGradient id="paint0_linear_611_1507" x1="27.9998" y1="0" x2="27.9998" y2="57" gradientUnits="userSpaceOnUse">
<stop stop-color="#BB6194"/>
<stop offset="1" stop-color="#FFF3F9"/>
</linearGradient>
</defs>
</svg>
