<svg width="15" height="14" viewBox="0 0 15 14" fill="none" xmlns="http://www.w3.org/2000/svg">
<path fill-rule="evenodd" clip-rule="evenodd" d="M1.33301 0C0.780723 0 0.333008 0.447715 0.333008 1V4C0.333008 4.55228 0.780723 5 1.33301 5H5.33301V1C5.33301 0.447715 4.88529 0 4.33301 0H1.33301ZM10.333 0C9.78072 0 9.33301 0.447715 9.33301 1V5H13.333C13.8853 5 14.333 4.55228 14.333 4V1C14.333 0.447715 13.8853 0 13.333 0H10.333ZM9.33301 9H13.333C13.8853 9 14.333 9.44771 14.333 10V13C14.333 13.5523 13.8853 14 13.333 14H10.333C9.78072 14 9.33301 13.5523 9.33301 13V9ZM1.33301 9C0.780723 9 0.333008 9.44771 0.333008 10V13C0.333008 13.5523 0.780723 14 1.33301 14H4.33301C4.88529 14 5.33301 13.5523 5.33301 13V9H1.33301Z" fill="white"/>
</svg>
