<svg width="12" height="14" viewBox="0 0 12 14" fill="none"
    xmlns="http://www.w3.org/2000/svg">
    <path d="M0.546172 14L4.16617 7.3L0.766172 0.96H4.04617L5.18617 3.42C5.33284 3.71333 5.47951 4.03333 5.62617 4.38C5.78617 4.72667 5.95284 5.10667 6.12617 5.52H6.20617C6.35284 5.10667 6.49284 4.72667 6.62617 4.38C6.77284 4.03333 6.91284 3.71333 7.04617 3.42L8.08617 0.96H11.2262L7.84617 7.44L11.4462 14H8.16617L6.86617 11.34C6.70617 10.9933 6.54617 10.6533 6.38617 10.32C6.23951 9.97333 6.07284 9.6 5.88617 9.2H5.80617C5.65951 9.6 5.51284 9.97333 5.36617 10.32C5.21951 10.6533 5.07284 10.9933 4.92617 11.34L3.70617 14H0.546172Z" fill="#FFFFFF"/>
</svg>
