<svg width="53" height="46" viewBox="0 0 53 46" fill="none"
    xmlns="http://www.w3.org/2000/svg">
    <path d="M3.98286 42.2873C1.78583 42.2873 0 40.4997 0 38.3044C0 36.1091 1.78755 34.3215 3.98286 34.3215C6.17817 34.3215 7.96574 36.1091 7.96574 38.3044C7.96574 40.4997 6.17817 42.2873 3.98286 42.2873Z" fill="black" />
    <path d="M31.3032 42.2873C29.1062 42.2873 27.3203 40.4997 27.3203 38.3044C27.3203 36.1091 29.1079 34.3215 31.3032 34.3215C32.652 34.3215 33.8976 34.996 34.6374 36.1263L33.3041 36.9986C32.8602 36.3207 32.1118 35.9164 31.3032 35.9164C29.9853 35.9164 28.9135 36.9883 28.9135 38.3061C28.9135 39.624 29.9853 40.6958 31.3032 40.6958C32.16 40.6958 33.0271 40.2881 33.5329 39.6653V39.3143H31.9673V37.7212H35.1261V40.1625L34.9953 40.3621C34.2263 41.5337 32.7776 42.2924 31.3032 42.2924V42.2873Z" fill="black" />
    <path d="M23.4818 34.478H21.8887V42.1324H23.4818V34.478Z" fill="black" />
    <path d="M40.9037 34.478H39.3105V42.1324H40.9037V34.478Z" fill="black" />
    <path d="M16.9061 38.0772C17.3104 37.6781 17.5323 37.1465 17.5323 36.5804C17.5323 35.4208 16.5895 34.478 15.4299 34.478H11.8066V42.1324H13.3998V38.6553L13.5994 38.6587C14.9826 38.6587 15.8583 40.6287 15.8583 42.1341H17.4515C17.4515 40.6012 16.9577 39.3745 16.2454 38.5211C16.488 38.4179 16.7117 38.2699 16.9061 38.079V38.0772ZM13.3998 36.0712H15.4299C15.7104 36.0712 15.9392 36.3 15.9392 36.5804C15.9392 36.7181 15.8859 36.8471 15.7878 36.9434C15.6897 37.0398 15.5659 37.088 15.4231 37.0914L13.3998 37.0622V36.0729V36.0712Z" fill="black" />
    <path d="M51.0952 34.478V37.3512C49.6122 35.8114 47.3739 34.7051 45.6035 34.4987V42.1341H47.1967V36.5873C49.1184 37.4131 51.0901 39.082 51.0935 40.7353V42.1341H52.6867V34.4797H51.0935L51.0952 34.478Z" fill="black" />
    <path d="M26.3442 0C18.2942 0 11.7461 6.5498 11.7461 14.5981C11.7461 22.6464 18.2942 29.1945 26.3442 29.1945C34.3943 29.1945 40.9406 22.6464 40.9406 14.5981C40.9406 6.5498 34.3925 0 26.3442 0ZM26.3442 24.637C20.8078 24.637 16.3036 20.1328 16.3036 14.5981C16.3036 9.0634 20.8078 4.5575 26.3442 4.5575C31.8807 4.5575 36.3831 9.06167 36.3831 14.5981C36.3831 20.1346 31.8789 24.637 26.3442 24.637Z" fill="black" />
    <path d="M23.2171 44.0283H21.7754V44.4292H22.2967V46H22.6959V44.4292H23.2171V44.0283Z" fill="black" />
    <path d="M26.9441 44.4292V44.0283H25.5195V46H26.9441V45.5991H25.9204V45.1587H26.5294V44.7578H25.9204V44.4292H26.9441Z" fill="black" />
    <path d="M30.5158 44.0283L30.4659 44.2554C30.2784 44.1986 30.0582 44.1918 29.9567 44.1918C29.8552 44.1918 29.6367 44.2004 29.4491 44.2554L29.3992 44.0283H28.988L29.4233 46H30.4917L30.927 44.0283H30.5158ZM30.1683 45.5991H29.745L29.5971 44.9298C29.7416 44.9556 29.881 44.9591 29.9567 44.9591C30.0324 44.9591 30.1717 44.9539 30.3162 44.9298L30.1683 45.5991ZM29.9567 44.646C29.7158 44.646 29.5214 44.6133 29.5214 44.5737C29.5214 44.5341 29.7158 44.5014 29.9567 44.5014C30.1975 44.5014 30.3919 44.5341 30.3919 44.5737C30.3919 44.6133 30.1975 44.646 29.9567 44.646Z" fill="black" />
</svg>