<svg width="60" height="60" viewBox="0 0 60 60" fill="none"
    xmlns="http://www.w3.org/2000/svg">
    <g clip-path="url(#clip0_147_411)">
        <path d="M28.2502 0C29.4252 0 30.6002 0 31.7752 0C31.9252 0.025 32.0752 0.1 32.2252 0.1C36.4752 0.375 40.5002 1.525 44.2002 3.575C52.6002 8.275 57.7502 15.35 59.5502 24.825C59.7752 25.95 59.8752 27.1 60.0252 28.225V31.75C60.0002 31.925 59.9502 32.075 59.9252 32.25C59.7252 35.35 59.0752 38.375 57.8252 41.2C52.7252 52.75 43.8502 59.05 31.2752 59.925C25.3752 60.325 19.7752 58.875 14.7252 55.775C5.62517 50.175 0.700173 41.975 0.0501735 31.325C-0.274826 25.9 0.900174 20.7 3.52517 15.925C8.37517 7.175 15.7502 1.95 25.6502 0.325C26.5002 0.175 27.3752 0.1 28.2502 0ZM54.9752 30.025C54.9752 16.25 43.8502 5.075 30.0502 5.025C16.2752 4.975 5.05017 16.2 5.02517 30C5.02517 43.8 16.2252 55 30.0252 55C43.8252 55 54.9752 43.825 54.9752 30.025Z" fill="white" />
        <path d="M25.075 30.05C25.075 27.15 25.075 24.225 25.075 21.325C25.075 20.6 25.225 20 25.925 19.65C26.6 19.325 27.175 19.55 27.725 19.95C31.725 22.85 35.725 25.75 39.7 28.675C40.825 29.5 40.825 30.575 39.7 31.4C35.7 34.325 31.675 37.225 27.675 40.15C27.125 40.55 26.525 40.75 25.875 40.4C25.25 40.075 25.075 39.5 25.075 38.825C25.075 35.9 25.075 32.975 25.075 30.025V30.05Z" fill="white" />
    </g>
    <defs>
        <clipPath id="clip0_147_411">
            <rect width="60" height="60" fill="white" />
        </clipPath>
    </defs>
</svg>