<svg xmlns="http://www.w3.org/2000/svg" version="1.1"
    xmlns:xlink="http://www.w3.org/1999/xlink" width="512" height="512" x="0" y="0" viewBox="0 0 8.467 8.467" style="enable-background:new 0 0 512 512" xml:space="preserve" class="">
    <g>
        <path d="M1.019.53a.493.493 0 0 0-.486.498v6.416c.014.644.972.644.986 0V1.028a.494.494 0 0 0-.5-.499zm1.974 0a.493.493 0 0 0-.486.498v6.416c0 .41.474.641.797.388L7.73 4.636a.493.493 0 0 0 0-.8L3.344.67a.493.493 0 0 0-.351-.14z" fill="#ffffff" opacity="1" data-original="#000000" class=""></path>
    </g>
</svg>