<svg xmlns="http://www.w3.org/2000/svg" version="1.1"
    xmlns:xlink="http://www.w3.org/1999/xlink" width="512" height="512" x="0" y="0" viewBox="0 0 8.467 8.467" style="enable-background:new 0 0 512 512" xml:space="preserve" class="hovered-paths">
    <g>
        <path d="M5.457.53a.493.493 0 0 0-.339.142L.742 3.832a.493.493 0 0 0 0 .798l4.403 3.179c.32.271.811.044.812-.375V1.028a.493.493 0 0 0-.5-.499zm1.971 0a.493.493 0 0 0-.485.498v6.406c-.015.671 1 .671.985 0V1.028a.492.492 0 0 0-.5-.499z" fill="#ffffff" opacity="1" data-original="#000000" class="hovered-path"></path>
    </g>
</svg>