<svg width="44" height="44" viewBox="0 0 44 44" fill="none" xmlns="http://www.w3.org/2000/svg">
  <path d="M23.6172 12.9188H22.4091V11.7105H23.6172V12.9188Z" fill="#4285B4" />
  <path d="M21.6037 12.9188H20.3955V11.7105H21.6036L21.6037 12.9188Z" fill="#4285B4" />
  <path fill-rule="evenodd" clip-rule="evenodd" d="M22.0068 7.94098C24.4181 7.94098 26.3798 9.90254 26.3798 12.314C26.3798 14.7249 24.4181 16.6865 22.0068 16.6865C19.5958 16.6865 17.6343 14.7249 17.6343 12.314C17.6343 9.90254 19.5958 7.94098 22.0068 7.94098ZM22.0068 9.14906C20.2617 9.14906 18.8423 10.5687 18.8423 12.314C18.8423 14.0587 20.2618 15.4784 22.0068 15.4784C23.7518 15.4784 25.1717 14.0587 25.1717 12.314C25.1717 10.5687 23.7518 9.14906 22.0068 9.14906Z" fill="#4285B4" />
  <path fill-rule="evenodd" clip-rule="evenodd" d="M22.0066 31.0303L22.5068 30.2919C22.8662 29.7615 31.3067 17.2461 31.3067 12.3148C31.3067 7.18699 27.1349 3.0152 22.0066 3.0152C16.8788 3.0152 12.707 7.18699 12.707 12.3153C12.707 17.2464 21.1476 29.7615 21.5067 30.2922L22.0066 31.0303ZM22.0066 4.22328C26.4687 4.22328 30.0986 7.85305 30.0986 12.3153C30.0986 16.2282 23.8428 26.0596 22.0066 28.8599C20.1709 26.0596 13.9151 16.2295 13.9151 12.3153C13.9151 7.85312 17.5449 4.22328 22.0066 4.22328Z" fill="#131313" />
  <path fill-rule="evenodd" clip-rule="evenodd" d="M38.5113 25.3094L39.4368 28.8244L39.4376 28.8238C39.4437 28.8225 39.5028 29.0747 42.625 40.931H1.38916C1.36932 41.0064 1.37127 40.999 1.38916 40.931C2.10121 38.227 2.23305 37.7259 2.13843 38.0854C2.74925 35.7655 3.79394 31.798 5.50242 25.3094H17.7742V26.5174H17.2257L15.3276 33.7257H28.6861L26.7883 26.5174H26.2395V25.3094H38.5113ZM38.1877 28.8244L37.5802 26.5174H30.8566L31.464 28.8244H38.1877ZM13.1574 26.5174H6.43346L5.82626 28.8244H12.55L13.1574 26.5174ZM4.76595 32.8514L2.95622 39.7229H9.68021L11.4895 32.8514H4.76595ZM13.7485 39.7229H30.2652L29.7464 37.753H14.2671L13.7485 39.7229ZM30.6777 36.5449L31.5146 39.7229L33.0843 39.7229L30.957 31.6432H38.9298L38.5055 30.0325H30.5326L29.607 26.5174H28.0373L30.2536 34.9341H13.7601L15.9764 26.5174H14.4068L13.4813 30.0325H5.50815L5.08406 31.6433H13.0569L10.9296 39.7229H12.4991L13.3358 36.5449H30.6777ZM32.5243 32.8514L34.3337 39.7229H41.0572L39.248 32.8514H32.5243Z" fill="#131313" />
</svg>