<svg width="44" height="44" viewBox="0 0 44 44" fill="none" xmlns="http://www.w3.org/2000/svg">
  <g clip-path="url(#clip0_424_12371)">
    <path d="M43.3555 36.2572C43.1845 36.2572 43.0206 36.3251 42.8997 36.446C42.7788 36.5669 42.7109 36.7308 42.7109 36.9018V41.2084C42.7109 41.2682 42.6623 41.3169 42.6024 41.3169H40.1534V31.9001C40.1534 31.5442 39.8649 31.2556 39.5088 31.2556C39.1528 31.2556 38.8643 31.5442 38.8643 31.9001V41.317H34.1317L35.4126 39.9079C35.6105 39.6902 35.7037 39.3811 35.6622 39.0809L35.6592 39.0616L34.2193 30.5542L34.4842 30.1553L34.5533 30.2043C34.672 30.2887 34.8075 30.3464 34.9506 30.3733C35.0938 30.4003 35.241 30.396 35.3823 30.3606C35.5236 30.3253 35.6556 30.2598 35.7692 30.1686C35.8828 30.0774 35.9752 29.9627 36.0402 29.8324V29.8323L37.5054 26.8957L40.8522 28.1919C40.9843 28.2493 42.7106 29.0409 42.7106 31.1005V33.8938C42.7125 34.0635 42.7813 34.2255 42.902 34.3448C43.0226 34.4641 43.1855 34.531 43.3551 34.531C43.5248 34.531 43.6876 34.4641 43.8083 34.3449C43.929 34.2256 43.9978 34.0635 43.9997 33.8939V31.1006C43.9997 28.1263 41.4487 27.0434 41.3402 26.9987L41.3279 26.9938L35.6288 24.7866V23.6127C36.5184 22.897 37.1431 21.8655 37.3307 20.6896C37.7744 20.6339 38.1861 20.4563 38.5277 20.1625C38.7698 19.9543 38.964 19.6962 39.0971 19.406C39.2301 19.1157 39.2989 18.8001 39.2986 18.4808C39.2988 17.9691 39.122 17.4731 38.7981 17.0769V15.3377C38.7981 11.9341 36.0291 9.16507 32.6256 9.16507C31.0975 9.16507 29.6985 9.72435 28.6194 10.6475C28.606 10.1576 28.4306 9.68586 28.1206 9.30627V7.56715C28.1206 4.16352 25.3515 1.39453 21.948 1.39453C18.5444 1.39453 15.7754 4.1636 15.7754 7.56715V9.35164C15.4656 9.72186 15.2923 10.1682 15.277 10.642C14.573 10.0397 13.742 9.60446 12.846 9.36874C12.5012 9.27799 12.1491 9.48364 12.0585 9.82791C11.9678 10.1722 12.1734 10.5248 12.5176 10.6154C14.6586 11.1792 16.1539 13.1211 16.1539 15.3376V16.3016C16.1138 16.2939 16.0735 16.2867 16.0332 16.2799C16.0245 16.098 15.9784 15.9869 15.8792 15.8442C15.7142 15.6071 15.4179 15.3117 14.4649 14.2874C14.3011 14.1108 14.0801 13.9979 13.8411 13.9688C13.602 13.9396 13.3604 13.9961 13.159 14.1282C11.5266 15.1945 9.54343 15.738 7.70299 15.63C7.10349 15.5948 6.72906 15.8582 6.56948 16.2899C6.55521 16.2922 6.3958 16.3243 6.38695 16.3265V15.3376C6.38695 13.2004 7.81505 11.2778 9.85976 10.6618C9.94185 10.6383 10.0184 10.5987 10.0851 10.5454C10.1517 10.492 10.2071 10.4259 10.248 10.351C10.2889 10.276 10.3145 10.1937 10.3234 10.1087C10.3322 10.0238 10.324 9.93798 10.2994 9.85622C10.2748 9.77446 10.2342 9.69841 10.1799 9.63249C10.1256 9.56656 10.0588 9.51208 9.9833 9.47219C9.9078 9.43231 9.82513 9.40782 9.74009 9.40015C9.65505 9.39248 9.56933 9.40179 9.48791 9.42752C8.2444 9.80204 7.12661 10.5818 6.34071 11.623C5.52749 12.7002 5.09772 13.9847 5.09772 15.3377V17.1223C4.77305 17.5102 4.59748 17.9816 4.59748 18.4808C4.59748 19.5843 5.41044 20.5466 6.56871 20.6901C6.75845 21.8385 7.3815 22.9398 8.3648 23.6886V24.7869L2.67205 26.994L2.65993 26.9988C2.55114 27.0434 0 28.1262 0 31.1005V41.2084C0 41.9791 0.626999 42.606 1.39777 42.606H21.2468C21.514 42.606 21.7756 42.5289 22 42.3839C22.2245 42.5289 22.4861 42.606 22.7533 42.606H42.6024C43.3731 42.606 44.0001 41.9791 44.0001 41.2084V36.9018C44.0001 36.8171 43.9834 36.7333 43.951 36.6551C43.9186 36.5769 43.8711 36.5058 43.8113 36.446C43.7514 36.3861 43.6804 36.3387 43.6021 36.3063C43.5239 36.2739 43.4401 36.2572 43.3555 36.2572ZM6.50563 19.3584C6.12776 19.2212 5.88636 18.8717 5.88636 18.4807C5.88636 18.1014 6.16136 17.7898 6.50563 17.6419V19.3584ZM36.2981 26.4282L35.033 28.9638L33.6077 27.9515L35.1896 25.9989L36.2981 26.4282ZM32.676 27.0536L31.009 24.996V24.3777C31.5509 24.565 32.1345 24.6515 32.6839 24.6517H32.6844C33.2524 24.6516 33.8275 24.5437 34.3397 24.351V25L32.676 27.0536ZM33.4327 29.4086L33.1956 29.7655H32.1565L31.9194 29.4086L32.6761 28.8712L33.4327 29.4086ZM21.9983 19.283L20.3314 17.2254V16.6071C20.8711 16.7936 21.4542 16.8809 22.0063 16.881H22.0067C22.5738 16.881 23.1488 16.7735 23.6621 16.5804V17.2293L21.9983 19.283ZM22.755 21.6381L22.5179 21.995H21.4788L21.2417 21.6381L21.9984 21.1007L22.755 21.6381ZM16.9226 12.8577C17.028 12.8864 17.1362 12.9059 17.2462 12.9195C17.4359 14.0679 18.059 15.1692 19.0422 15.9179V17.0163L17.7273 17.526C17.6509 17.3654 17.5553 17.2145 17.4427 17.0768V15.3377C17.4431 14.4839 17.266 13.6394 16.9226 12.8577ZM25.4234 12.1752C25.4234 14.0618 23.8844 15.5917 22.0067 15.5917C19.8883 15.5917 18.4726 13.9499 18.4726 12.1752V9.15605C20.5078 9.23752 22.6221 8.63432 24.3508 7.55839C24.932 8.1816 25.2778 8.54366 25.4234 8.71175L25.4234 12.1752ZM26.6532 12.9191C26.7618 12.906 26.8694 12.8853 26.975 12.8571C26.6302 13.6386 26.4524 14.4835 26.4529 15.3377V17.1222C26.3551 17.2386 26.2697 17.3648 26.198 17.4988L24.9512 17.016V15.8421C25.8408 15.1264 26.4656 14.0949 26.6532 12.9191ZM19.4824 18.2293L21.0647 20.1823L19.9857 20.9487L19.984 20.95L19.6416 21.1933L18.3763 18.6577L19.4824 18.2293ZM23.4818 19.4998L24.5119 18.2283L25.6204 18.6575L24.3553 21.1933L24.0121 20.9496L24.0111 20.9487L22.9301 20.1809L23.4818 19.4998ZM23.8066 22.3848L23.8756 22.4338C23.9943 22.5182 24.1299 22.5758 24.273 22.6028C24.4161 22.6298 24.5634 22.6254 24.7047 22.59C24.846 22.5548 24.978 22.4893 25.0915 22.3981C25.2051 22.3069 25.2976 22.1922 25.3626 22.0619V22.0618L26.4504 19.8816C26.8241 20.3423 27.3647 20.6224 27.9214 20.6919C28.118 21.9243 28.7841 22.976 29.72 23.6886V24.7868L24.2403 26.9113L23.5416 22.7837L23.8066 22.3848ZM30.16 25.9998L31.7423 27.9529L30.3192 28.9638L29.054 26.4282L30.16 25.9998ZM36.1009 19.9458C36.1011 21.7863 34.6064 23.3623 32.6844 23.3623C30.4937 23.3623 29.1502 21.6465 29.1502 19.9458V16.9267C31.1709 17.0074 33.288 16.4122 35.0283 15.329C35.6095 15.9522 35.9553 16.3143 36.101 16.4824L36.1009 19.9458ZM38.0096 18.4808C38.0096 18.8725 37.7674 19.2213 37.3903 19.3584V17.605C37.7801 17.7469 38.0096 18.1032 38.0096 18.4808ZM27.742 15.3376C27.742 12.6448 29.9328 10.4541 32.6255 10.4541C35.3182 10.4541 37.5089 12.6449 37.5089 15.3376V16.3016C37.4688 16.2938 37.4286 16.2866 37.3882 16.2799C37.3795 16.0978 37.3332 15.9864 37.2342 15.8442C37.0649 15.6009 36.7718 15.3106 35.8199 14.2874C35.4875 13.9306 34.9394 13.8502 34.514 14.1282C32.9259 15.1656 30.9194 15.7517 29.0101 15.6276C28.4738 15.5925 28.0853 15.8551 27.9245 16.29C27.9101 16.2923 27.751 16.3244 27.7419 16.3266L27.742 15.3376ZM27.8611 17.642V19.3575C27.4821 19.2209 27.2418 18.8704 27.2418 18.4807C27.2417 18.1014 27.5165 17.79 27.8611 17.642ZM27.3318 10.7102C27.3318 10.9816 27.2143 11.2383 27.0095 11.4144C26.9218 11.4897 26.8212 11.5484 26.7125 11.5877V9.83435C27.0979 9.97426 27.3318 10.3286 27.3318 10.7102ZM21.9478 2.68359C24.6406 2.68359 26.8313 4.87431 26.8313 7.56707V8.53102C26.7911 8.52327 26.7509 8.51606 26.7106 8.50937C26.7011 8.31197 26.6442 8.19063 26.5281 8.03362C26.3555 7.80004 26.0374 7.47889 25.1423 6.51674C24.9785 6.34022 24.7575 6.22739 24.5184 6.19825C24.2794 6.16912 24.0377 6.22557 23.8363 6.35758C22.1592 7.45328 20.1246 7.98653 18.2805 7.85444C17.8293 7.82032 17.4045 8.09292 17.2469 8.51925C17.2326 8.52157 17.0733 8.55371 17.0644 8.55586V7.56715C17.0644 4.87431 19.2551 2.68359 21.9478 2.68359ZM17.1833 9.87139V11.5878C16.8054 11.4507 16.564 11.1012 16.564 10.7101C16.564 10.333 16.8368 10.0203 17.1833 9.87139ZM16.0348 17.605C16.3954 17.7362 16.627 18.0508 16.6499 18.4247C16.6788 18.8405 16.4233 19.2165 16.0348 19.3576V17.605ZM15.9751 20.6918C16.583 20.6157 17.141 20.2953 17.5069 19.8025L18.6342 22.0618L18.6343 22.0619C18.6992 22.1922 18.7917 22.307 18.9053 22.3981C19.0188 22.4893 19.1508 22.5548 19.2922 22.59C19.5751 22.6608 19.8779 22.6066 20.1212 22.4338L20.1902 22.3848L20.4551 22.7836L19.7567 26.9101L14.2736 24.7865V23.6131H14.2735C15.1864 22.8771 15.7918 21.837 15.9751 20.6918ZM11.3205 27.0536L9.6536 24.996V24.3777C10.1933 24.5643 10.7765 24.6515 11.3286 24.6516H11.3289C11.8942 24.6504 12.4547 24.5486 12.9843 24.351V25L11.3205 27.0536ZM12.0773 29.4086L11.8402 29.7655H10.8011L10.564 29.4086L11.3207 28.8712L12.0773 29.4086ZM13.8341 25.9989L14.9427 26.4282L13.6775 28.9638L13.3343 28.7201L13.3333 28.7192L12.2523 27.9515L13.8341 25.9989ZM7.79477 19.9458V16.9267C9.84086 17.0084 11.9565 16.3972 13.6729 15.329C14.2486 15.9464 14.5997 16.3141 14.7456 16.4824V19.9458C14.7456 21.8204 13.2172 23.3623 11.3289 23.3623C9.22666 23.3623 7.79477 21.7392 7.79477 19.9458ZM8.80471 25.9998L10.387 27.9529L9.30796 28.7192L9.30632 28.7205L8.96387 28.9638L7.69861 26.4282L8.80471 25.9998ZM5.13587 41.3171V31.9001C5.13587 31.5442 4.84738 31.2556 4.49134 31.2556C4.1353 31.2556 3.84681 31.5442 3.84681 31.9001V41.317H1.39777C1.36898 41.317 1.34138 41.3055 1.32102 41.2852C1.30065 41.2648 1.28919 41.2372 1.28915 41.2084V31.1005C1.28915 29.0303 3.03342 28.2413 3.14634 28.1925L6.4911 26.8957L7.95642 29.8323L7.95651 29.8324C8.02146 29.9628 8.11392 30.0775 8.22751 30.1687C8.34109 30.2599 8.47311 30.3253 8.61444 30.3606C8.89744 30.4313 9.20019 30.3772 9.44348 30.2043L9.51249 30.1553L9.77743 30.5542L8.33755 39.0616L8.33455 39.0809C8.29312 39.3809 8.38637 39.69 8.58428 39.908L9.865 41.317L5.13587 41.3171ZM9.63125 39.1431L11.0001 31.0546H11.6412L13.0101 39.1431L11.3207 41.0017L9.63125 39.1431ZM21.3553 41.2084C21.3553 41.2682 21.3067 41.317 21.2468 41.317H18.7979V31.9001C18.7979 31.7292 18.73 31.5653 18.6092 31.4444C18.4883 31.3235 18.3243 31.2556 18.1534 31.2556C17.9825 31.2556 17.8185 31.3235 17.6977 31.4444C17.5768 31.5653 17.5089 31.7292 17.5089 31.9001V41.317H12.7763L14.0572 39.9079C14.255 39.6902 14.3483 39.3811 14.3068 39.0809L14.3038 39.0616L12.8639 30.5542L13.1288 30.1553L13.1978 30.2043C13.3166 30.2887 13.4522 30.3463 13.5953 30.3732C13.7384 30.4002 13.8857 30.3959 14.0269 30.3605C14.1682 30.3252 14.3002 30.2597 14.4138 30.1685C14.5273 30.0774 14.6198 29.9627 14.6849 29.8324V29.8323L16.15 26.8958L19.4969 28.192C20.4724 28.6164 21.3553 29.7108 21.3553 31.1005L21.3553 41.2084ZM22 28.7584C21.7329 28.3282 21.3775 27.9301 20.949 27.5904L21.6779 23.2841H22.3189L23.048 27.5926C22.6081 27.9419 22.2573 28.3436 22 28.7584ZM26.4912 41.3171V31.9001C26.4912 31.5442 26.2027 31.2556 25.8467 31.2556C25.4906 31.2556 25.2022 31.5442 25.2022 31.9001V41.317H22.7532C22.7244 41.317 22.6968 41.3055 22.6764 41.2852C22.6561 41.2648 22.6446 41.2372 22.6446 41.2084V31.1005C22.6446 30.3343 22.8849 29.6286 23.3967 29.0357C23.738 28.6442 24.1906 28.3273 24.5019 28.1925L27.8466 26.8957L29.3119 29.8323L29.312 29.8324C29.377 29.9628 29.4694 30.0775 29.583 30.1687C29.6966 30.2599 29.8285 30.3253 29.9699 30.3606C30.2529 30.4313 30.5556 30.3772 30.7989 30.2043L30.8679 30.1553L31.1329 30.5542L29.693 39.0616L29.69 39.0809C29.6486 39.3809 29.7418 39.69 29.9397 39.908L31.2204 41.317L26.4912 41.3171ZM30.9866 39.1432L32.3556 31.0547H32.9966L34.3656 39.1432L32.676 41.0018L30.9866 39.1432Z" fill="#131313" />
  </g>
  <defs>
    <clipPath id="clip0_424_12371">
      <rect width="44" height="44" fill="white" />
    </clipPath>
  </defs>
</svg>