<svg width="44" height="44" viewBox="0 0 44 44" fill="none" xmlns="http://www.w3.org/2000/svg">
  <g clip-path="url(#clip0_424_12390)">
    <path d="M43.3555 42.7109H39.5662V38.0122H40.5169C42.4094 38.0122 43.9491 36.4725 43.9491 34.58C43.9491 32.6874 42.4094 31.1477 40.5169 31.1477H35.8378C35.4818 31.1477 35.1933 31.4362 35.1933 31.7922C35.1933 32.1483 35.4818 32.4368 35.8378 32.4368H40.5169C41.6987 32.4368 42.6601 33.3982 42.6601 34.58C42.6601 35.7617 41.6986 36.7232 40.5169 36.7232H17.4708V32.4367H32.8301C33.1861 32.4367 33.4746 32.1482 33.4746 31.7921C33.4746 31.4361 33.1861 31.1476 32.8301 31.1476H17.4708V11.2484H22.7005V12.631C22.7005 13.3655 23.298 13.963 24.0325 13.963H26.5677V16.4982C26.5677 17.2327 27.1652 17.8302 27.8997 17.8302H29.4423L31.781 21.0869C31.9205 21.2802 32.1039 21.4376 32.3161 21.5463C32.5283 21.655 32.7632 21.7119 33.0016 21.7122H36.1151C36.5974 21.7122 37.0538 21.4784 37.3365 21.0861L39.6747 17.8302H40.7266C42.5036 17.8302 43.9492 16.3846 43.9492 14.6076V13.3185C43.9285 13.204 43.9745 13.1596 43.8016 12.908L38.2963 6.17573C36.7582 4.29455 34.4823 3.2157 32.0522 3.2157H24.0326C23.2981 3.2157 22.7006 3.81322 22.7006 4.54773V5.93055H17.4709V3.22266C17.4709 1.44564 16.0253 0 14.2483 0H5.80078C4.02377 0 2.57812 1.44564 2.57812 3.22266V8.57235C2.57812 8.92839 2.8667 9.21688 3.22266 9.21688C3.57861 9.21688 3.86719 8.92839 3.86719 8.57235V3.22266C3.86719 2.15652 4.73455 1.28906 5.80078 1.28906H14.2482C15.3144 1.28906 16.1818 2.15652 16.1818 3.22266V16.8718H3.86719V11.5802C3.86719 11.2241 3.57861 10.9356 3.22266 10.9356C2.8667 10.9356 2.57812 11.2241 2.57812 11.5802V42.7109H0.644531C0.288578 42.7109 0 42.9994 0 43.3555C0 43.7115 0.288578 44 0.644531 44H43.3555C43.7115 44 44 43.7115 44 43.3555C44 42.9994 43.7115 42.7109 43.3555 42.7109ZM36.2901 20.3333C36.2701 20.361 36.2438 20.3836 36.2134 20.3992C36.183 20.4148 36.1494 20.4229 36.1152 20.423H33.0017C32.9677 20.423 32.9342 20.4149 32.904 20.3995C32.8737 20.384 32.8475 20.3616 32.8275 20.3341L31.0294 17.8301H38.0878L36.2901 20.3333ZM42.6601 14.6076C42.6601 15.6737 41.7927 16.5412 40.7266 16.5412H27.8997C27.8883 16.5412 27.8774 16.5366 27.8693 16.5286C27.8613 16.5205 27.8567 16.5096 27.8567 16.4982V13.963H42.6601V14.6076ZM23.9895 4.54773C23.9895 4.52409 24.0089 4.50476 24.0325 4.50476H32.0521C34.0939 4.50476 36.0061 5.41123 37.2984 6.9917L41.945 12.6739H24.0325C24.0211 12.6739 24.0102 12.6694 24.0021 12.6613C23.9941 12.6532 23.9895 12.6423 23.9895 12.6309V4.54773ZM17.4708 7.21961H22.7005V9.9593H17.4708V7.21961ZM16.1818 42.7109H3.86719V27.1282H16.1818V42.7109ZM16.1818 25.8392H3.86719V18.1608H16.1818V25.8392ZM34.5272 42.7109H17.4708V38.0122H34.5273L34.5272 42.7109ZM38.2772 42.7109H35.8163V38.0122H38.2772V42.7109Z" fill="#131313" />
    <path d="M36.8186 23.4999C36.8186 23.6708 36.7508 23.8347 36.6299 23.9556C36.0774 24.5082 35.3419 24.8126 34.5589 24.8126C33.7757 24.8126 33.0402 24.5082 32.4876 23.9556C32.3668 23.8347 32.2989 23.6708 32.2989 23.4999C32.299 23.329 32.3669 23.165 32.4877 23.0442C32.6086 22.9233 32.7726 22.8555 32.9435 22.8555C33.1144 22.8555 33.2783 22.9234 33.3992 23.0443C33.7082 23.3533 34.1201 23.5235 34.5588 23.5235C34.9975 23.5235 35.4094 23.3533 35.7184 23.0443C35.8392 22.9234 36.0032 22.8555 36.1741 22.8555C36.345 22.8555 36.509 22.9233 36.6298 23.0442C36.7507 23.165 36.8186 23.329 36.8186 23.4999Z" fill="#4285B4" />
    <path d="M30.4922 25.3065C30.4922 25.1356 30.5601 24.9717 30.681 24.8508C30.8019 24.73 30.9658 24.6621 31.1367 24.6621C31.3077 24.6621 31.4716 24.7301 31.5924 24.8509C32.3848 25.6433 33.4383 26.0797 34.5588 26.0797C35.6794 26.0797 36.7329 25.6433 37.5252 24.8508C37.6461 24.73 37.81 24.6621 37.981 24.6621C38.1519 24.6621 38.3159 24.73 38.4368 24.8508C38.5576 24.9717 38.6255 25.1357 38.6255 25.3066C38.6255 25.4776 38.5576 25.6415 38.4368 25.7624C37.4009 26.7981 36.0237 27.3686 34.5588 27.3686C33.0939 27.3686 31.7168 26.7982 30.6809 25.7623C30.5601 25.6414 30.4922 25.4775 30.4922 25.3065Z" fill="#4285B4" />
  </g>
  <defs>
    <clipPath id="clip0_424_12390">
      <rect width="44" height="44" fill="white" />
    </clipPath>
  </defs>
</svg>