<svg width="500" height="500" viewBox="0 0 500 500" fill="none" xmlns="http://www.w3.org/2000/svg">
<rect width="500" height="500" rx="100" fill="white"/>
<path d="M347.787 229.774C348.695 216.765 344.992 206.039 339.26 192.075C307.374 114.393 179.83 129.141 124.238 192.075C112.682 205.157 106.828 217.023 100.228 229.774H58.3774C67.153 208.478 79.0126 187.669 93.9859 168.099C170.92 67.5461 300.926 37.7823 384.361 101.62C424.289 132.169 446.316 178.619 450 229.774H347.787Z" fill="#EA7F15"/>
<path d="M347.089 273.057C343.213 285.815 335.308 305.271 318.08 321.228C257.954 376.918 152.699 398.615 101.661 334.493C85.3867 314.045 81.7331 285.808 75.1325 273.057H50C50 294.699 55.8033 323.497 70.9438 351.247C118.513 438.434 226.143 448.863 318.08 411.286C385.605 383.687 422.799 331.891 449.302 273.057H347.089Z" fill="#0F66AD"/>
</svg>
