<svg width="32" height="32" viewBox="0 0 32 32" fill="none" xmlns="http://www.w3.org/2000/svg">
<path d="M0 16C0 24.8366 7.16344 32 16 32C24.8366 32 32 24.8366 32 16C32 7.16344 24.8366 0 16 0C7.16344 0 0 7.16344 0 16Z" fill="#E8E8E8"/>
<path d="M22.0075 10.0634C21.8829 9.99714 21.7616 9.92449 21.6441 9.84572C21.3023 9.61317 20.9889 9.33914 20.7107 9.02956C20.0146 8.20983 19.7547 7.37822 19.6589 6.79598H19.6627C19.5827 6.31269 19.6158 6 19.6208 6H16.4504V18.6177C16.4504 18.7872 16.4504 18.9546 16.4434 19.12C16.4434 19.1406 16.4415 19.1596 16.4404 19.1818C16.4404 19.1909 16.4404 19.2004 16.4384 19.2099C16.4384 19.2123 16.4384 19.2146 16.4384 19.217C16.405 19.6697 16.264 20.1071 16.0278 20.4905C15.7916 20.874 15.4675 21.1919 15.084 21.4161C14.6842 21.6502 14.2321 21.773 13.7722 21.7724C12.295 21.7724 11.0978 20.5327 11.0978 19.0017C11.0978 17.4707 12.295 16.231 13.7722 16.231C14.0518 16.2307 14.3297 16.276 14.5955 16.3652L14.5994 13.0427C13.7923 12.9354 12.9724 13.0014 12.1913 13.2366C11.4103 13.4718 10.685 13.871 10.0614 14.4091C9.51492 14.8977 9.05551 15.4808 8.70382 16.132C8.56999 16.3695 8.06504 17.3238 8.00389 18.8726C7.96543 19.7518 8.22194 20.6625 8.34424 21.0389V21.0469C8.42116 21.2685 8.7192 22.0249 9.20492 22.6626C9.59659 23.1741 10.0593 23.6234 10.5782 23.9961V23.9881L10.5859 23.9961C12.1208 25.0695 13.8225 24.9991 13.8225 24.9991C14.1171 24.9868 15.104 24.9991 16.2246 24.4524C17.4676 23.8464 18.1752 22.9436 18.1752 22.9436C18.6273 22.4041 18.9867 21.7893 19.2382 21.1256C19.5251 20.3494 19.6208 19.4185 19.6208 19.0464V12.3524C19.6593 12.3762 20.1715 12.7249 20.1715 12.7249C20.1715 12.7249 20.9095 13.2117 22.061 13.5288C22.887 13.7544 24 13.8019 24 13.8019V10.5625C23.61 10.6061 22.8182 10.4794 22.0075 10.0634Z" fill="#232321"/>
</svg>
