<svg width="33" height="32" viewBox="0 0 33 32" fill="none" xmlns="http://www.w3.org/2000/svg">
<path d="M1 16C1 24.8366 8.09996 32 16.8582 32C25.6164 32 32.7164 24.8366 32.7164 16C32.7164 7.16344 25.6164 0 16.8582 0C8.09996 0 1 7.16344 1 16Z" fill="#E8E8E8"/>
<path fill-rule="evenodd" clip-rule="evenodd" d="M24.3045 8.616C22.62 6.93 20.3805 6.00075 17.9947 6C13.0785 6 9.07725 10.0005 9.075 14.919C9.07425 16.491 9.48525 18.0255 10.266 19.3785L9 24L13.728 22.7595C15.0307 23.4705 16.4977 23.8448 17.9902 23.8455H17.994C22.9095 23.8455 26.9115 19.8442 26.9137 14.9257C26.9152 12.543 25.9882 10.3012 24.3045 8.616ZM17.9947 22.3387H17.9917C16.6612 22.3387 15.357 21.981 14.2185 21.3053L13.9477 21.1448L11.142 21.8805L11.8912 19.1445L11.715 18.864C10.9725 17.6835 10.581 16.3193 10.5817 14.919C10.5832 10.8315 13.9095 7.506 17.9985 7.506C19.9785 7.506 21.84 8.2785 23.2395 9.6795C24.639 11.0813 25.4092 12.9435 25.4085 14.9242C25.4062 19.0133 22.0807 22.3387 17.9947 22.3387ZM22.0612 16.7865C21.8385 16.6748 20.7427 16.1355 20.538 16.0612C20.334 15.987 20.1855 15.9495 20.0362 16.1722C19.887 16.395 19.461 16.8975 19.3305 17.0468C19.2007 17.1953 19.0702 17.214 18.8475 17.1023C18.6247 16.9905 17.9062 16.7557 17.055 15.996C16.3927 15.405 15.945 14.6753 15.8152 14.4517C15.6855 14.2283 15.8017 14.1082 15.9127 13.9973C16.0132 13.8975 16.1355 13.737 16.2472 13.6065C16.3597 13.4775 16.3965 13.3845 16.4715 13.2353C16.5457 13.0868 16.509 12.9563 16.4527 12.8445C16.3965 12.7335 15.951 11.6363 15.7657 11.19C15.585 10.755 15.4012 10.8142 15.264 10.8075C15.1342 10.8007 14.9857 10.8 14.8365 10.8C14.688 10.8 14.4465 10.8555 14.2425 11.079C14.0385 11.3025 13.4625 11.8418 13.4625 12.9383C13.4625 14.0355 14.2612 15.0953 14.3722 15.2437C14.4832 15.3923 15.9435 17.6438 18.1792 18.609C18.711 18.8385 19.1265 18.9757 19.4497 19.0785C19.9837 19.248 20.4697 19.224 20.8537 19.167C21.282 19.1032 22.1722 18.6277 22.3582 18.1073C22.5442 17.5868 22.5442 17.1397 22.488 17.0475C22.4325 16.9537 22.284 16.8982 22.0612 16.7865Z" fill="#232321"/>
</svg>
