<svg width="32" height="32" viewBox="0 0 32 32" fill="none" xmlns="http://www.w3.org/2000/svg">
<path d="M0 16C0 24.8366 7.16344 32 16 32C24.8366 32 32 24.8366 32 16C32 7.16344 24.8366 0 16 0C7.16344 0 0 7.16344 0 16Z" fill="#E8E8E8"/>
<path fill-rule="evenodd" clip-rule="evenodd" d="M8.37553 9.12803C8.42605 9.19844 9.59608 10.8618 10.9756 12.8243C12.3551 14.7869 13.631 16.6018 13.811 16.8576C13.9909 17.1133 14.1382 17.3277 14.1382 17.3339C14.1382 17.3402 14.0712 17.4209 13.9893 17.5133C13.9074 17.6056 13.6767 17.867 13.4767 18.0942C13.2766 18.3213 12.9394 18.7042 12.7273 18.9449C12.5152 19.1857 12.1421 19.6094 11.8981 19.8866C11.6541 20.1637 11.2154 20.6619 10.9231 20.9937C10.0192 22.02 9.8888 22.1683 9.20074 22.951C8.83334 23.3689 8.48102 23.7686 8.41783 23.839C8.35464 23.9095 8.30294 23.9746 8.30294 23.9836C8.30294 23.9942 8.53371 24 8.95312 24H9.60328L10.3181 23.1864C10.7112 22.7389 11.099 22.2985 11.1799 22.2076C11.3547 22.0111 12.688 20.4959 12.8001 20.3663C12.843 20.3167 12.9053 20.2461 12.9386 20.2094C12.9719 20.1727 13.2342 19.875 13.5215 19.5479C13.8088 19.2208 14.0518 18.9452 14.0615 18.9354C14.0711 18.9256 14.2232 18.7528 14.3995 18.5513C14.5758 18.3499 14.7254 18.185 14.7321 18.185C14.7387 18.185 15.6442 19.4655 16.7443 21.0306C17.8444 22.5956 18.7641 23.9038 18.7881 23.9377L18.8317 23.9993L21.0619 23.9997C22.896 23.9999 23.2906 23.9962 23.2836 23.9783C23.2762 23.9593 22.2077 22.4371 19.4664 18.5402C17.4931 15.7349 17.2306 15.3579 17.2382 15.3388C17.2455 15.3202 17.5143 15.0131 19.2814 13.0047C19.5845 12.6602 20.0024 12.185 20.21 11.9488C20.4175 11.7126 20.6271 11.4747 20.6757 11.4202C20.7243 11.3656 20.9797 11.0757 21.2433 10.7759C21.5069 10.476 21.9551 9.96658 22.2392 9.64373C22.5233 9.32088 22.7662 9.04398 22.7789 9.02836C22.8008 9.00165 22.7637 9 22.1417 9H21.4813L21.1876 9.33453C20.7967 9.77974 20.09 10.5826 19.8894 10.8094C19.8007 10.9097 19.6901 11.0357 19.6436 11.0894C19.5971 11.1431 19.5053 11.2469 19.4397 11.3201C19.374 11.3933 19.0432 11.7691 18.7045 12.1553C18.3658 12.5414 18.0841 12.8611 18.0784 12.8656C18.0727 12.8702 18.0002 12.9524 17.9171 13.0484C17.7719 13.2162 17.6241 13.3842 16.9463 14.152C16.6488 14.489 16.6335 14.5034 16.6085 14.4725C16.594 14.4546 15.7221 13.2161 14.671 11.7202L12.7597 9.00035L10.5217 9.00017L8.28369 9L8.37553 9.12803ZM10.1223 10.02C10.1391 10.045 10.5572 10.6305 11.0515 11.321C11.9889 12.6307 15.6725 17.7801 18.0415 21.0925C18.7986 22.151 19.4272 23.0264 19.4385 23.0379C19.4546 23.0542 19.675 23.0577 20.4684 23.0544L21.4778 23.0501L18.8364 19.3579C17.3836 17.3272 15.2802 14.3871 14.1622 12.8243L12.1294 9.98293L11.1106 9.97867L10.0917 9.97441L10.1223 10.02Z" fill="#232321"/>
</svg>
