<svg width="64" height="64" viewBox="0 0 64 64" fill="none" xmlns="http://www.w3.org/2000/svg">
  <g clip-path="url(#clip0_424_10351)">
    <path d="M60.799 42.6688H46.9323C46.9323 40.8551 45.5459 39.4688 43.7323 39.4688H42.6656C40.852 39.4688 39.4656 40.8551 39.4656 42.6688H38.399C36.5854 42.6688 35.199 44.0552 35.199 45.8688V58.6688C35.199 60.4824 36.5854 61.8688 38.399 61.8688H39.6792C40.1058 63.149 41.2792 64.0021 42.6656 64.0021H43.7323C45.1187 64.0021 46.2923 63.149 46.7187 61.8688H60.799C62.6126 61.8688 63.999 60.4824 63.999 58.6688V45.8688C63.999 44.0552 62.6126 42.6688 60.799 42.6688ZM37.3323 58.6688V45.8688C37.3323 45.2288 37.759 44.8021 38.399 44.8021H39.4656V59.7354H38.399C37.759 59.7354 37.3323 59.3088 37.3323 58.6688ZM44.799 60.8021C44.799 61.4421 44.3723 61.8688 43.7323 61.8688H42.6656C42.0256 61.8688 41.599 61.4421 41.599 60.8021V42.6688C41.599 42.0288 42.0256 41.6021 42.6656 41.6021H43.7323C44.3723 41.6021 44.799 42.0288 44.799 42.6688V60.8021ZM61.8656 58.6688C61.8656 59.3088 61.439 59.7354 60.799 59.7354H46.9323V44.8021H60.799C61.439 44.8021 61.8656 45.2288 61.8656 45.8688V58.6688ZM4.26562 44.8021H6.39896V46.9354H4.26562V44.8021ZM8.53229 44.8021H10.6656V46.9354H8.53229V44.8021Z" fill="#131313" />
    <path d="M28.8 64V51.2C30.6136 51.2 32 49.8136 32 48V36.2667H28.8V32H26.6667V36.2667H5.33333V27.7333H22.6136C23.0401 29.0136 24.2136 29.8667 25.6 29.8667H37.1197L36.3735 35.2H33.0667V37.3333H52.2667V35.2H48.96L48.2136 29.8667H59.7333C61.5469 29.8667 62.9333 28.4803 62.9333 26.6667V3.2C62.9333 1.3864 61.5469 0 59.7333 0H25.6C23.7864 0 22.4 1.3864 22.4 3.2V25.6H3.2V36.2667H0V48C0 49.8136 1.3864 51.2 3.2 51.2V64H28.8ZM46.7197 35.2H38.5068L39.2531 29.8667H45.9735L46.7197 35.2ZM59.7333 27.7333H25.6C24.96 27.7333 24.5333 27.3067 24.5333 26.6667V25.6H60.8V26.6667C60.8 27.3067 60.3733 27.7333 59.7333 27.7333ZM25.6 2.13333H59.7333C60.3733 2.13333 60.8 2.56 60.8 3.2V23.4667H24.5333V6.4H58.6667V4.26667H24.5333V3.2C24.5333 2.56 24.96 2.13333 25.6 2.13333ZM2.13333 48V38.4H29.8667V48C29.8667 48.64 29.44 49.0667 28.8 49.0667H3.2C2.56 49.0667 2.13333 48.64 2.13333 48ZM26.6667 51.2V61.8667H5.33333V51.2H26.6667Z" fill="#131313" />
    <path d="M7.46589 57.6H24.5326V59.7333H7.46589V57.6ZM49.0659 46.9333H51.1992V49.0667H49.0659V46.9333ZM53.3326 46.9333H55.4659V49.0667H53.3326V46.9333ZM57.5992 46.9333H59.7326V49.0667H57.5992V46.9333ZM49.0659 51.2H51.1992V53.3333H49.0659V51.2ZM53.3326 51.2H55.4659V53.3333H53.3326V51.2ZM57.5992 51.2H59.7326V53.3333H57.5992V51.2ZM49.0659 55.4667H51.1992V57.6H49.0659V55.4667ZM53.3326 55.4667H55.4659V57.6H53.3326V55.4667ZM57.5992 55.4667H59.7326V57.6H57.5992V55.4667ZM7.46589 53.3333H24.5326V55.4667H7.46589V53.3333ZM6.39922 23.4667H15.9992C17.8128 23.4667 19.1992 22.0803 19.1992 20.2667V3.2C19.1992 1.3864 17.8128 0 15.9992 0H6.39922C4.58562 0 3.19922 1.3864 3.19922 3.2V20.2667C3.19922 22.0803 4.58562 23.4667 6.39922 23.4667ZM15.9992 21.3333H6.39922C5.75922 21.3333 5.33255 20.9067 5.33255 20.2667V19.2H17.0659V20.2667C17.0659 20.9067 16.6392 21.3333 15.9992 21.3333ZM5.33255 17.0667V6.4H17.0659V17.0667H5.33255ZM6.39922 2.13333H15.9992C16.6392 2.13333 17.0659 2.56 17.0659 3.2V4.26667H5.33255V3.2C5.33255 2.56 5.75922 2.13333 6.39922 2.13333Z" fill="#4285B4" />
  </g>
  <defs>
    <clipPath id="clip0_424_10351">
      <rect width="64" height="64" fill="white" />
    </clipPath>
  </defs>
</svg>