<svg width="60" height="60" viewBox="0 0 60 60" fill="none" xmlns="http://www.w3.org/2000/svg">
<path d="M8.44512 36.8939L21.6415 42.4641C24.2867 43.5807 27.1288 44.1559 30.0001 44.1559C32.8713 44.1559 35.7134 43.5807 38.3586 42.4641L51.555 36.8939M3.71016 36.8939L0.878906 39.0822M56.2898 36.8939L59.1211 39.0822M32.8848 36.4919H27.1152C26.8932 36.4919 26.6802 36.4037 26.5232 36.2467C26.3662 36.0897 26.278 35.8768 26.278 35.6547V33.0835C26.278 32.8615 26.3662 32.6485 26.5232 32.4915C26.6802 32.3345 26.8932 32.2463 27.1152 32.2463H32.8848C33.1068 32.2463 33.3198 32.3345 33.4768 32.4915C33.6338 32.6485 33.722 32.8615 33.722 33.0835V35.6546C33.722 35.7646 33.7004 35.8734 33.6583 35.975C33.6162 36.0766 33.5546 36.1689 33.4768 36.2467C33.3991 36.3244 33.3068 36.3861 33.2052 36.4282C33.1036 36.4703 32.9948 36.4919 32.8848 36.4919Z" stroke="#4285B4" stroke-width="1.75781" stroke-miterlimit="10" stroke-linecap="round" stroke-linejoin="round"/>
<path d="M47.5883 21.4967V26.3271C47.5883 27.4061 46.7136 28.2808 45.6346 28.2808H14.3657C13.2868 28.2808 12.4121 27.4061 12.4121 26.3271V4.85207C12.4121 3.77312 13.2868 2.89844 14.3657 2.89844H45.6348C46.7137 2.89844 47.5884 3.77312 47.5884 4.85207V17.3546" stroke="#131313" stroke-width="1.75781" stroke-miterlimit="10" stroke-linecap="round" stroke-linejoin="round"/>
<path d="M30.6867 11.9264H32.2745M39.7815 11.9264H41.3693M33.267 9.34629H34.8547M15.5947 22.3185L24.3 17.9677C24.6407 17.7973 25.0302 17.7516 25.4011 17.8383C25.7719 17.9251 26.1007 18.1389 26.3305 18.4426L27.9909 20.6367L36.8173 15.1498C37.1349 14.9523 37.5107 14.87 37.8818 14.9165C38.2529 14.9631 38.5967 15.1357 38.8557 15.4055L40.6486 17.2731L44.4046 14.8832V25.0982H15.5947V22.3185ZM27.5569 7.39652C27.5569 9.36891 25.9582 10.9676 23.9858 10.9676C22.0146 10.9676 20.4159 9.36891 20.4159 7.39652C20.4159 6.93199 20.5044 6.48867 20.6671 6.08203H27.3057C27.4726 6.50016 27.5578 6.94635 27.5569 7.39652Z" stroke="#4285B4" stroke-width="1.75781" stroke-miterlimit="10" stroke-linecap="round" stroke-linejoin="round"/>
<path d="M15.5947 6.08203H44.4057V25.0984H15.5947V6.08203Z" stroke="#131313" stroke-width="1.75781" stroke-miterlimit="10" stroke-linecap="round" stroke-linejoin="round"/>
<path d="M6.07738 32.2456C7.38487 32.2456 8.44481 31.1857 8.44481 29.8782C8.44481 28.5707 7.38487 27.5107 6.07738 27.5107C4.76989 27.5107 3.70996 28.5707 3.70996 29.8782C3.70996 31.1857 4.76989 32.2456 6.07738 32.2456Z" stroke="#131313" stroke-width="1.75781" stroke-miterlimit="10" stroke-linecap="round" stroke-linejoin="round"/>
<path d="M6.07758 32.2463V35.8027M8.44512 57.1041H3.71016V36.8939C3.71014 36.7506 3.73835 36.6087 3.79318 36.4763C3.84801 36.3439 3.92838 36.2236 4.02971 36.1223C4.13103 36.021 4.25132 35.9406 4.38371 35.8858C4.5161 35.8309 4.658 35.8027 4.80129 35.8027H7.35398C7.49728 35.8027 7.63917 35.8309 7.77156 35.8858C7.90395 35.9406 8.02424 36.021 8.12557 36.1223C8.22689 36.2236 8.30726 36.3439 8.36209 36.4763C8.41692 36.6087 8.44513 36.7506 8.44512 36.8939V52.9582M11.2764 57.1041H0.878906" stroke="#131313" stroke-width="1.75781" stroke-miterlimit="10" stroke-linecap="round" stroke-linejoin="round"/>
<path d="M53.9221 32.2456C55.2296 32.2456 56.2895 31.1857 56.2895 29.8782C56.2895 28.5707 55.2296 27.5107 53.9221 27.5107C52.6146 27.5107 51.5547 28.5707 51.5547 29.8782C51.5547 31.1857 52.6146 32.2456 53.9221 32.2456Z" stroke="#131313" stroke-width="1.75781" stroke-miterlimit="10" stroke-linecap="round" stroke-linejoin="round"/>
<path d="M53.9224 32.2461V35.8025M59.1211 57.1039H48.7236M56.2898 57.1039H51.5549V36.8936C51.5549 36.7503 51.5831 36.6084 51.6379 36.4761C51.6927 36.3437 51.7731 36.2234 51.8744 36.1221C51.9758 36.0207 52.0961 35.9404 52.2284 35.8855C52.3608 35.8307 52.5027 35.8025 52.646 35.8025H55.1987C55.342 35.8025 55.4839 35.8307 55.6163 35.8855C55.7487 35.9404 55.869 36.0207 55.9703 36.1221C56.0716 36.2234 56.152 36.3437 56.2068 36.4761C56.2616 36.6084 56.2899 36.7503 56.2898 36.8936V57.1039Z" stroke="#131313" stroke-width="1.75781" stroke-miterlimit="10" stroke-linecap="round" stroke-linejoin="round"/>
</svg>
