<svg width="60" height="60" viewBox="0 0 60 60" fill="none" xmlns="http://www.w3.org/2000/svg">
<g clip-path="url(#clip0_424_11033)">
<path d="M42.1531 0.87793V8.42094C42.1531 9.06816 41.6285 9.59281 40.9812 9.59281H19.0189C18.3717 9.59281 17.847 9.06816 17.847 8.42094V0.87793M9.21605 13.01H13.9379M27.6391 13.01H32.3611M46.0623 13.01H50.7841M17.1782 32.5947H5.97559C5.32836 32.5947 4.80371 32.0701 4.80371 31.4229V17.6314C4.80371 16.9842 5.32836 16.4595 5.97559 16.4595H17.1782C17.8255 16.4595 18.3501 16.9842 18.3501 17.6314V31.4229C18.3501 32.07 17.8255 32.5947 17.1782 32.5947ZM35.6014 32.5947H24.3987C23.7515 32.5947 23.2269 32.0701 23.2269 31.4229V17.6314C23.2269 16.9842 23.7515 16.4595 24.3987 16.4595H35.6014C36.2486 16.4595 36.7733 16.9842 36.7733 17.6314V31.4229C36.7733 32.07 36.2486 32.5947 35.6014 32.5947ZM54.0246 32.5947H42.8219C42.1747 32.5947 41.65 32.0701 41.65 31.4229V17.6314C41.65 16.9842 42.1747 16.4595 42.8219 16.4595H54.0246C54.6718 16.4595 55.1964 16.9842 55.1964 17.6314V31.4229C55.1964 32.07 54.6718 32.5947 54.0246 32.5947Z" stroke="#4285B4" stroke-width="1.75781" stroke-miterlimit="10" stroke-linecap="round" stroke-linejoin="round"/>
<path d="M13.6669 44.8208V59.1201M9.4868 40.9106V36.3823H13.6669V41.0654M9.4868 59.1201V44.8584M50.5132 44.8584V59.1201M46.3331 41.0654V36.3823H50.5132V41.0654M46.3331 59.1201V44.8584M10.4711 0.87793H57.9492C58.5964 0.87793 59.1211 1.40258 59.1211 2.0498V35.2105C59.1211 35.8577 58.5964 36.3823 57.9492 36.3823H2.05078C1.40355 36.3823 0.878906 35.8577 0.878906 35.2105V2.0498C0.878906 1.40258 1.40355 0.87793 2.05078 0.87793H7.09852" stroke="#131313" stroke-width="1.75781" stroke-miterlimit="10" stroke-linecap="round" stroke-linejoin="round"/>
<path d="M38.5111 44.7639H2.71875C1.70262 44.7639 0.878906 43.9402 0.878906 42.924V42.9199C0.878906 41.9038 1.70262 41.0801 2.71875 41.0801H57.2813C58.2974 41.0801 59.1211 41.9038 59.1211 42.9199V42.924C59.1211 43.9402 58.2974 44.7639 57.2813 44.7639H41.959" stroke="#131313" stroke-width="1.75781" stroke-miterlimit="10" stroke-linecap="round" stroke-linejoin="round"/>
</g>
<defs>
<clipPath id="clip0_424_11033">
<rect width="60" height="60" fill="white"/>
</clipPath>
</defs>
</svg>
