<svg width="65" height="64" viewBox="0 0 65 64" fill="none" xmlns="http://www.w3.org/2000/svg">
  <path d="M17.1866 2.61594L18.1241 0.992188L19.7153 1.91094L18.7778 3.53469L17.1866 2.61594ZM20.4306 4.49344L21.3681 2.86969L33.1781 9.68844L32.2406 11.3122L20.4306 4.49344ZM4.21094 11.9842L5.14844 10.3604L6.73969 11.2792L5.80219 12.9029L4.21094 11.9842ZM7.45506 13.8617L8.39256 12.2379L20.2026 19.0567L19.2651 20.6804L7.45506 13.8617ZM27.9523 17.8842L28.8898 16.2604L30.4811 17.1792L29.5436 18.8029L27.9523 17.8842ZM14.4896 10.1067L15.4271 8.48294L27.2372 15.3017L26.2997 16.9254L14.4896 10.1067ZM19.5296 48.3609C18.4921 48.3609 17.6546 49.1984 17.6546 50.2359C17.6546 50.3984 17.6796 50.5609 17.7171 50.7234L13.7296 54.7109L15.0546 56.0359L19.0421 52.0484C19.1921 52.0859 19.3546 52.1109 19.5296 52.1109C20.2171 52.1109 20.8296 51.7359 21.1546 51.1734H25.1671V49.2984H21.1546C20.8296 48.7484 20.2296 48.3609 19.5296 48.3609ZM47.0421 44.6109H48.9171V46.4859H47.0421V44.6109ZM52.4796 36.6234H54.3546V38.4984H52.4796V36.6234Z" fill="#4285B4" />
  <path d="M60.6531 26.0383L40.3281 14.3008H39.3906L19.0656 26.0383L18.5906 26.8508V37.5133C11.9906 38.0008 6.76562 43.5133 6.76562 50.2383C6.76562 57.2758 12.4906 63.0008 19.5281 63.0008C23.8781 63.0008 27.7281 60.8133 30.0406 57.4758L39.3906 62.8758H40.3281L60.6531 51.1383L61.1281 50.3258V26.8508L60.6531 26.0383ZM39.8531 16.2008L58.3031 26.8508L53.4156 29.7133L34.9406 19.0508L39.8531 16.2008ZM30.3781 51.1758C30.1781 53.4758 29.2656 55.5758 27.8656 57.2383L26.6906 56.0633L25.3656 57.3883L26.5406 58.5633C24.8656 59.9633 22.7781 60.8883 20.4781 61.0758V58.1258H18.6031V61.0758C16.3031 60.8758 14.2031 59.9633 12.5406 58.5633L13.7156 57.3883L12.3906 56.0633L11.2156 57.2383C9.81563 55.5633 8.89063 53.4758 8.70313 51.1758H11.6531V49.3008H8.69062C8.89062 47.0008 9.80313 44.9008 11.2031 43.2383L12.3781 44.4133L13.7031 43.0883L12.5281 41.9133C14.2031 40.5133 16.2906 39.5883 18.5906 39.4008V42.3508H20.4656V39.4008C22.7656 39.6008 24.8656 40.5133 26.5281 41.9133L25.3531 43.0883L26.6781 44.4133L27.8531 43.2383C29.2656 44.9133 30.1781 47.0008 30.3656 49.3008H27.4156V51.1758H30.3781ZM38.9281 60.4383L30.9906 55.8633C31.8281 54.1633 32.2906 52.2633 32.2906 50.2508C32.2906 43.5258 27.0656 38.0008 20.4656 37.5258V28.4883L38.9781 39.2008L38.9281 60.4383ZM39.9156 37.5633L21.4031 26.8508L27.6031 23.2758L46.1031 33.9633L39.9156 37.5633ZM59.2406 49.7883L54.3531 52.6133V40.3758H52.4781V53.6883L48.9156 55.7508V48.3758H47.0406V56.8383L40.8031 60.4383L40.8531 39.2008L47.0406 35.6008V42.7508H48.9156V33.9633L48.4406 33.1508L29.4781 22.2008L33.0656 20.1258L52.4781 31.3383V34.7508H54.3531V31.3258L59.2406 28.4758V49.7883Z" fill="#131313" />
</svg>