<svg width="63" height="62" viewBox="0 0 63 62" fill="none" xmlns="http://www.w3.org/2000/svg">
  <g clip-path="url(#clip0_424_10357)">
    <path d="M16.3724 30.009C16.2082 30.0092 16.0466 29.969 15.9016 29.8919C15.7567 29.8148 15.633 29.7032 15.5414 29.567C13.7389 26.8734 12.6554 23.7635 12.394 20.5331C12.1325 17.3026 12.7017 14.059 14.0476 11.1106C15.3934 8.16222 17.471 5.60711 20.083 3.68824C22.6949 1.76938 25.7543 0.550547 28.9701 0.147656C32.186 -0.255236 35.4515 0.171203 38.4561 1.38642C41.4607 2.60164 44.1044 4.56524 46.136 7.0905C48.1676 9.61576 49.5194 12.6187 50.0629 15.8138C50.6065 19.009 50.3237 22.29 49.2414 25.345C49.1973 25.4687 49.1292 25.5825 49.0411 25.6799C48.953 25.7773 48.8466 25.8564 48.7279 25.9127C48.6092 25.9689 48.4806 26.0013 48.3494 26.0079C48.2183 26.0144 48.0871 25.9951 47.9634 25.951C47.8397 25.9069 47.7259 25.8388 47.6285 25.7507C47.5311 25.6626 47.452 25.5562 47.3957 25.4375C47.3394 25.3188 47.3071 25.1902 47.3005 25.059C47.2939 24.9279 47.3133 24.7967 47.3574 24.673C48.005 22.8549 48.3345 20.9389 48.3314 19.009C48.333 16.3536 47.7125 13.7348 46.5197 11.3624C45.3269 8.98998 43.5949 6.93 41.4626 5.34751C39.3303 3.76503 36.8569 2.70406 34.2407 2.24963C31.6245 1.7952 28.9382 1.95996 26.3971 2.73069C23.856 3.50141 21.5309 4.85669 19.6079 6.68788C17.6849 8.51908 16.2177 10.7753 15.3237 13.2757C14.4298 15.776 14.134 18.4511 14.46 21.0863C14.7861 23.7216 15.725 26.2439 17.2014 28.451C17.3025 28.6014 17.3609 28.7765 17.3702 28.9575C17.3795 29.1385 17.3395 29.3187 17.2543 29.4787C17.1692 29.6387 17.0422 29.7726 16.8868 29.866C16.7315 29.9594 16.5536 30.0088 16.3724 30.009Z" fill="#4285B4" />
    <path d="M31.3321 10.617C26.816 10.6177 22.4479 9.00633 19.0141 6.07298C18.9143 5.98762 18.8323 5.88344 18.7728 5.76638C18.7132 5.64933 18.6773 5.52169 18.6671 5.39076C18.6569 5.25983 18.6726 5.12817 18.7132 5.00329C18.7539 4.87842 18.8188 4.76278 18.9041 4.66298C19.0765 4.46141 19.3219 4.33659 19.5863 4.31596C19.7173 4.30574 19.8489 4.32142 19.9738 4.36208C20.0987 4.40275 20.2143 4.46762 20.3141 4.55298C23.3861 7.17575 27.2928 8.61676 31.3321 8.61698C35.3716 8.61728 39.2788 7.17662 42.3511 4.55398C42.4509 4.46862 42.5666 4.40375 42.6914 4.36308C42.8163 4.32242 42.948 4.30674 43.0789 4.31696C43.2098 4.32717 43.3375 4.36307 43.4545 4.42262C43.5716 4.48216 43.6758 4.56417 43.7611 4.66398C43.8465 4.76378 43.9113 4.87942 43.952 5.0043C43.9927 5.12917 44.0083 5.26083 43.9981 5.39176C43.9879 5.52269 43.952 5.65033 43.8925 5.76738C43.8329 5.88444 43.7509 5.98862 43.6511 6.07398C40.2169 9.0072 35.8485 10.6182 31.3321 10.617Z" fill="#4285B4" />
    <path d="M23.5226 30.009C23.3152 30.009 23.1129 29.9445 22.9438 29.8245C22.7747 29.7044 22.647 29.5348 22.5786 29.339C21.4651 26.01 20.9122 22.5191 20.9426 19.009C20.9426 8.35497 25.5066 0.00897217 31.3326 0.00897217C37.1586 0.00897217 41.7226 8.35497 41.7226 19.009C41.7259 21.0826 41.5394 23.1523 41.1656 25.192C41.1439 25.3232 41.0963 25.4488 41.0256 25.5614C40.9548 25.674 40.8622 25.7714 40.7533 25.8478C40.6445 25.9242 40.5214 25.9781 40.3914 26.0064C40.2615 26.0347 40.1272 26.0367 39.9964 26.0125C39.8656 25.9882 39.741 25.938 39.6298 25.865C39.5186 25.792 39.4232 25.6975 39.349 25.5871C39.2748 25.4767 39.2233 25.3526 39.1977 25.2221C39.172 25.0916 39.1727 24.9572 39.1996 24.827C39.5509 22.9076 39.726 20.9602 39.7226 19.009C39.7226 9.79397 35.8806 2.00897 31.3326 2.00897C26.7846 2.00897 22.9426 9.79397 22.9426 19.009C22.9122 22.2944 23.4272 25.5621 24.4666 28.679C24.5193 28.8297 24.5351 28.9909 24.5128 29.149C24.4904 29.3071 24.4305 29.4576 24.3381 29.5878C24.2457 29.718 24.1234 29.8242 23.9815 29.8975C23.8396 29.9707 23.6823 30.009 23.5226 30.009Z" fill="#4285B4" />
    <path d="M31.332 26.009C31.0668 26.009 30.8125 25.9036 30.6249 25.7161C30.4374 25.5285 30.332 25.2742 30.332 25.009V1.00897C30.332 0.743756 30.4374 0.489402 30.6249 0.301865C30.8125 0.114329 31.0668 0.00897217 31.332 0.00897217C31.5972 0.00897217 31.8516 0.114329 32.0391 0.301865C32.2267 0.489402 32.332 0.743756 32.332 1.00897V25.009C32.332 25.2742 32.2267 25.5285 32.0391 25.7161C31.8516 25.9036 31.5972 26.009 31.332 26.009Z" fill="#4285B4" />
    <path d="M49.332 20.009H13.332C13.0668 20.009 12.8125 19.9036 12.6249 19.7161C12.4374 19.5285 12.332 19.2742 12.332 19.009C12.332 18.7438 12.4374 18.4894 12.6249 18.3019C12.8125 18.1143 13.0668 18.009 13.332 18.009H49.332C49.5972 18.009 49.8516 18.1143 50.0391 18.3019C50.2267 18.4894 50.332 18.7438 50.332 19.009C50.332 19.2742 50.2267 19.5285 50.0391 19.7161C49.8516 19.9036 49.5972 20.009 49.332 20.009ZM45.332 48.009C45.0668 48.0089 44.8125 47.9035 44.625 47.716L30.125 33.216C29.9429 33.0274 29.8421 32.7748 29.8444 32.5126C29.8466 32.2504 29.9518 31.9996 30.1372 31.8142C30.3226 31.6287 30.5734 31.5236 30.8356 31.5213C31.0978 31.519 31.3504 31.6198 31.539 31.802L46.039 46.302C46.1788 46.4418 46.274 46.62 46.3126 46.8139C46.3512 47.0079 46.3314 47.2089 46.2557 47.3916C46.18 47.5743 46.0519 47.7305 45.8875 47.8404C45.7231 47.9503 45.5298 48.0089 45.332 48.009Z" fill="#4285B4" />
    <path d="M46.3315 55.835C45.8288 55.8357 45.331 55.7373 44.8664 55.5453C44.4019 55.3532 43.9799 55.0714 43.6245 54.716L42.0945 53.186C41.9123 52.9974 41.8115 52.7448 41.8138 52.4826C41.8161 52.2204 41.9212 51.9696 42.1066 51.7842C42.2921 51.5988 42.5429 51.4936 42.8051 51.4913C43.0673 51.489 43.3199 51.5898 43.5085 51.772L45.0385 53.302C45.3816 53.6446 45.8466 53.837 46.3315 53.837C46.8163 53.837 47.2814 53.6446 47.6245 53.302C47.9622 52.9563 48.1513 52.4923 48.1513 52.009C48.1513 51.5257 47.9622 51.0616 47.6245 50.716L30.1245 33.216C29.9423 33.0274 29.8415 32.7748 29.8438 32.5126C29.8461 32.2504 29.9512 31.9996 30.1366 31.8142C30.3221 31.6288 30.5729 31.5236 30.8351 31.5213C31.0973 31.519 31.3499 31.6198 31.5385 31.802L49.0385 49.302C49.5742 49.8371 49.9391 50.5191 50.087 51.2617C50.2349 52.0043 50.1591 52.7741 49.8693 53.4736C49.5794 54.1731 49.0885 54.7708 48.4588 55.1912C47.829 55.6116 47.0886 55.8356 46.3315 55.835Z" fill="#131313" />
    <path d="M40.462 58.009C39.9536 58.0102 39.45 57.9107 38.9802 57.7162C38.5104 57.5218 38.0838 57.2362 37.725 56.876L35.165 54.315C34.9829 54.1264 34.8821 53.8738 34.8844 53.6116C34.8866 53.3494 34.9918 53.0986 35.1772 52.9132C35.3626 52.7277 35.6134 52.6226 35.8756 52.6203C36.1378 52.618 36.3904 52.7188 36.579 52.901L39.139 55.462C39.4959 55.8013 39.9696 55.9905 40.462 55.9905C40.9545 55.9905 41.4281 55.8013 41.785 55.462C41.9591 55.2885 42.097 55.0823 42.1909 54.8552C42.2848 54.6281 42.3328 54.3847 42.332 54.139C42.3299 53.7494 42.208 53.37 41.983 53.052C41.9237 52.967 41.8568 52.8877 41.783 52.815L35.694 46.715C35.6012 46.6221 35.5275 46.5118 35.4773 46.3904C35.4271 46.269 35.4013 46.139 35.4013 46.0076C35.4014 45.8763 35.4273 45.7462 35.4776 45.6249C35.5279 45.5036 35.6016 45.3933 35.6945 45.3005C35.7874 45.2076 35.8977 45.134 36.0191 45.0838C36.1405 45.0335 36.2705 45.0077 36.4019 45.0078C36.5332 45.0078 36.6633 45.0337 36.7846 45.084C36.906 45.1343 37.0162 45.2081 37.109 45.301L43.199 51.401C43.3548 51.5567 43.4964 51.726 43.622 51.907C44.0318 52.4861 44.2743 53.1668 44.3232 53.8745C44.3721 54.5822 44.2254 55.2897 43.8992 55.9197C43.5729 56.5497 43.0797 57.0778 42.4735 57.4462C41.8673 57.8147 41.1714 58.0094 40.462 58.009ZM11.332 51.009H1.33203C1.06681 51.009 0.812461 50.9036 0.624924 50.7161C0.437388 50.5285 0.332031 50.2742 0.332031 50.009V27.009C0.332031 26.7438 0.437388 26.4894 0.624924 26.3019C0.812461 26.1143 1.06681 26.009 1.33203 26.009H11.332C11.5972 26.009 11.8516 26.1143 12.0391 26.3019C12.2267 26.4894 12.332 26.7438 12.332 27.009V50.009C12.332 50.2742 12.2267 50.5285 12.0391 50.7161C11.8516 50.9036 11.5972 51.009 11.332 51.009ZM2.33203 49.009H10.332V28.009H2.33203V49.009ZM61.332 47.009H51.332C51.0668 47.009 50.8125 46.9036 50.6249 46.7161C50.4374 46.5285 50.332 46.2742 50.332 46.009V23.009C50.332 22.7438 50.4374 22.4894 50.6249 22.3019C50.8125 22.1143 51.0668 22.009 51.332 22.009H61.332C61.5972 22.009 61.8516 22.1143 62.0391 22.3019C62.2267 22.4894 62.332 22.7438 62.332 23.009V46.009C62.332 46.2742 62.2267 46.5285 62.0391 46.7161C61.8516 46.9036 61.5972 47.009 61.332 47.009ZM52.332 45.009H60.332V24.009H52.332V45.009Z" fill="#131313" />
    <path d="M45.3322 48.009C45.1344 48.0089 44.9411 47.9503 44.7767 47.8404C44.6123 47.7305 44.4842 47.5743 44.4085 47.3916C44.3328 47.2089 44.313 47.0079 44.3516 46.8139C44.3902 46.62 44.4854 46.4418 44.6252 46.302L47.6252 43.302C47.8127 43.1144 48.067 43.009 48.3322 43.009H50.3322V26.009H30.7462L24.0392 32.716C23.7083 33.0614 23.5259 33.5226 23.5311 34.0008C23.5362 34.4791 23.7285 34.9363 24.0667 35.2745C24.4049 35.6127 24.8621 35.805 25.3403 35.8101C25.8186 35.8152 26.2798 35.6328 26.6252 35.302L31.6252 30.302C31.8127 30.1144 32.067 30.009 32.3322 30.009H38.3322C38.5974 30.009 38.8518 30.1143 39.0393 30.3019C39.2268 30.4894 39.3322 30.7438 39.3322 31.009C39.3322 31.2742 39.2268 31.5285 39.0393 31.7161C38.8518 31.9036 38.5974 32.009 38.3322 32.009H32.7462L28.0392 36.716C27.3212 37.4339 26.3475 37.8372 25.3322 37.8372C24.3169 37.8372 23.3431 37.4339 22.6252 36.716C21.9072 35.998 21.5039 35.0243 21.5039 34.009C21.5039 32.9937 21.9072 32.0199 22.6252 31.302L29.6252 24.302C29.8127 24.1144 30.067 24.009 30.3322 24.009H51.3322C51.5974 24.009 51.8518 24.1143 52.0393 24.3019C52.2268 24.4894 52.3322 24.7438 52.3322 25.009V44.009C52.3322 44.2742 52.2268 44.5285 52.0393 44.7161C51.8518 44.9036 51.5974 45.009 51.3322 45.009H48.7462L46.0392 47.716C45.8517 47.9035 45.5974 48.0089 45.3322 48.009ZM33.4322 59.009C32.4016 59.0115 31.4115 58.608 30.6762 57.886L30.2682 57.486C30.0786 57.3003 29.9704 57.0469 29.9676 56.7816C29.9648 56.5162 30.0675 56.2606 30.2532 56.071C30.4388 55.8813 30.6922 55.7732 30.9576 55.7704C31.2229 55.7676 31.4786 55.8703 31.6682 56.056L32.0782 56.456C32.4389 56.809 32.9235 57.0067 33.4282 57.0067C33.9329 57.0067 34.4175 56.809 34.7782 56.456C34.9537 56.2845 35.0931 56.0796 35.1882 55.8534C35.2834 55.6273 35.3323 55.3843 35.3322 55.139C35.3331 54.763 35.2163 54.3962 34.9982 54.09C34.9336 53.9911 34.8588 53.8993 34.7752 53.816L28.6322 47.73C28.4654 47.5401 28.3767 47.2941 28.3839 47.0414C28.3911 46.7888 28.4938 46.5483 28.6711 46.3682C28.8485 46.1882 29.0875 46.082 29.34 46.071C29.5925 46.06 29.8398 46.145 30.0322 46.309L36.1842 52.401C36.3581 52.574 36.5139 52.7643 36.6492 52.969C37.0973 53.6035 37.336 54.3622 37.3322 55.139C37.3338 55.6498 37.2329 56.1557 37.0356 56.6269C36.8382 57.098 36.5484 57.5248 36.1832 57.882C35.4509 58.6061 34.462 59.0113 33.4322 59.009Z" fill="#131313" />
    <path d="M28.463 62.009C27.9559 62.0093 27.4537 61.9096 26.9851 61.7157C26.5165 61.5218 26.0907 61.2375 25.732 60.879L13.916 49.009H11.332C11.0668 49.009 10.8125 48.9036 10.6249 48.7161C10.4374 48.5285 10.332 48.2742 10.332 48.009V29.009C10.332 28.7438 10.4374 28.4894 10.6249 28.3019C10.8125 28.1143 11.0668 28.009 11.332 28.009H26.332C26.5972 28.009 26.8516 28.1143 27.0391 28.3019C27.2267 28.4894 27.332 28.7438 27.332 29.009C27.332 29.2742 27.2267 29.5285 27.0391 29.7161C26.8516 29.9036 26.5972 30.009 26.332 30.009H12.332V47.009H14.332C14.4638 47.009 14.5943 47.0351 14.716 47.0857C14.8377 47.1363 14.9481 47.2105 15.041 47.304L27.141 59.466C27.4926 59.8145 27.9675 60.01 28.4625 60.01C28.9575 60.01 29.4325 59.8145 29.784 59.466C29.9573 59.2935 30.0948 59.0885 30.1886 58.8628C30.2825 58.637 30.3308 58.3949 30.3308 58.1505C30.3308 57.906 30.2825 57.6639 30.1886 57.4382C30.0948 57.2124 29.9573 57.0074 29.784 56.835L23.698 50.766C23.6024 50.6739 23.5261 50.5636 23.4735 50.4417C23.4209 50.3198 23.3932 50.1886 23.3918 50.0558C23.3905 49.923 23.4156 49.7913 23.4657 49.6684C23.5158 49.5454 23.5899 49.4337 23.6837 49.3396C23.7774 49.2456 23.889 49.1712 24.0118 49.1208C24.1346 49.0703 24.2662 49.0448 24.399 49.0458C24.5318 49.0467 24.663 49.0741 24.7851 49.1264C24.9072 49.1786 25.0176 49.2546 25.11 49.35L31.197 55.419C31.7378 55.9589 32.1062 56.6472 32.2553 57.3966C32.4045 58.1461 32.3278 58.9229 32.035 59.6288C31.7422 60.3346 31.2464 60.9376 30.6105 61.3613C29.9746 61.7851 29.2272 62.0105 28.463 62.009Z" fill="#131313" />
  </g>
  <defs>
    <clipPath id="clip0_424_10357">
      <rect width="62" height="62.009" fill="white" transform="translate(0.332031)" />
    </clipPath>
  </defs>
</svg>