<svg xmlns="http://www.w3.org/2000/svg" version="1.1"
    xmlns:xlink="http://www.w3.org/1999/xlink" width="512" height="512" x="0" y="0" viewBox="0 0 512 512" style="enable-background:new 0 0 512 512" xml:space="preserve" class="">
    <g>
        <path d="M62.667 369.429a16 16 0 1 1-27.6 16.193A256.058 256.058 0 0 1 402.6 46.277l-2.686-18.772a16 16 0 1 1 31.678-4.533l8.566 59.862a16 16 0 0 1-13.129 18.035l-66.395 11.407a16 16 0 1 1-5.418-31.537l32.715-5.621A224.057 224.057 0 0 0 62.667 369.429zm392.141-248.724a16 16 0 0 0-5.666 21.906 223.892 223.892 0 0 1-34.75 271.96c-43.038 43.031-100.638 64.863-158.447 64.858a224.832 224.832 0 0 1-130.594-41.438l32.273-5.545a16 16 0 1 0-5.418-31.537l-66.394 11.406a16 16 0 0 0-13.13 18.036l8.566 59.863a16 16 0 0 0 31.678-4.533l-2.752-19.229a256.821 256.821 0 0 0 146.074 45.369q5.144 0 10.313-.2a255.616 255.616 0 0 0 210.153-385.25 16 16 0 0 0-21.906-5.666zm-253.746 118.43a15.889 15.889 0 0 0-1.556 1.536c-3.253 3.683-16.664 16.42-69.945 60.351q-.569.469-1.092.989a196.758 196.758 0 0 0-36.424 49.732 16 16 0 0 0 14.227 23.319H241.9a16 16 0 1 0 0-32H135.067a165.188 165.188 0 0 1 15.433-17.831c53.268-43.931 67.161-57.022 72.239-62.544a71.728 71.728 0 0 0-59.263-124.438 76.772 76.772 0 0 0-66.457 69.816 16 16 0 1 0 31.9 2.53 44.652 44.652 0 0 1 38.859-40.635q.357-.043.709-.105a39.729 39.729 0 0 1 32.575 69.28zM347.744 359.1v-40.418h-89.718a16 16 0 0 1-13.061-25.242l105.718-149.43a16 16 0 0 1 29.061 9.241v133.431h25.99a16 16 0 0 1 0 32h-25.99V359.1a16 16 0 0 1-32 0zm0-72.418V203.57l-58.8 83.112z" fill="#656366" opacity="1" data-original="#656366" class=""></path>
    </g>
</svg>