<?xml version="1.0" encoding="UTF-8"?> <svg xmlns="http://www.w3.org/2000/svg" width="60" height="60" viewBox="0 0 60 60" fill="none"><g clip-path="url(#clip0_424_10897)"><path d="M59.0625 50.624H0.9375C0.68886 50.624 0.450403 50.5253 0.274587 50.3494C0.0987721 50.1736 0 49.9352 0 49.6865V8.43652C0 8.18788 0.0987721 7.94943 0.274587 7.77361C0.450403 7.5978 0.68886 7.49902 0.9375 7.49902H24.375V9.37402H1.875V48.749H58.125V9.37402H55.3125V7.49902H59.0625C59.3111 7.49902 59.5496 7.5978 59.7254 7.77361C59.9012 7.94943 60 8.18788 60 8.43652V49.6865C60 49.9352 59.9012 50.1736 59.7254 50.3494C59.5496 50.5253 59.3111 50.624 59.0625 50.624Z" fill="#131313"></path><path d="M42.1877 56.249H17.8127C17.6642 56.2491 17.5177 56.2138 17.3855 56.1461C17.2533 56.0785 17.139 55.9804 17.0521 55.8599C16.9652 55.7394 16.9082 55.6 16.8858 55.4531C16.8633 55.3063 16.8761 55.1562 16.923 55.0153L18.798 49.3903C18.8602 49.2035 18.9796 49.0411 19.1393 48.926C19.299 48.8109 19.4909 48.749 19.6877 48.749H40.3127C40.5096 48.749 40.7014 48.8109 40.8611 48.926C41.0208 49.0411 41.1402 49.2035 41.2024 49.3903L43.0774 55.0153C43.1244 55.1562 43.1371 55.3063 43.1147 55.4531C43.0923 55.6 43.0352 55.7394 42.9484 55.8599C42.8615 55.9804 42.7472 56.0785 42.615 56.1461C42.4827 56.2138 42.3363 56.2491 42.1877 56.249ZM19.113 54.374H40.8874L39.6368 50.624H20.3637L19.113 54.374Z" fill="#131313"></path><path d="M45.9375 59.999H14.0625C13.8139 59.999 13.5754 59.9003 13.3996 59.7244C13.2238 59.5486 13.125 59.3102 13.125 59.0615C13.1265 57.8188 13.6208 56.6274 14.4996 55.7486C15.3783 54.8699 16.5698 54.3755 17.8125 54.374H42.1875C43.4302 54.3755 44.6217 54.8699 45.5004 55.7486C46.3792 56.6274 46.8735 57.8188 46.875 59.0615C46.875 59.3102 46.7762 59.5486 46.6004 59.7244C46.4246 59.9003 46.1861 59.999 45.9375 59.999ZM15.1603 58.124H44.8397C44.6446 57.5764 44.2851 57.1023 43.8104 56.7667C43.3357 56.4311 42.7689 56.2503 42.1875 56.249H17.8125C17.2311 56.2503 16.6643 56.4311 16.1896 56.7667C15.7149 57.1023 15.3554 57.5764 15.1603 58.124ZM0.9375 41.249H59.0625V43.124H0.9375V41.249ZM54.375 37.499H56.25V39.374H54.375V37.499ZM54.375 22.499H56.25V35.624H54.375V22.499Z" fill="#131313"></path><path d="M36.0941 46.874H23.9066C23.2847 46.8977 22.6645 46.7927 22.0851 46.5655C21.5057 46.3383 20.9794 45.9939 20.5393 45.5538C20.0992 45.1137 19.7548 44.5874 19.5276 44.008C19.3004 43.4286 19.1954 42.8085 19.2191 42.1865H21.0941C21.0742 42.5611 21.1334 42.9356 21.2677 43.2859C21.402 43.6361 21.6085 43.9541 21.8737 44.2194C22.139 44.4846 22.457 44.6911 22.8073 44.8254C23.1575 44.9597 23.532 45.0189 23.9066 44.999H36.0941C36.4687 45.0189 36.8432 44.9597 37.1934 44.8254C37.5437 44.6911 37.8617 44.4846 38.1269 44.2194C38.3922 43.9541 38.5987 43.6361 38.733 43.2859C38.8673 42.9356 38.9265 42.5611 38.9066 42.1865L40.7816 42.1912C40.8046 42.8128 40.6991 43.4324 40.4716 44.0112C40.2441 44.5901 39.8996 45.1158 39.4596 45.5554C39.0196 45.995 38.4935 46.339 37.9144 46.5659C37.3353 46.7928 36.7156 46.8977 36.0941 46.874ZM51.5628 35.624H33.7503V33.749H50.6253V22.499H52.5003V34.6865C52.5003 34.9352 52.4016 35.1736 52.2258 35.3494C52.0499 35.5253 51.8115 35.624 51.5628 35.624Z" fill="#131313"></path><path d="M47.292 35.5195H43.542C43.2934 35.5195 43.0549 35.4208 42.8791 35.2449C42.7033 35.0691 42.6045 34.8307 42.6045 34.582V24.2695C42.6045 24.0209 42.7033 23.7824 42.8791 23.6066C43.0549 23.4308 43.2934 23.332 43.542 23.332H47.292C47.5406 23.332 47.7791 23.4308 47.9549 23.6066C48.1307 23.7824 48.2295 24.0209 48.2295 24.2695V34.582C48.2295 34.8307 48.1307 35.0691 47.9549 35.2449C47.7791 35.4208 47.5406 35.5195 47.292 35.5195ZM44.4795 33.6445H46.3545V25.207H44.4795V33.6445ZM39.792 35.5195H36.042C35.7934 35.5195 35.5549 35.4208 35.3791 35.2449C35.2033 35.0691 35.1045 34.8307 35.1045 34.582V27.082C35.1045 26.8334 35.2033 26.5949 35.3791 26.4191C35.5549 26.2433 35.7934 26.1445 36.042 26.1445H39.792C40.0406 26.1445 40.2791 26.2433 40.4549 26.4191C40.6307 26.5949 40.7295 26.8334 40.7295 27.082V34.582C40.7295 34.8307 40.6307 35.0691 40.4549 35.2449C40.2791 35.4208 40.0406 35.5195 39.792 35.5195ZM36.9795 33.6445H38.8545V28.0195H36.9795V33.6445ZM50.1045 37.3945H51.9795V39.2695H50.1045V37.3945ZM26.667 37.3945H48.2295V39.2695H26.667V37.3945Z" fill="#131313"></path><path d="M13.5069 31.2254C13.3204 31.2255 13.138 31.17 12.9832 31.066C12.8284 30.9619 12.7081 30.8141 12.6378 30.6413L9.82533 23.7413C9.75324 23.5646 9.73679 23.3701 9.77817 23.1838C9.81954 22.9976 9.91678 22.8283 10.0569 22.6988L17.8278 15.5166L19.1 16.8938L11.8128 23.6354L14.1322 29.3335L24.0631 29.0682L24.1138 30.9432L13.5341 31.2244L13.5069 31.2254Z" fill="#4285B4"></path><path d="M7.00858 33.7314C6.62892 33.7304 6.25368 33.6499 5.90701 33.4951C5.23376 33.1989 4.70336 32.6506 4.42951 31.9679L3.02326 28.517C2.74325 27.8386 2.73955 27.0775 3.01295 26.3964C3.14733 26.0585 3.34878 25.7515 3.60514 25.4936C3.8615 25.2358 4.16745 25.0327 4.50451 24.8964L10.3423 22.5208L11.0492 24.2579L5.21233 26.6317C5.10867 26.6754 5.0148 26.7394 4.93623 26.8199C4.85767 26.9004 4.79599 26.9958 4.75483 27.1004C4.6634 27.3306 4.66575 27.5873 4.76139 27.8158L6.16764 31.2667C6.25787 31.4975 6.43584 31.6833 6.66264 31.7833C6.76547 31.8295 6.87653 31.8546 6.98925 31.8572C7.10196 31.8598 7.21405 31.8397 7.31889 31.7982L13.1576 29.4226L13.8645 31.1598L8.02201 33.5317C7.70007 33.6624 7.35605 33.7302 7.00858 33.7314Z" fill="#4285B4"></path><path d="M10.6104 38.4365C10.4238 38.4367 10.2415 38.3812 10.0867 38.2771C9.93187 38.1731 9.81161 38.0252 9.74129 37.8525L7.63379 32.6775L9.37098 31.9678L11.125 36.2803L12.7244 35.624L10.9694 31.32L12.7066 30.6131L14.8132 35.7881C14.906 36.018 14.9039 36.2753 14.8075 36.5037C14.711 36.7321 14.528 36.913 14.2985 37.0068L10.9619 38.3634C10.8505 38.4102 10.7312 38.435 10.6104 38.4365ZM14.6088 18.7781L16.345 18.0712L21.2604 30.1443L19.5241 30.8512L14.6088 18.7781ZM32.8132 25.3115C32.5645 25.3115 32.3261 25.2128 32.1502 25.0369C31.9744 24.8611 31.8757 24.6227 31.8757 24.374V20.624H29.0632C28.3172 20.624 27.6019 20.3277 27.0744 19.8003C26.547 19.2728 26.2507 18.5574 26.2507 17.8115V2.81152C26.2507 2.0656 26.547 1.35023 27.0744 0.822786C27.6019 0.29534 28.3172 -0.000976562 29.0632 -0.000976562L53.4382 -0.000976562C54.1841 -0.000976562 54.8994 0.29534 55.4269 0.822786C55.9543 1.35023 56.2507 2.0656 56.2507 2.81152V17.8115C56.2507 18.5574 55.9543 19.2728 55.4269 19.8003C54.8994 20.3277 54.1841 20.624 53.4382 20.624H37.8888L33.476 25.0368C33.3002 25.2127 33.0618 25.3115 32.8132 25.3115ZM29.0632 1.87402C28.8145 1.87402 28.5761 1.9728 28.4002 2.14861C28.2244 2.32443 28.1257 2.56288 28.1257 2.81152V17.8115C28.1257 18.0602 28.2244 18.2986 28.4002 18.4744C28.5761 18.6503 28.8145 18.749 29.0632 18.749H32.8132C33.0618 18.749 33.3003 18.8478 33.4761 19.0236C33.6519 19.1994 33.7507 19.4379 33.7507 19.6865V22.1109L36.8378 19.0237C37.0136 18.8479 37.252 18.7491 37.5007 18.749H53.4382C53.6868 18.749 53.9253 18.6503 54.1011 18.4744C54.2769 18.2986 54.3757 18.0602 54.3757 17.8115V2.81152C54.3757 2.56288 54.2769 2.32443 54.1011 2.14861C53.9253 1.9728 53.6868 1.87402 53.4382 1.87402H29.0632Z" fill="#4285B4"></path><path d="M33.75 13.124C33.1937 13.124 32.65 12.9591 32.1875 12.65C31.7249 12.341 31.3645 11.9017 31.1516 11.3878C30.9387 10.8739 30.883 10.3084 30.9915 9.76283C31.1001 9.21726 31.3679 8.71612 31.7613 8.32279C32.1546 7.92945 32.6557 7.66159 33.2013 7.55307C33.7469 7.44455 34.3124 7.50024 34.8263 7.71311C35.3402 7.92598 35.7795 8.28647 36.0885 8.74898C36.3975 9.2115 36.5625 9.75526 36.5625 10.3115C36.5625 11.0574 36.2662 11.7728 35.7387 12.3003C35.2113 12.8277 34.4959 13.124 33.75 13.124ZM33.75 9.37402C33.5646 9.37402 33.3833 9.42901 33.2292 9.53202C33.075 9.63504 32.9548 9.78145 32.8839 9.95276C32.8129 10.1241 32.7943 10.3126 32.8305 10.4944C32.8667 10.6763 32.956 10.8433 33.0871 10.9744C33.2182 11.1055 33.3852 11.1948 33.5671 11.231C33.749 11.2672 33.9375 11.2486 34.1088 11.1777C34.2801 11.1067 34.4265 10.9865 34.5295 10.8324C34.6325 10.6782 34.6875 10.4969 34.6875 10.3115C34.6875 10.0629 34.5887 9.82443 34.4129 9.64861C34.2371 9.4728 33.9986 9.37402 33.75 9.37402ZM41.25 13.124C40.6937 13.124 40.15 12.9591 39.6875 12.65C39.2249 12.341 38.8645 11.9017 38.6516 11.3878C38.4387 10.8739 38.383 10.3084 38.4915 9.76283C38.6001 9.21726 38.8679 8.71612 39.2613 8.32279C39.6546 7.92945 40.1557 7.66159 40.7013 7.55307C41.2469 7.44455 41.8124 7.50024 42.3263 7.71311C42.8402 7.92598 43.2795 8.28647 43.5885 8.74898C43.8975 9.2115 44.0625 9.75526 44.0625 10.3115C44.0625 11.0574 43.7662 11.7728 43.2387 12.3003C42.7113 12.8277 41.9959 13.124 41.25 13.124ZM41.25 9.37402C41.0646 9.37402 40.8833 9.42901 40.7292 9.53202C40.575 9.63504 40.4548 9.78145 40.3839 9.95276C40.3129 10.1241 40.2943 10.3126 40.3305 10.4944C40.3667 10.6763 40.456 10.8433 40.5871 10.9744C40.7182 11.1055 40.8852 11.1948 41.0671 11.231C41.249 11.2672 41.4375 11.2486 41.6088 11.1777C41.7801 11.1067 41.9265 10.9865 42.0295 10.8324C42.1325 10.6782 42.1875 10.4969 42.1875 10.3115C42.1875 10.0629 42.0887 9.82443 41.9129 9.64861C41.7371 9.4728 41.4986 9.37402 41.25 9.37402ZM48.75 13.124C48.1937 13.124 47.65 12.9591 47.1875 12.65C46.7249 12.341 46.3645 11.9017 46.1516 11.3878C45.9387 10.8739 45.883 10.3084 45.9915 9.76283C46.1001 9.21726 46.3679 8.71612 46.7613 8.32279C47.1546 7.92945 47.6557 7.66159 48.2013 7.55307C48.7469 7.44455 49.3124 7.50024 49.8263 7.71311C50.3402 7.92598 50.7795 8.28647 51.0885 8.74898C51.3975 9.2115 51.5625 9.75526 51.5625 10.3115C51.5625 11.0574 51.2662 11.7728 50.7387 12.3003C50.2113 12.8277 49.4959 13.124 48.75 13.124ZM48.75 9.37402C48.5646 9.37402 48.3833 9.42901 48.2292 9.53202C48.075 9.63504 47.9548 9.78145 47.8839 9.95276C47.8129 10.1241 47.7943 10.3126 47.8305 10.4944C47.8667 10.6763 47.956 10.8433 48.0871 10.9744C48.2182 11.1055 48.3852 11.1948 48.5671 11.231C48.749 11.2672 48.9375 11.2486 49.1088 11.1777C49.2801 11.1067 49.4265 10.9865 49.5295 10.8324C49.6325 10.6782 49.6875 10.4969 49.6875 10.3115C49.6875 10.0629 49.5887 9.82443 49.4129 9.64861C49.2371 9.4728 48.9986 9.37402 48.75 9.37402ZM5.625 15.9365H3.75V12.1865C3.75 11.9379 3.84877 11.6994 4.02459 11.5236C4.2004 11.3478 4.43886 11.249 4.6875 11.249H8.4375V13.124H5.625V15.9365ZM3.75 17.8115H5.625V19.6865H3.75V17.8115Z" fill="#4285B4"></path><path d="M19.3912 13.7099L19.3922 13.7095L21.0582 13.0324C21.0583 13.0324 21.0585 13.0323 21.0587 13.0323C21.0841 13.0221 21.1125 13.0224 21.1377 13.0331C21.163 13.0437 21.1831 13.064 21.1935 13.0894C21.1935 13.0894 21.1936 13.0895 21.1936 13.0896L28.216 30.3363C28.2161 30.3365 28.2162 30.3367 28.2163 30.337C28.2263 30.3623 28.226 30.3907 28.2154 30.4158C28.2047 30.4411 28.1845 30.4611 28.1592 30.4715C28.1591 30.4716 28.159 30.4717 28.1588 30.4717L26.4989 31.1473C26.4985 31.1474 26.4982 31.1476 26.4978 31.1477C26.2763 31.237 26.0399 31.2834 25.8012 31.2845C25.4114 31.2812 25.0314 31.1623 24.7092 30.9429C24.386 30.7228 24.1356 30.4115 23.9899 30.0486L23.9884 30.0448L18.369 16.2448L18.369 16.2448L18.3676 16.2413C18.1706 15.7636 18.1682 15.2278 18.361 14.7484L18.3622 14.7454C18.4549 14.5122 18.5938 14.3003 18.7707 14.1223L18.1796 13.5349L18.7707 14.1223C18.9475 13.9444 19.1586 13.8041 19.3912 13.7099Z" stroke="#4285B4" stroke-width="1.66667"></path></g><defs><clipPath id="clip0_424_10897"><rect width="60" height="60" fill="white"></rect></clipPath></defs></svg> 