<?xml version="1.0" encoding="UTF-8"?> <svg xmlns="http://www.w3.org/2000/svg" width="60" height="60" viewBox="0 0 60 60" fill="none"><path d="M53.5107 23.6504C54.158 23.6504 54.6826 23.1257 54.6826 22.4785C54.6826 21.8313 54.158 21.3066 53.5107 21.3066C52.8635 21.3066 52.3389 21.8313 52.3389 22.4785C52.3389 23.1257 52.8635 23.6504 53.5107 23.6504Z" fill="#4285B4"></path><path d="M22.5195 30.4531C23.1667 30.4531 23.6914 29.9285 23.6914 29.2812C23.6914 28.634 23.1667 28.1094 22.5195 28.1094C21.8723 28.1094 21.3477 28.634 21.3477 29.2812C21.3477 29.9285 21.8723 30.4531 22.5195 30.4531Z" fill="#131313"></path><path d="M56.5088 9.18844H47.3957C46.8382 5.9823 44.0374 3.53613 40.6743 3.53613C37.3111 3.53613 34.5103 5.9823 33.9529 9.18844H24.8396C22.9145 9.18844 21.3484 10.7546 21.3484 12.6797V18.5813H14.8266C15.4719 17.6739 15.853 16.5661 15.853 15.3703C15.853 12.3074 13.3611 9.81551 10.2983 9.81551C7.23527 9.81551 4.74352 12.3074 4.74352 15.3703C4.74352 16.9507 5.40809 18.3779 6.47109 19.3904C2.67211 20.9551 0 24.6192 0 28.8793V37.6072C0 40.2606 2.06332 42.4515 4.70543 42.7323V54.1186H1.77375C1.12664 54.1186 0.601875 54.6434 0.601875 55.2905C0.601875 55.9376 1.12664 56.4623 1.77375 56.4623H34.046L34.0546 56.4627C34.0575 56.4626 34.0604 56.4625 34.0632 56.4623H48.0652C48.0681 56.4625 48.071 56.4626 48.0738 56.4627L48.0824 56.4623H57.7223C58.3695 56.4623 58.8942 55.9376 58.8942 55.2905C58.8942 54.6434 58.3695 54.1186 57.7223 54.1186H48.9168L45.5588 44.1135H56.5086C58.4338 44.1135 59.9999 42.5474 59.9999 40.6222V12.6797C60 10.7546 58.4339 9.18844 56.5088 9.18844ZM40.6743 5.87988C42.7395 5.87988 44.4828 7.28449 44.9993 9.18844H36.3492C36.8657 7.28449 38.6091 5.87988 40.6743 5.87988ZM10.2982 12.1593C12.0687 12.1593 13.5091 13.5997 13.5091 15.3703C13.5091 17.1409 12.0687 18.5813 10.2982 18.5813C8.52762 18.5813 7.08715 17.1408 7.08715 15.3703C7.08715 13.5997 8.52762 12.1593 10.2982 12.1593ZM14.268 24.6708V54.1186H11.8304V40.9447C11.8304 40.2976 11.3057 39.7729 10.6586 39.7729C10.0114 39.7729 9.48668 40.2976 9.48668 40.9447V54.1186H7.04918V29.183C7.04918 28.5357 6.52453 28.0111 5.8773 28.0111C5.23008 28.0111 4.70543 28.5359 4.70543 29.183V40.3652C3.36059 40.1084 2.34375 38.9695 2.34375 37.6072V28.8793C2.34375 24.4934 6.03973 20.925 10.5827 20.925H32.1186C31.6256 22.4183 30.2168 23.4989 28.5605 23.4989H15.4399C14.7928 23.4989 14.268 24.0236 14.268 24.6708ZM46.4446 54.1185H35.6838L39.0418 44.1134H43.0866L46.4446 54.1185ZM57.6562 40.6222C57.6562 41.2549 57.1414 41.7697 56.5088 41.7697H24.8396C24.207 41.7697 23.6921 41.2549 23.6921 40.6222V33.7657C23.6921 33.1186 23.1674 32.5938 22.5203 32.5938C21.8732 32.5938 21.3484 33.1186 21.3484 33.7657V40.6222C21.3484 42.5474 22.9145 44.1135 24.8396 44.1135H36.5695L33.2115 54.1186H16.6118V25.8428H28.5605C31.9182 25.8428 34.6501 23.111 34.6501 19.7532C34.6501 19.106 34.1254 18.5814 33.4782 18.5814H23.6921V12.6798C23.6921 12.0471 24.207 11.5323 24.8396 11.5323H56.5088C57.1414 11.5323 57.6562 12.0471 57.6562 12.6798V40.6222Z" fill="#131313"></path><path d="M50.758 25.229C50.3002 24.7714 49.5584 24.7714 49.1007 25.2289L44.081 30.2486L42.2503 28.4179C41.7925 27.9604 41.0508 27.9604 40.5929 28.4179L34.1225 34.8883L32.3152 33.081C32.0954 32.8613 31.7974 32.7379 31.4866 32.7379C31.1758 32.7379 30.8778 32.8613 30.658 33.081L27.2963 36.4428C26.8387 36.9004 26.8387 37.6424 27.2963 38.1001C27.405 38.2091 27.5342 38.2955 27.6764 38.3544C27.8186 38.4133 27.9711 38.4436 28.125 38.4434C28.2789 38.4436 28.4313 38.4133 28.5735 38.3544C28.7157 38.2955 28.8449 38.2091 28.9536 38.1001L31.4865 35.5671L33.2938 37.3744C33.7515 37.8319 34.4933 37.8319 34.9511 37.3744L41.4215 30.904L43.2522 32.7347C43.71 33.1922 44.4518 33.1922 44.9096 32.7347L50.758 26.8864C51.2156 26.4287 51.2156 25.6867 50.758 25.229Z" fill="#4285B4"></path></svg> 