<?xml version="1.0" encoding="UTF-8"?> <svg xmlns="http://www.w3.org/2000/svg" width="44" height="44" viewBox="0 0 44 44" fill="none"><g clip-path="url(#clip0_424_12365)"><path d="M43.3055 42.6107H42.1476V25.7054C42.1476 25.5212 42.0744 25.3445 41.9441 25.2142C41.8138 25.0839 41.6371 25.0107 41.4529 25.0107H28.4845C28.3002 25.0107 28.1235 25.0839 27.9933 25.2142C27.863 25.3445 27.7898 25.5212 27.7898 25.7054C27.7898 25.8897 27.863 26.0664 27.9933 26.1967C28.1235 26.3269 28.3002 26.4001 28.4845 26.4001H40.7582V29.6422H22.0003C21.816 29.6422 21.6393 29.7154 21.509 29.8457C21.3787 29.976 21.3055 30.1527 21.3055 30.3369V36.8212C21.3055 37.0054 21.3787 37.1821 21.509 37.3124C21.6393 37.4427 21.816 37.5159 22.0003 37.5159H40.7582V42.6106H34.9687C34.7845 42.6106 34.6078 42.6838 34.4775 42.8141C34.3472 42.9444 34.274 43.1211 34.274 43.3053C34.274 43.4896 34.3472 43.6663 34.4775 43.7966C34.6078 43.9269 34.7845 44 34.9687 44H43.3055C43.4884 43.998 43.6632 43.9239 43.7918 43.7939C43.9204 43.6638 43.9925 43.4883 43.9925 43.3054C43.9925 43.1225 43.9204 42.9469 43.7918 42.8169C43.6632 42.6868 43.4884 42.6127 43.3055 42.6107ZM40.7582 36.1265H35.6635V33.1159C35.6635 32.9316 35.5903 32.7549 35.46 32.6246C35.3297 32.4944 35.153 32.4212 34.9687 32.4212C34.7845 32.4212 34.6078 32.4944 34.4775 32.6246C34.3472 32.7549 34.274 32.9316 34.274 33.1159V36.1265H29.1793V33.1159C29.1793 32.9316 29.1061 32.7549 28.9758 32.6246C28.8455 32.4944 28.6688 32.4212 28.4846 32.4212C28.3003 32.4212 28.1236 32.4944 27.9933 32.6246C27.8631 32.7549 27.7899 32.9316 27.7899 33.1159V36.1265H22.6951V31.0317H40.7583L40.7582 36.1265ZM18.295 13.4317C20.2104 13.4317 21.7686 11.8735 21.7686 9.95805C21.7686 8.04259 20.2104 6.48438 18.295 6.48438C16.3795 6.48438 14.8213 8.04259 14.8213 9.95805C14.8213 11.8735 16.3796 13.4317 18.295 13.4317ZM18.295 7.87381C19.4442 7.87381 20.3792 8.80873 20.3792 9.95805C20.3792 11.1073 19.4443 12.0423 18.295 12.0423C17.1456 12.0423 16.2107 11.1074 16.2107 9.95805C16.2108 8.80873 17.1457 7.87381 18.295 7.87381Z" fill="#131313"></path><path d="M32.1894 42.6105H17.7847C18.0388 42.1133 18.1221 41.5462 18.0215 40.997L16.8425 34.5127C16.6222 33.3008 15.5682 32.421 14.3363 32.421H13.7234C12.4914 32.421 11.4375 33.3008 11.2171 34.5127L10.0381 40.997C9.93756 41.5462 10.0208 42.1133 10.2749 42.6105H3.24208V8.03136L6.56906 8.71628C6.65842 8.73473 6.75053 8.73538 6.84014 8.7182C6.92975 8.70103 7.01509 8.66636 7.0913 8.61618C7.1675 8.56601 7.23307 8.5013 7.28425 8.42577C7.33543 8.35024 7.37123 8.26536 7.38959 8.17599C7.408 8.08664 7.40863 7.99453 7.39144 7.90494C7.37425 7.81534 7.33958 7.73001 7.28941 7.65382C7.23923 7.57762 7.17455 7.51206 7.09903 7.46086C7.02352 7.40967 6.93866 7.37386 6.8493 7.35546L2.68752 6.49858C2.58652 6.47774 2.48215 6.47966 2.38198 6.50419C2.28182 6.52872 2.18837 6.57524 2.10843 6.64039C2.02848 6.70554 1.96405 6.78767 1.91981 6.88083C1.87556 6.97398 1.85262 7.07582 1.85264 7.17895V42.6105H0.694719C0.510468 42.6105 0.333763 42.6837 0.203478 42.814C0.0731934 42.9443 0 43.121 0 43.3053C0 43.4895 0.0731934 43.6662 0.203478 43.7965C0.333763 43.9268 0.510468 44 0.694719 44H32.1894C32.3737 44 32.5504 43.9268 32.6807 43.7965C32.811 43.6662 32.8842 43.4895 32.8842 43.3053C32.8842 43.121 32.811 42.9443 32.6807 42.814C32.5504 42.6837 32.3737 42.6105 32.1894 42.6105ZM16.4042 42.1945C16.2956 42.3249 16.1597 42.4298 16.0061 42.5017C15.8524 42.5736 15.6848 42.6107 15.5152 42.6105H14.7244V38.6738C14.7244 38.4895 14.6513 38.3128 14.521 38.1825C14.3907 38.0522 14.214 37.979 14.0297 37.979C13.8455 37.979 13.6688 38.0522 13.5385 38.1825C13.4082 38.3128 13.335 38.4895 13.335 38.6738V42.6105H12.5443C12.3747 42.6107 12.207 42.5736 12.0534 42.5017C11.8997 42.4298 11.7638 42.3249 11.6553 42.1945C11.5464 42.0644 11.4676 41.9119 11.4243 41.7479C11.3811 41.5839 11.3745 41.4124 11.405 41.2455L12.584 34.7613C12.6324 34.4944 12.773 34.2531 12.9812 34.0793C13.1894 33.9056 13.452 33.8104 13.7232 33.8105H14.3361C14.6073 33.8103 14.8699 33.9055 15.0782 34.0792C15.2864 34.253 15.4269 34.4944 15.4753 34.7613L16.6543 41.2455C16.6849 41.4124 16.6784 41.5839 16.6352 41.7479C16.592 41.912 16.5131 42.0645 16.4042 42.1945ZM29.1278 13.3606L33.3474 14.2294V22.9263C33.3474 23.1106 33.4206 23.2873 33.5508 23.4175C33.6811 23.5478 33.8578 23.621 34.0421 23.621C34.2263 23.621 34.403 23.5478 34.5333 23.4175C34.6636 23.2873 34.7368 23.1106 34.7368 22.9263V13.6631C34.7368 13.5032 34.6816 13.3481 34.5806 13.2242C34.4795 13.1002 34.3388 13.0149 34.1822 12.9826L29.4079 11.9997C29.3185 11.9813 29.2264 11.9806 29.1368 11.9978C29.0472 12.0149 28.9619 12.0496 28.8857 12.0998C28.8095 12.15 28.7439 12.2147 28.6927 12.2902C28.6415 12.3657 28.6057 12.4506 28.5874 12.54C28.569 12.6294 28.5684 12.7215 28.5856 12.8111C28.6028 12.9007 28.6375 12.986 28.6876 13.0622C28.7378 13.1384 28.8025 13.204 28.8781 13.2552C28.9536 13.3064 29.0385 13.3422 29.1278 13.3606Z" fill="#131313"></path><path d="M9.57218 12.0378L11.2679 12.3769C11.3667 12.6634 11.4827 12.9436 11.6155 13.2161L10.6562 14.655C10.2512 15.2625 10.332 16.078 10.8482 16.5943L11.6582 17.4043C12.1745 17.9205 12.9901 18.0013 13.5975 17.5963L15.0365 16.637C15.3088 16.77 15.5891 16.886 15.8757 16.9846L16.2148 18.6804C16.358 19.3963 16.9918 19.9158 17.7218 19.9158H18.8674C19.5974 19.9158 20.2312 19.3963 20.3744 18.6804L20.7135 16.9847C21 16.8859 21.2802 16.7698 21.5526 16.6371L22.9917 17.5964C23.5992 18.0012 24.4147 17.9206 24.9309 17.4044L25.741 16.5944C26.2572 16.0781 26.338 15.2626 25.933 14.6551L24.9736 13.2161C25.1066 12.9437 25.2227 12.6635 25.3213 12.3769L27.0171 12.0378C27.7329 11.8946 28.2525 11.2608 28.2525 10.5308V9.38523C28.2525 8.6552 27.7329 8.02141 27.0171 7.87823L25.3213 7.53912C25.2226 7.25261 25.1065 6.97237 24.9737 6.69994L25.933 5.26101C26.3381 4.65352 26.2573 3.83797 25.7411 3.32174L24.931 2.5117C24.4149 1.99547 23.5992 1.91477 22.9917 2.31971L21.5527 3.27903C21.2804 3.14606 21.0001 3.02997 20.7135 2.93141L20.3744 1.23561C20.2313 0.519578 19.5975 0 18.8675 0H17.722C16.9919 0 16.3581 0.519578 16.215 1.23544L15.8759 2.93116C15.5894 3.02991 15.3091 3.146 15.0367 3.27877L13.5977 2.31945C12.9902 1.91443 12.1746 1.99521 11.6585 2.51144L10.8484 3.32148C10.3322 3.83771 10.2514 4.65326 10.6565 5.26075L11.6158 6.69977C11.4828 6.97211 11.3667 7.25236 11.2682 7.53895L9.57235 7.87806C8.85649 8.02123 8.33691 8.65502 8.33691 9.38498V10.5305C8.33683 11.2606 8.85632 11.8944 9.57218 12.0378ZM9.72627 9.38506C9.72627 9.31502 9.77611 9.25427 9.84477 9.24052L11.9445 8.82063C12.0702 8.79543 12.1865 8.73596 12.2806 8.64878C12.3746 8.5616 12.4427 8.45012 12.4773 8.32666C12.607 7.86346 12.7918 7.4175 13.0277 6.99832C13.0906 6.88652 13.1214 6.7595 13.1166 6.6313C13.1118 6.50311 13.0716 6.37875 13.0005 6.27198L11.8126 4.49006C11.7938 4.4617 11.7853 4.42771 11.7887 4.39385C11.792 4.35998 11.807 4.32831 11.831 4.30418L12.641 3.49413C12.6651 3.47012 12.6968 3.45517 12.7307 3.45182C12.7646 3.44847 12.7986 3.45692 12.827 3.47574L14.6088 4.66366C14.7156 4.73477 14.8399 4.77495 14.9681 4.77976C15.0963 4.78457 15.2234 4.75381 15.3351 4.6909C15.7543 4.45497 16.2003 4.27018 16.6635 4.14047C16.787 4.10594 16.8985 4.03787 16.9857 3.94383C17.0729 3.84978 17.1323 3.73342 17.1575 3.60766L17.5773 1.50795C17.5841 1.47456 17.6022 1.44454 17.6285 1.42294C17.6548 1.40135 17.6878 1.38951 17.7219 1.38944H18.8674C18.9375 1.38944 18.9982 1.43928 19.012 1.50795L19.4319 3.60766C19.4571 3.73338 19.5165 3.84969 19.6037 3.94372C19.6909 4.03776 19.8024 4.10585 19.9258 4.14047C20.389 4.27018 20.835 4.45497 21.2542 4.6909C21.366 4.75381 21.493 4.78457 21.6212 4.77976C21.7494 4.77495 21.8738 4.73477 21.9805 4.66366L23.7624 3.47574C23.7907 3.45691 23.8247 3.44844 23.8586 3.45178C23.8925 3.45511 23.9242 3.47004 23.9483 3.49405L24.7584 4.30409C24.7824 4.32823 24.7973 4.35992 24.8007 4.3938C24.804 4.42769 24.7956 4.46169 24.7768 4.49006L23.5888 6.27189C23.5176 6.37862 23.4774 6.503 23.4726 6.63121C23.4678 6.75943 23.4986 6.88647 23.5616 6.99823C23.7975 7.41741 23.9823 7.86338 24.112 8.32657C24.1466 8.45008 24.2146 8.56161 24.3087 8.6488C24.4027 8.73599 24.5191 8.79544 24.6448 8.82054L26.7446 9.24043C26.7779 9.24718 26.808 9.26525 26.8296 9.29159C26.8512 9.31793 26.863 9.35092 26.8631 9.38498V10.5305C26.863 10.5646 26.8512 10.5976 26.8296 10.6239C26.808 10.6502 26.7779 10.6683 26.7446 10.6751L24.6448 11.095C24.5191 11.1201 24.4027 11.1795 24.3087 11.2667C24.2146 11.3539 24.1465 11.4655 24.112 11.589C23.9823 12.0522 23.7976 12.4981 23.5617 12.9173C23.4988 13.0291 23.468 13.1561 23.4728 13.2843C23.4776 13.4125 23.5178 13.5368 23.5889 13.6436L24.7768 15.4255C24.7956 15.4539 24.8041 15.4879 24.8007 15.5217C24.7974 15.5556 24.7824 15.5873 24.7585 15.6114L23.9484 16.4215C23.9243 16.4455 23.8926 16.4604 23.8587 16.4638C23.8248 16.4671 23.7908 16.4587 23.7624 16.4398L21.9806 15.2519C21.8739 15.1807 21.7495 15.1405 21.6213 15.1357C21.4931 15.1309 21.366 15.1617 21.2543 15.2247C20.8351 15.4606 20.3891 15.6454 19.9259 15.7751C19.8024 15.8097 19.6909 15.8777 19.6037 15.9718C19.5165 16.0658 19.4571 16.1822 19.432 16.3079L19.0121 18.4076C19.0053 18.441 18.9872 18.4711 18.9609 18.4926C18.9346 18.5142 18.9016 18.5261 18.8675 18.5261H17.722C17.6879 18.5261 17.6549 18.5142 17.6286 18.4926C17.6023 18.4711 17.5842 18.441 17.5774 18.4076L17.1575 16.3079C17.1323 16.1822 17.0729 16.0659 16.9857 15.9719C16.8985 15.8778 16.787 15.8097 16.6636 15.7751C16.2004 15.6454 15.7544 15.4606 15.3352 15.2247C15.2234 15.1618 15.0964 15.131 14.9682 15.1358C14.84 15.1407 14.7156 15.1809 14.6088 15.252L12.8269 16.4399C12.7985 16.4587 12.7645 16.4672 12.7307 16.4638C12.6968 16.4605 12.6651 16.4455 12.641 16.4215L11.831 15.6115C11.8069 15.5874 11.792 15.5557 11.7886 15.5218C11.7852 15.4879 11.7937 15.4539 11.8125 15.4255L13.0004 13.6437C13.0716 13.537 13.1118 13.4126 13.1166 13.2844C13.1215 13.1562 13.0906 13.0291 13.0276 12.9174C12.7917 12.4982 12.6069 12.0522 12.4772 11.589C12.4427 11.4655 12.3746 11.354 12.2806 11.2668C12.1865 11.1796 12.0702 11.1201 11.9444 11.095L9.84469 10.6752C9.8113 10.6684 9.78128 10.6503 9.75968 10.624C9.73809 10.5977 9.72626 10.5647 9.72618 10.5306L9.72627 9.38506ZM13.6631 25.0106C13.5718 25.0106 13.4815 25.0285 13.3972 25.0634C13.3129 25.0984 13.2363 25.1495 13.1718 25.214C13.1073 25.2786 13.0561 25.3551 13.0212 25.4394C12.9863 25.5237 12.9683 25.614 12.9683 25.7053V30.3369C12.9683 30.5211 13.0415 30.6978 13.1718 30.8281C13.3021 30.9584 13.4788 31.0316 13.6631 31.0316C13.8473 31.0316 14.024 30.9584 14.1543 30.8281C14.2846 30.6978 14.3578 30.5211 14.3578 30.3369V26.4H25.7051C25.8894 26.4 26.0661 26.3268 26.1964 26.1965C26.3267 26.0662 26.3999 25.8895 26.3999 25.7053C26.3999 25.521 26.3267 25.3443 26.1964 25.214C26.0661 25.0838 25.8894 25.0106 25.7051 25.0106H13.6631Z" fill="#4285B4"></path></g><defs><clipPath id="clip0_424_12365"><rect width="44" height="44" fill="white"></rect></clipPath></defs></svg> 