<?xml version="1.0" encoding="UTF-8"?> <svg xmlns="http://www.w3.org/2000/svg" width="60" height="60" viewBox="0 0 60 60" fill="none"><g clip-path="url(#clip0_424_10930)"><path d="M39.376 28.1233H20.626C20.3773 28.1233 20.1389 28.0245 19.9631 27.8487C19.7872 27.6729 19.6885 27.4344 19.6885 27.1858V4.68579C19.6885 4.43715 19.7872 4.19869 19.9631 4.02288C20.1389 3.84706 20.3773 3.74829 20.626 3.74829H33.751C33.9996 3.74829 34.2381 3.84706 34.4139 4.02288C34.5897 4.19869 34.6885 4.43715 34.6885 4.68579C34.6885 4.93443 34.5897 5.17289 34.4139 5.3487C34.2381 5.52452 33.9996 5.62329 33.751 5.62329H21.5635V26.2483H38.4385V5.62329H36.5635C36.3148 5.62329 36.0764 5.52452 35.9006 5.3487C35.7247 5.17289 35.626 4.93443 35.626 4.68579C35.626 4.43715 35.7247 4.19869 35.9006 4.02288C36.0764 3.84706 36.3148 3.74829 36.5635 3.74829H39.376C39.6246 3.74829 39.8631 3.84706 40.0389 4.02288C40.2147 4.19869 40.3135 4.43715 40.3135 4.68579V27.1858C40.3135 27.4344 40.2147 27.6729 40.0389 27.8487C39.8631 28.0245 39.6246 28.1233 39.376 28.1233ZM31.876 34.6858H28.126C27.8773 34.6858 27.6389 34.587 27.4631 34.4112C27.2872 34.2354 27.1885 33.9969 27.1885 33.7483C27.1885 33.4997 27.2872 33.2612 27.4631 33.0854C27.6389 32.9096 27.8773 32.8108 28.126 32.8108H31.876C32.1246 32.8108 32.3631 32.9096 32.5389 33.0854C32.7147 33.2612 32.8135 33.4997 32.8135 33.7483C32.8135 33.9969 32.7147 34.2354 32.5389 34.4112C32.3631 34.587 32.1246 34.6858 31.876 34.6858Z" fill="#4285B4"></path><path d="M30.001 35.6233C29.7523 35.6233 29.5139 35.5245 29.3381 35.3487C29.1622 35.1729 29.0635 34.9344 29.0635 34.6858V33.7483C29.0635 33.4997 29.1622 33.2612 29.3381 33.0854C29.5139 32.9096 29.7523 32.8108 30.001 32.8108C30.2496 32.8108 30.4881 32.9096 30.6639 33.0854C30.8397 33.2612 30.9385 33.4997 30.9385 33.7483V34.6858C30.9385 34.9344 30.8397 35.1729 30.6639 35.3487C30.4881 35.5245 30.2496 35.6233 30.001 35.6233Z" fill="#4285B4"></path><path d="M39.376 -0.00170898H20.626C19.3832 -0.000220368 18.1918 0.494118 17.3131 1.37287C16.4343 2.25163 15.94 3.44305 15.9385 4.68579V34.6858C15.94 35.9285 16.4343 37.12 17.3131 37.9987C18.1918 38.8775 19.3832 39.3718 20.626 39.3733H25.2563L24.4294 53.4358H23.4385C22.4439 53.4358 21.4901 53.8309 20.7868 54.5341C20.0836 55.2374 19.6885 56.1912 19.6885 57.1858V59.0608C19.6885 59.3094 19.7872 59.5479 19.9631 59.7237C20.1389 59.8995 20.3773 59.9983 20.626 59.9983H39.376C39.6246 59.9983 39.8631 59.8995 40.0389 59.7237C40.2147 59.5479 40.3135 59.3094 40.3135 59.0608V57.1858C40.3135 56.1912 39.9184 55.2374 39.2151 54.5341C38.5119 53.8309 37.558 53.4358 36.5635 53.4358H35.5716L34.8432 41.192C34.838 41.0683 34.808 40.9469 34.7549 40.8351C34.7018 40.7232 34.6267 40.6232 34.5342 40.541C34.4416 40.4588 34.3335 40.396 34.2161 40.3564C34.0988 40.3169 33.9747 40.3014 33.8513 40.3108C33.6032 40.3258 33.3711 40.4387 33.2062 40.6247C33.0413 40.8107 32.957 41.0545 32.9719 41.3027L33.6929 53.4358H26.3072L27.135 39.3733H39.376C40.6187 39.3718 41.8101 38.8775 42.6889 37.9987C43.5676 37.12 44.062 35.9285 44.0635 34.6858V4.68579C44.062 3.44305 43.5676 2.25163 42.6889 1.37287C41.8101 0.494118 40.6187 -0.000220368 39.376 -0.00170898ZM38.4385 57.1858V58.1233H21.5635V57.1858C21.5635 56.6885 21.761 56.2116 22.1127 55.86C22.4643 55.5083 22.9412 55.3108 23.4385 55.3108H36.5635C37.0608 55.3108 37.5377 55.5083 37.8893 55.86C38.2409 56.2116 38.4385 56.6885 38.4385 57.1858ZM42.1885 34.6858C42.1885 35.4317 41.8922 36.1471 41.3647 36.6745C40.8373 37.202 40.1219 37.4983 39.376 37.4983H20.626C19.8801 37.4983 19.1647 37.202 18.6372 36.6745C18.1098 36.1471 17.8135 35.4317 17.8135 34.6858V4.68579C17.8135 3.93987 18.1098 3.2245 18.6372 2.69705C19.1647 2.16961 19.8801 1.87329 20.626 1.87329H39.376C40.1219 1.87329 40.8373 2.16961 41.3647 2.69705C41.8922 3.2245 42.1885 3.93987 42.1885 4.68579V34.6858Z" fill="#131313"></path><path d="M35.626 34.6858C35.3773 34.6858 35.1389 34.587 34.9631 34.4112C34.7872 34.2354 34.6885 33.9969 34.6885 33.7483V32.8108C34.6885 32.5622 34.5897 32.3237 34.4139 32.1479C34.2381 31.9721 33.9996 31.8733 33.751 31.8733H26.251C26.0023 31.8733 25.7639 31.9721 25.5881 32.1479C25.4122 32.3237 25.3135 32.5622 25.3135 32.8108V33.7483C25.3135 33.9969 25.2147 34.2354 25.0389 34.4112C24.8631 34.587 24.6246 34.6858 24.376 34.6858C24.1273 34.6858 23.8889 34.587 23.7131 34.4112C23.5372 34.2354 23.4385 33.9969 23.4385 33.7483V32.8108C23.4385 32.0649 23.7348 31.3495 24.2622 30.8221C24.7897 30.2946 25.5051 29.9983 26.251 29.9983H33.751C34.4969 29.9983 35.2123 30.2946 35.7397 30.8221C36.2672 31.3495 36.5635 32.0649 36.5635 32.8108V33.7483C36.5635 33.9969 36.4647 34.2354 36.2889 34.4112C36.1131 34.587 35.8746 34.6858 35.626 34.6858ZM28.126 13.1233H24.376C24.1273 13.1233 23.8889 13.0245 23.7131 12.8487C23.5372 12.6729 23.4385 12.4344 23.4385 12.1858V8.43579C23.4385 8.18715 23.5372 7.94869 23.7131 7.77288C23.8889 7.59706 24.1273 7.49829 24.376 7.49829H28.126C28.3746 7.49829 28.6131 7.59706 28.7889 7.77288C28.9647 7.94869 29.0635 8.18715 29.0635 8.43579V12.1858C29.0635 12.4344 28.9647 12.6729 28.7889 12.8487C28.6131 13.0245 28.3746 13.1233 28.126 13.1233ZM25.3135 11.2483H27.1885V9.37329H25.3135V11.2483ZM35.626 13.1233H31.876C31.6273 13.1233 31.3889 13.0245 31.2131 12.8487C31.0372 12.6729 30.9385 12.4344 30.9385 12.1858V8.43579C30.9385 8.18715 31.0372 7.94869 31.2131 7.77288C31.3889 7.59706 31.6273 7.49829 31.876 7.49829H35.626C35.8746 7.49829 36.1131 7.59706 36.2889 7.77288C36.4647 7.94869 36.5635 8.18715 36.5635 8.43579V12.1858C36.5635 12.4344 36.4647 12.6729 36.2889 12.8487C36.1131 13.0245 35.8746 13.1233 35.626 13.1233ZM32.8135 11.2483H34.6885V9.37329H32.8135V11.2483ZM28.126 20.6233H24.376C24.1273 20.6233 23.8889 20.5245 23.7131 20.3487C23.5372 20.1729 23.4385 19.9344 23.4385 19.6858V15.9358C23.4385 15.6872 23.5372 15.4487 23.7131 15.2729C23.8889 15.0971 24.1273 14.9983 24.376 14.9983H28.126C28.3746 14.9983 28.6131 15.0971 28.7889 15.2729C28.9647 15.4487 29.0635 15.6872 29.0635 15.9358V19.6858C29.0635 19.9344 28.9647 20.1729 28.7889 20.3487C28.6131 20.5245 28.3746 20.6233 28.126 20.6233ZM25.3135 18.7483H27.1885V16.8733H25.3135V18.7483ZM35.626 20.6233H31.876C31.6273 20.6233 31.3889 20.5245 31.2131 20.3487C31.0372 20.1729 30.9385 19.9344 30.9385 19.6858V15.9358C30.9385 15.6872 31.0372 15.4487 31.2131 15.2729C31.3889 15.0971 31.6273 14.9983 31.876 14.9983H35.626C35.8746 14.9983 36.1131 15.0971 36.2889 15.2729C36.4647 15.4487 36.5635 15.6872 36.5635 15.9358V19.6858C36.5635 19.9344 36.4647 20.1729 36.2889 20.3487C36.1131 20.5245 35.8746 20.6233 35.626 20.6233ZM32.8135 18.7483H34.6885V16.8733H32.8135V18.7483ZM35.626 24.3733H24.376C24.1273 24.3733 23.8889 24.2745 23.7131 24.0987C23.5372 23.9229 23.4385 23.6844 23.4385 23.4358C23.4385 23.1872 23.5372 22.9487 23.7131 22.7729C23.8889 22.5971 24.1273 22.4983 24.376 22.4983H35.626C35.8746 22.4983 36.1131 22.5971 36.2889 22.7729C36.4647 22.9487 36.5635 23.1872 36.5635 23.4358C36.5635 23.6844 36.4647 23.9229 36.2889 24.0987C36.1131 24.2745 35.8746 24.3733 35.626 24.3733Z" fill="#4285B4"></path></g><defs><clipPath id="clip0_424_10930"><rect width="60" height="60" fill="white"></rect></clipPath></defs></svg> 