<?xml version="1.0" encoding="UTF-8"?> <svg xmlns="http://www.w3.org/2000/svg" width="44" height="44" viewBox="0 0 44 44" fill="none"><path d="M22 5.5C22.44 5.5 22.8844 5.51753 23.3208 5.55208L23.4293 4.18138C22.9538 4.14388 22.477 4.12508 22 4.125C20.5546 4.1245 19.1143 4.29849 17.7106 4.6432L18.0395 5.97824C19.3356 5.66007 20.6654 5.49949 22 5.5ZM5.61261 14.8497C4.62661 17.1043 4.12003 19.5392 4.12504 22C4.12504 22.2374 4.12976 22.4778 4.13913 22.7146L5.51301 22.6604C5.50442 22.4417 5.50004 22.2196 5.50004 22C5.49519 19.7287 5.96265 17.4812 6.87272 15.4003L5.61261 14.8497ZM22 38.5C21.56 38.5 21.1157 38.4825 20.6793 38.4479L20.5708 39.8186C21.0463 39.8561 21.5231 39.8749 22 39.875C23.4455 39.8755 24.8858 39.7015 26.2895 39.3568L25.9606 38.0218C24.6644 38.3399 23.3346 38.5005 22 38.5ZM39.6475 24.8591C39.7991 23.9136 39.8752 22.9576 39.875 22C39.8798 19.588 39.3931 17.2003 38.4447 14.9825L37.1804 15.5227C38.0557 17.5698 38.5047 19.7737 38.5 22C38.5002 22.8845 38.4299 23.7675 38.2899 24.6409L39.6475 24.8591ZM27.7994 24.9168L28.1642 24.0362L30.25 23.536V20.464L28.1643 19.9638L27.7994 19.0832L28.9238 17.2483L26.7518 15.0763L24.9168 16.2007L24.0362 15.8358L23.5361 13.75H20.464L19.9638 15.8357L19.0832 16.2007L17.2484 15.0763L15.0763 17.2483L16.2007 19.0832L15.8358 19.9638L13.75 20.464V23.536L15.8357 24.0362L16.2007 24.9168L15.0763 26.7517L17.2483 28.9237L19.0832 27.7993L19.9638 28.1642L20.464 30.25H23.5361L24.0362 28.1643L24.9168 27.7993L26.7517 28.9237L28.9238 26.7517L27.7994 24.9168ZM26.546 27.185L25.0378 26.2609L22.8625 27.1624L22.4518 28.875H21.5483L21.1376 27.1623L18.9622 26.2608L17.454 27.185L16.815 26.5459L17.7392 25.0377L16.8377 22.8625L15.125 22.4518V21.5482L16.8378 21.1375L17.7393 18.9622L16.8151 17.454L17.4541 16.815L18.9623 17.7391L21.1376 16.8377L21.5483 15.125H22.4518L22.8625 16.8377L25.0378 17.7392L26.546 16.815L27.1851 17.4541L26.2609 18.9623L27.1624 21.1375L28.875 21.5482V22.4518L27.1623 22.8625L26.2608 25.0378L27.185 26.546L26.546 27.185Z" fill="#131313"></path><path d="M22 18.5625C21.3201 18.5625 20.6555 18.7641 20.0902 19.1418C19.5249 19.5195 19.0843 20.0564 18.8242 20.6845C18.564 21.3126 18.4959 22.0038 18.6286 22.6706C18.7612 23.3374 19.0886 23.9499 19.5693 24.4307C20.0501 24.9114 20.6626 25.2388 21.3294 25.3715C21.9962 25.5041 22.6874 25.436 23.3155 25.1758C23.9436 24.9157 24.4805 24.4751 24.8582 23.9098C25.2359 23.3445 25.4375 22.6799 25.4375 22C25.4365 21.0886 25.074 20.2149 24.4296 19.5704C23.7851 18.926 22.9114 18.5635 22 18.5625ZM22 24.0625C21.5921 24.0625 21.1933 23.9415 20.8541 23.7149C20.515 23.4883 20.2506 23.1662 20.0945 22.7893C19.9384 22.4124 19.8975 21.9977 19.9771 21.5976C20.0567 21.1975 20.2531 20.83 20.5416 20.5416C20.83 20.2531 21.1975 20.0567 21.5976 19.9771C21.9977 19.8975 22.4124 19.9384 22.7893 20.0945C23.1662 20.2506 23.4883 20.515 23.7149 20.8541C23.9415 21.1933 24.0625 21.5921 24.0625 22C24.0619 22.5468 23.8444 23.0711 23.4577 23.4577C23.0711 23.8444 22.5468 24.0619 22 24.0625ZM40.5625 1.375H26.8125C26.2657 1.37561 25.7414 1.59311 25.3548 1.97977C24.9681 2.36643 24.7506 2.89068 24.75 3.4375V11.6875C24.7506 12.2343 24.9681 12.7586 25.3548 13.1452C25.7414 13.5319 26.2657 13.7494 26.8125 13.75H40.5625C41.1093 13.7494 41.6336 13.5319 42.0202 13.1452C42.4069 12.7586 42.6244 12.2343 42.625 11.6875V3.4375C42.6244 2.89068 42.4069 2.36643 42.0202 1.97977C41.6336 1.59311 41.1093 1.37561 40.5625 1.375ZM26.125 11.6875V10.8818C26.3457 10.9601 26.5783 11.0001 26.8125 11H30.9375V12.375H26.8125C26.6302 12.3748 26.4555 12.3023 26.3266 12.1734C26.1977 12.0445 26.1252 11.8698 26.125 11.6875ZM35.0625 11V12.375H32.3125V11H35.0625ZM40.5625 12.375H36.4375V11H40.5625C40.7967 11.0001 41.0293 10.9601 41.25 10.8818V11.6875C41.2498 11.8698 41.1773 12.0445 41.0484 12.1734C40.9195 12.3023 40.7448 12.3748 40.5625 12.375ZM40.5625 9.625H26.8125C26.6302 9.62477 26.4555 9.55227 26.3266 9.42338C26.1977 9.2945 26.1252 9.11977 26.125 8.9375V3.4375C26.1252 3.25523 26.1977 3.0805 26.3266 2.95162C26.4555 2.82273 26.6302 2.75023 26.8125 2.75H40.5625C40.7448 2.75023 40.9195 2.82273 41.0484 2.95162C41.1773 3.0805 41.2498 3.25523 41.25 3.4375V8.9375C41.2498 9.11977 41.1773 9.2945 41.0484 9.42338C40.9195 9.55227 40.7448 9.62477 40.5625 9.625Z" fill="#4285B4"></path><path d="M27.5 8.25H30.25V6.875H28.875V5.5H30.25V4.125H27.5V8.25ZM37.125 5.5H38.5V6.875H37.125V8.25H39.875V4.125H37.125V5.5ZM33.6875 4.125C33.2796 4.125 32.8808 4.24596 32.5416 4.47259C32.2025 4.69922 31.9381 5.02134 31.782 5.39822C31.6259 5.77509 31.585 6.18979 31.6646 6.58987C31.7442 6.98996 31.9406 7.35746 32.2291 7.64591C32.5175 7.93435 32.885 8.13079 33.2851 8.21037C33.6852 8.28995 34.0999 8.24911 34.4768 8.093C34.8537 7.9369 35.1758 7.67254 35.4024 7.33336C35.629 6.99419 35.75 6.59542 35.75 6.1875C35.7494 5.64068 35.5319 5.11643 35.1452 4.72977C34.7586 4.34311 34.2343 4.12561 33.6875 4.125ZM33.6875 6.875C33.5515 6.875 33.4186 6.83468 33.3055 6.75914C33.1925 6.68359 33.1044 6.57622 33.0523 6.45059C33.0003 6.32497 32.9867 6.18674 33.0132 6.05338C33.0397 5.92001 33.1052 5.79751 33.2014 5.70136C33.2975 5.60522 33.42 5.53974 33.5534 5.51321C33.6867 5.48668 33.825 5.5003 33.9506 5.55233C34.0762 5.60437 34.1836 5.69249 34.2591 5.80555C34.3347 5.9186 34.375 6.05153 34.375 6.1875C34.3748 6.36977 34.3023 6.5445 34.1734 6.67338C34.0445 6.80227 33.8698 6.87477 33.6875 6.875ZM16.5 12.375H15.8125V8.25H16.5V5.07512L15.125 4.38762V3.4375C15.1244 2.89068 14.9069 2.36643 14.5202 1.97977C14.1336 1.59311 13.6093 1.37561 13.0625 1.375H4.8125C4.26568 1.37561 3.74143 1.59311 3.35477 1.97977C2.96811 2.36643 2.75061 2.89068 2.75 3.4375V4.38762L1.375 5.07512V8.25H2.0625V12.375H1.375V13.75H16.5V12.375ZM14.4375 12.375H11.6875V8.25H14.4375V12.375ZM9.88762 5.5L10.5751 6.875H7.29988L7.98738 5.5H9.88762ZM10.3125 8.25V12.375H7.5625V8.25H10.3125ZM15.125 5.92488V6.875H12.1124L11.4249 5.5H14.2752L15.125 5.92488ZM4.8125 2.75H13.0625C13.2448 2.75023 13.4195 2.82273 13.5484 2.95162C13.6773 3.0805 13.7498 3.25523 13.75 3.4375V4.125H4.125V3.4375C4.12523 3.25523 4.19773 3.0805 4.32662 2.95162C4.4555 2.82273 4.63023 2.75023 4.8125 2.75ZM2.75 5.92488L3.59984 5.5H6.45012L5.76262 6.875H2.75V5.92488ZM3.4375 8.25H6.1875V12.375H3.4375V8.25ZM5.5 34.375H8.25V35.75H5.5V34.375ZM5.5 37.8125H8.25V39.1875H5.5V37.8125Z" fill="#131313"></path><path d="M19.25 31.8876L14.4375 29.4814L11 31.2001V29.2346L9.50641 29.832L8.86531 24.0625H4.87214L4.15302 31.9734L2.75 32.5346V41.25H1.375V42.625H20.625V41.25H19.25V31.8876ZM17.875 32.7374V41.25H16.5V35.75H12.375V41.25H11V32.7374L14.4375 31.0186L17.875 32.7374ZM15.125 41.25H13.75V37.125H15.125V41.25ZM7.63469 25.4375L7.78748 26.8125H6.00273L6.12777 25.4375H7.63469ZM5.87787 28.1875H7.9402L8.18177 30.3618L5.58577 31.4003L5.87787 28.1875ZM4.125 33.4654L9.625 31.2654V41.25H4.125V33.4654Z" fill="#4285B4"></path><path d="M12.375 33.0001H16.5V34.3751H12.375V33.0001ZM39.8732 28.1C39.8569 27.7095 39.7298 27.3317 39.507 27.0107C39.2841 26.6896 38.9745 26.4386 38.6144 26.2868C38.2542 26.135 37.8584 26.0887 37.4729 26.1534C37.0875 26.218 36.7284 26.3909 36.4375 26.6519C36.0598 26.3128 35.5701 26.1252 35.0624 26.1252C34.5548 26.1252 34.065 26.3128 33.6873 26.6519C33.3964 26.391 33.0373 26.2181 32.6519 26.1535C32.2665 26.0888 31.8706 26.1351 31.5105 26.2869C31.1504 26.4387 30.8408 26.6897 30.618 27.0107C30.3951 27.3317 30.2681 27.7095 30.2517 28.1L27.7505 38.7302C27.4543 39.3769 27.4202 40.1131 27.6554 40.7844C27.8906 41.4556 28.3768 42.0096 29.0118 42.3299C29.6469 42.6502 30.3813 42.7119 31.0609 42.5021C31.7405 42.2922 32.3123 41.8271 32.6562 41.2046C32.8937 41.6349 33.2422 41.9936 33.6654 42.2434C34.0886 42.4933 34.571 42.6251 35.0625 42.6251C35.554 42.6251 36.0364 42.4933 36.4596 42.2434C36.8828 41.9936 37.2313 41.6349 37.4688 41.2046C37.8125 41.8275 38.3843 42.2929 39.064 42.5029C39.7438 42.713 40.4785 42.6513 41.1137 42.331C41.7489 42.0106 42.2352 41.4564 42.4703 40.7849C42.7054 40.1134 42.671 39.3769 42.3744 38.7302L39.8732 28.1ZM35.0625 27.5001C35.2448 27.5003 35.4195 27.5728 35.5484 27.7017C35.6773 27.8306 35.7498 28.0053 35.75 28.1876V28.2078L36.2917 37.4162C35.9102 37.2248 35.4893 37.1252 35.0625 37.1252C34.6357 37.1252 34.2148 37.2248 33.8333 37.4162L34.3739 28.228L34.375 28.1876C34.3752 28.0053 34.4477 27.8306 34.5766 27.7017C34.7055 27.5728 34.8802 27.5003 35.0625 27.5001ZM30.25 41.2501C29.897 41.2495 29.5578 41.1133 29.3025 40.8695C29.0472 40.6258 28.8953 40.2932 28.8784 39.9407L29.052 39.2025C29.1705 38.9915 29.3426 38.8155 29.5509 38.6923C29.7593 38.5691 29.9964 38.5032 30.2384 38.501C30.4804 38.4989 30.7187 38.5607 30.9291 38.6801C31.1396 38.7996 31.3148 38.9725 31.437 39.1814C31.5592 39.3903 31.6241 39.6277 31.6251 39.8697C31.6261 40.1117 31.5632 40.3497 31.4428 40.5596C31.3224 40.7695 31.1486 40.9439 30.9392 41.0652C30.7297 41.1864 30.492 41.2502 30.25 41.2501ZM30.25 37.1251C30.0024 37.1253 29.7559 37.1588 29.5173 37.225L31.625 28.2675V28.1876C31.6236 28.0053 31.6946 27.83 31.8225 27.7001C31.9504 27.5702 32.1246 27.4964 32.3069 27.495C32.4891 27.4936 32.6645 27.5646 32.7944 27.6925C32.9243 27.8204 32.9981 27.9946 32.9995 28.1769L32.4112 38.1776C32.1543 37.8497 31.8263 37.5846 31.4519 37.4023C31.0775 37.2199 30.6665 37.1252 30.25 37.1251ZM35.0625 41.2501C34.6999 41.2496 34.3521 41.1061 34.0948 40.8507C33.8374 40.5953 33.6912 40.2486 33.688 39.886L33.6984 39.7098C33.7385 39.3762 33.8994 39.0689 34.1508 38.8459C34.4021 38.6229 34.7265 38.4997 35.0625 38.4997C35.3985 38.4997 35.7229 38.6229 35.9742 38.8459C36.2256 39.0689 36.3865 39.3762 36.4266 39.7098L36.4369 39.886C36.4337 40.2486 36.2875 40.5952 36.0302 40.8507C35.7728 41.1061 35.4251 41.2496 35.0625 41.2501ZM37.7138 38.1776L37.1255 28.1769C37.1269 27.9946 37.2007 27.8204 37.3306 27.6925C37.3949 27.6292 37.4711 27.5791 37.5547 27.5453C37.6384 27.5114 37.7279 27.4943 37.8181 27.495C37.9084 27.4957 37.9976 27.5142 38.0807 27.5494C38.1638 27.5846 38.2392 27.6358 38.3025 27.7001C38.3658 27.7644 38.4159 27.8406 38.4497 27.9242C38.4836 28.0079 38.5007 28.0974 38.5 28.1876V28.2674L40.6077 37.225C40.0852 37.0799 39.5314 37.093 39.0164 37.2626C38.5013 37.4321 38.048 37.7506 37.7138 38.1776ZM39.875 41.2501C39.6329 41.2503 39.395 41.1866 39.1854 41.0654C38.9758 40.9441 38.8019 40.7697 38.6813 40.5597C38.5608 40.3497 38.4978 40.1116 38.4988 39.8695C38.4998 39.6274 38.5647 39.3898 38.687 39.1808C38.8092 38.9718 38.9845 38.7988 39.1951 38.6793C39.4057 38.5598 39.6441 38.498 39.8862 38.5002C40.1283 38.5024 40.3656 38.5684 40.574 38.6918C40.7824 38.8151 40.9545 38.9912 41.073 39.2024L41.2466 39.9407C41.2297 40.2932 41.0778 40.6258 40.8225 40.8695C40.5672 41.1133 40.228 41.2495 39.875 41.2501Z" fill="#131313"></path></svg> 