<?xml version="1.0" encoding="UTF-8"?> <svg xmlns="http://www.w3.org/2000/svg" width="60" height="60" viewBox="0 0 60 60" fill="none"><path d="M5.39062 45.1757H15.2344M19.3359 45.1757H54.6094M5.39062 40.0918H54.6094V49.5117H5.39062V40.0918Z" stroke="#131313" stroke-width="1.75781" stroke-miterlimit="10" stroke-linecap="round" stroke-linejoin="round"></path><path d="M43.9144 12.9593C44.2248 12.4338 44.3884 11.8346 44.3882 11.2242C44.3882 10.0398 43.7881 8.99555 42.8753 8.37891H39.0386C38.1258 8.99555 37.5257 10.0398 37.5257 11.2242C37.5255 11.8346 37.6891 12.4338 37.9995 12.9593M35.9765 21.007C35.9765 20.9678 35.9781 20.9289 35.9794 20.8898H35.332C34.0698 20.8898 33.0468 21.9129 33.0468 23.175C33.0468 24.4371 34.0698 25.4602 35.332 25.4602H36.2345M45.6794 25.4602H46.582C47.8441 25.4602 48.8671 24.4371 48.8671 23.175C48.8671 21.9129 47.8441 20.8898 46.582 20.8898H45.9345C45.9358 20.9289 45.9374 20.9678 45.9374 21.007M39.1405 22.5305V22.9992M42.7734 22.5305V22.9992M18.0468 26.3672H26.8359M21.5624 29.4141H26.8359M27.4218 22.0898H10.3193C10.1639 22.0898 10.0149 22.0281 9.90502 21.9182C9.79513 21.8083 9.7334 21.6593 9.7334 21.5039V17.5195C9.7334 17.3641 9.79513 17.2151 9.90502 17.1052C10.0149 16.9953 10.1639 16.9336 10.3193 16.9336H27.4218C27.5772 16.9336 27.7262 16.9953 27.8361 17.1052C27.946 17.2151 28.0077 17.3641 28.0077 17.5195V21.5039C28.0077 21.6593 27.946 21.8083 27.8361 21.9182C27.7262 22.0281 27.5772 22.0898 27.4218 22.0898Z" stroke="#4285B4" stroke-width="1.75781" stroke-miterlimit="10" stroke-linecap="round" stroke-linejoin="round"></path><path d="M47.7349 21.2042C47.9027 20.5964 47.9879 19.9687 47.9883 19.3381C47.9883 15.4549 44.8403 12.3069 40.957 12.3069C37.0738 12.3069 33.9258 15.4549 33.9258 19.3381C33.9258 19.9847 34.0155 20.6096 34.1791 21.2042" stroke="#4285B4" stroke-width="1.75781" stroke-miterlimit="10" stroke-linecap="round" stroke-linejoin="round"></path><path d="M40.957 28.8585C38.2064 28.8585 35.9766 26.6287 35.9766 23.8781V21.007C35.9766 19.0653 37.5505 17.4913 39.4922 17.4913H42.4219C44.3636 17.4913 45.9375 19.0653 45.9375 21.007V23.8781C45.9375 26.6287 43.7077 28.8585 40.957 28.8585Z" stroke="#4285B4" stroke-width="1.75781" stroke-miterlimit="10" stroke-linecap="round" stroke-linejoin="round"></path><path d="M38.3263 28.1055V30.6145C38.3263 30.7699 38.2646 30.9189 38.1547 31.0288C38.0448 31.1387 37.8958 31.2004 37.7404 31.2004H34.2196C32.0871 31.2004 30.3584 32.9291 30.3584 35.0616V36.8099H51.5574V35.0616C51.5574 32.9291 49.8286 31.2004 47.6962 31.2004H44.1754C44.02 31.2004 43.871 31.1387 43.7611 31.0288C43.6512 30.9189 43.5895 30.7699 43.5895 30.6145V28.1055" stroke="#4285B4" stroke-width="1.75781" stroke-miterlimit="10" stroke-linecap="round" stroke-linejoin="round"></path><path d="M12.0781 30.2344C13.3725 30.2344 14.4219 29.185 14.4219 27.8906C14.4219 26.5962 13.3725 25.5469 12.0781 25.5469C10.7837 25.5469 9.73438 26.5962 9.73438 27.8906C9.73438 29.185 10.7837 30.2344 12.0781 30.2344Z" stroke="#4285B4" stroke-width="1.75781" stroke-miterlimit="10" stroke-linecap="round" stroke-linejoin="round"></path><path d="M44.8828 5.09766H3.22266C1.9282 5.09766 0.878906 6.14695 0.878906 7.44141V37.7481C0.878906 39.0425 1.9282 40.0918 3.22266 40.0918H56.7773C58.0718 40.0918 59.1211 39.0425 59.1211 37.7481V7.44141C59.1211 6.14695 58.0718 5.09766 56.7773 5.09766H48.9844M57.3633 49.5117H2.63672C1.66594 49.5117 0.878906 50.2987 0.878906 51.2695V54.3164C0.878906 54.4718 0.940639 54.6208 1.05052 54.7307C1.16041 54.8406 1.30944 54.9023 1.46484 54.9023H58.5352C58.6906 54.9023 58.8396 54.8406 58.9495 54.7307C59.0594 54.6208 59.1211 54.4718 59.1211 54.3164V51.2695C59.1211 50.2987 58.3341 49.5117 57.3633 49.5117Z" stroke="#131313" stroke-width="1.75781" stroke-miterlimit="10" stroke-linecap="round" stroke-linejoin="round"></path><path d="M4.16016 16.8164V36.2247C4.16016 36.3801 4.22189 36.5291 4.33177 36.639C4.44166 36.7489 4.59069 36.8106 4.74609 36.8106H55.2539C55.4093 36.8106 55.5583 36.7489 55.6682 36.639C55.7781 36.5291 55.8398 36.3801 55.8398 36.2247V8.96484C55.8398 8.80944 55.7781 8.66041 55.6682 8.55052C55.5583 8.44064 55.4093 8.37891 55.2539 8.37891H12.5977M4.16016 16.8164V8.96484C4.16016 8.80944 4.22189 8.66041 4.33177 8.55052C4.44166 8.44064 4.59069 8.37891 4.74609 8.37891H12.5977M4.16016 16.8164L7.13402 13.8425M12.5977 8.37891L10.0343 10.9424" stroke="#131313" stroke-width="1.75781" stroke-miterlimit="10" stroke-linecap="round" stroke-linejoin="round"></path></svg> 