<?xml version="1.0" encoding="UTF-8"?> <svg xmlns="http://www.w3.org/2000/svg" width="60" height="60" viewBox="0 0 60 60" fill="none"><g clip-path="url(#clip0_424_10992)"><path d="M42.6731 51.9123V49.709H29.2605C29.2563 51.673 28.0958 53.3651 26.4238 54.1417C26.2179 54.2373 26.082 54.4391 26.082 54.6661V59.1194H40.9153C41.8861 59.1194 42.6731 58.3323 42.6731 57.3616V56.0139" stroke="#131313" stroke-width="1.75781" stroke-miterlimit="10" stroke-linecap="round" stroke-linejoin="round"></path><path d="M29.2612 49.709C29.2582 51.1379 28.6428 52.4222 27.6641 53.3154H34.4847C35.0819 53.3154 35.5996 52.9026 35.7327 52.3204L36.3291 49.709H29.2612Z" stroke="#131313" stroke-width="1.75781" stroke-miterlimit="10" stroke-linecap="round" stroke-linejoin="round"></path><path d="M51.593 0.87793H8.40848C4.74508 0.87793 1.76465 3.85824 1.76465 7.52176V43.066C1.76465 46.7294 4.74496 49.7098 8.40848 49.7098H13.6127L13.6124 49.6991V35.7623C13.6124 34.6597 14.5246 33.7702 15.6354 33.8074C16.698 33.8429 17.5246 34.7505 17.5246 35.8136V42.7379C17.5246 41.6575 18.4004 40.7818 19.4807 40.7818C20.5611 40.7818 21.4368 41.6575 21.4368 42.7379C21.4368 41.6575 22.3125 40.7818 23.3929 40.7818C24.4732 40.7818 25.349 41.6575 25.349 42.7379C25.349 41.6353 26.2612 40.7458 27.372 40.783C28.4345 40.8185 29.2612 41.7261 29.2612 42.7892V49.6992L29.2609 49.71H51.593C55.2564 49.71 58.2368 46.7296 58.2368 43.0661V7.52176C58.2368 3.85824 55.2564 0.87793 51.593 0.87793Z" stroke="#131313" stroke-width="1.75781" stroke-miterlimit="10" stroke-linecap="round" stroke-linejoin="round"></path><path d="M54.9143 17.811V7.52125C54.9143 5.68657 53.4271 4.19934 51.5924 4.19934H8.40785C6.57316 4.19934 5.08594 5.68657 5.08594 7.52125V43.0655C5.08594 44.9002 6.57316 46.3874 8.40785 46.3874H13.6118V35.7618C13.6118 34.6592 14.524 33.7697 15.6348 33.8069C16.6973 33.8424 17.524 34.75 17.524 35.8131V42.7374C17.524 41.657 18.3997 40.7813 19.4801 40.7813C20.5604 40.7813 21.4362 41.657 21.4362 42.7374C21.4362 41.657 22.3119 40.7813 23.3923 40.7813C24.4726 40.7813 25.3484 41.657 25.3484 42.7374C25.3484 41.6348 26.2605 40.7453 27.3714 40.7825C28.4339 40.818 29.2605 41.7256 29.2605 42.7887V46.3875H51.5924C53.4271 46.3875 54.9143 44.9003 54.9143 43.0656V21.9126" stroke="#131313" stroke-width="1.75781" stroke-miterlimit="10" stroke-linecap="round" stroke-linejoin="round"></path><path d="M20.5902 21.7388H10.7988M20.5902 21.7388L20.5903 13.3569C20.5903 13.2728 20.5738 13.1896 20.5417 13.1119C20.5095 13.0342 20.4624 12.9636 20.4029 12.9042C20.3435 12.8448 20.2729 12.7976 20.1952 12.7655C20.1175 12.7333 20.0343 12.7168 19.9502 12.7168H11.4389C11.3548 12.7168 11.2716 12.7333 11.1939 12.7655C11.1163 12.7976 11.0457 12.8448 10.9862 12.9042C10.9268 12.9636 10.8796 13.0342 10.8475 13.1119C10.8153 13.1896 10.7988 13.2728 10.7988 13.3569V21.7388M20.5902 21.7388L20.5903 24.6818C20.5903 24.7658 20.5738 24.8491 20.5417 24.9267C20.5095 25.0044 20.4624 25.075 20.4029 25.1344C20.3435 25.1939 20.2729 25.241 20.1952 25.2732C20.1175 25.3053 20.0343 25.3219 19.9502 25.3218H11.4389C11.3548 25.3219 11.2716 25.3053 11.1939 25.2732C11.1163 25.241 11.0457 25.1939 10.9862 25.1344C10.9268 25.075 10.8796 25.0044 10.8475 24.9267C10.8153 24.8491 10.7988 24.7658 10.7988 24.6818V21.7388M34.8959 21.7388H25.1045V13.3569C25.1045 13.2728 25.121 13.1896 25.1532 13.1119C25.1853 13.0342 25.2325 12.9636 25.2919 12.9042C25.3513 12.8448 25.4219 12.7976 25.4996 12.7655C25.5773 12.7333 25.6605 12.7168 25.7446 12.7168H34.2559C34.34 12.7168 34.4232 12.7333 34.5009 12.7655C34.5786 12.7976 34.6491 12.8448 34.7086 12.9042C34.768 12.9636 34.8152 13.0342 34.8473 13.1119C34.8795 13.1896 34.896 13.2728 34.896 13.3569L34.8959 21.7388ZM49.2014 21.7388H39.41V13.3569C39.41 13.2728 39.4265 13.1896 39.4587 13.1119C39.4909 13.0342 39.538 12.9636 39.5974 12.9042C39.6569 12.8448 39.7275 12.7976 39.8051 12.7655C39.8828 12.7333 39.9661 12.7168 40.0501 12.7168H48.5615C48.6455 12.7168 48.7288 12.7333 48.8064 12.7655C48.8841 12.7976 48.9547 12.8448 49.0141 12.9042C49.0736 12.9636 49.1207 13.0342 49.1529 13.1119C49.185 13.1896 49.2016 13.2728 49.2015 13.3569L49.2014 21.7388Z" stroke="#4285B4" stroke-width="1.75781" stroke-miterlimit="10" stroke-linecap="round" stroke-linejoin="round"></path><path d="M34.8959 21.7388H25.1045M34.8959 21.7388L34.896 13.3569C34.896 13.2728 34.8795 13.1896 34.8473 13.1119C34.8152 13.0342 34.768 12.9636 34.7086 12.9042C34.6491 12.8448 34.5786 12.7976 34.5009 12.7655C34.4232 12.7333 34.34 12.7168 34.2559 12.7168H25.7446C25.6605 12.7168 25.5773 12.7333 25.4996 12.7655C25.4219 12.7976 25.3513 12.8448 25.2919 12.9042C25.2325 12.9636 25.1853 13.0342 25.1532 13.1119C25.121 13.1896 25.1045 13.2728 25.1045 13.3569V21.7388M34.8959 21.7388L34.896 24.6818C34.896 24.7658 34.8795 24.8491 34.8473 24.9267C34.8152 25.0044 34.768 25.075 34.7086 25.1344C34.6491 25.1939 34.5786 25.241 34.5009 25.2732C34.4232 25.3053 34.34 25.3219 34.2559 25.3218H25.7446C25.6605 25.3219 25.5773 25.3053 25.4996 25.2732C25.4219 25.241 25.3513 25.1939 25.2919 25.1344C25.2325 25.075 25.1853 25.0044 25.1532 24.9267C25.121 24.8491 25.1045 24.7658 25.1045 24.6818V21.7388M49.2014 21.7388H39.41M49.2014 21.7388L49.2015 13.3569C49.2016 13.2728 49.185 13.1896 49.1529 13.1119C49.1207 13.0342 49.0736 12.9636 49.0141 12.9042C48.9547 12.8448 48.8841 12.7976 48.8064 12.7655C48.7288 12.7333 48.6455 12.7168 48.5615 12.7168H40.0501C39.9661 12.7168 39.8828 12.7333 39.8051 12.7655C39.7275 12.7976 39.6569 12.8448 39.5974 12.9042C39.538 12.9636 39.4909 13.0342 39.4587 13.1119C39.4265 13.1896 39.41 13.2728 39.41 13.3569V21.7388M49.2014 21.7388L49.2015 24.6818C49.2016 24.7658 49.185 24.8491 49.1529 24.9267C49.1207 25.0044 49.0736 25.075 49.0141 25.1344C48.9547 25.1939 48.8841 25.241 48.8064 25.2732C48.7288 25.3053 48.6455 25.3219 48.5615 25.3218H40.0501C39.9661 25.3219 39.8828 25.3053 39.8051 25.2732C39.7275 25.241 39.6569 25.1939 39.5974 25.1344C39.538 25.075 39.4909 25.0044 39.4587 24.9267C39.4265 24.8491 39.41 24.7658 39.41 24.6818V21.7388M20.5902 21.7388H10.7988V13.3569C10.7988 13.2728 10.8153 13.1896 10.8475 13.1119C10.8796 13.0342 10.9268 12.9636 10.9862 12.9042C11.0457 12.8448 11.1163 12.7976 11.1939 12.7655C11.2716 12.7333 11.3548 12.7168 11.4389 12.7168H19.9502C20.0343 12.7168 20.1175 12.7333 20.1952 12.7655C20.2729 12.7976 20.3435 12.8448 20.4029 12.9042C20.4624 12.9636 20.5095 13.0342 20.5417 13.1119C20.5738 13.1896 20.5903 13.2728 20.5903 13.3569L20.5902 21.7388ZM17.524 41.5823H17.9038C18.2598 41.0973 18.8323 40.7811 19.4801 40.7811C19.8671 40.7805 20.2456 40.8954 20.567 41.1111C20.5816 41.0573 20.5902 41.0008 20.5902 40.9423V37.9994H17.524V41.5823ZM13.6118 37.9994H10.7988V40.9423C10.7988 41.0264 10.8153 41.1097 10.8475 41.1873C10.8796 41.265 10.9268 41.3356 10.9862 41.395C11.0457 41.4545 11.1163 41.5016 11.1939 41.5338C11.2716 41.5659 11.3548 41.5825 11.4389 41.5824H13.6118V37.9994ZM34.8959 37.9994H25.1045V29.6175C25.1045 29.5334 25.121 29.4501 25.1532 29.3725C25.1853 29.2948 25.2325 29.2242 25.2919 29.1648C25.3513 29.1053 25.4219 29.0582 25.4996 29.026C25.5773 28.9939 25.6605 28.9774 25.7446 28.9774H34.2559C34.34 28.9774 34.4232 28.9939 34.5009 29.026C34.5786 29.0582 34.6491 29.1053 34.7086 29.1648C34.768 29.2242 34.8152 29.2948 34.8473 29.3725C34.8795 29.4501 34.896 29.5334 34.896 29.6175L34.8959 37.9994Z" stroke="#4285B4" stroke-width="1.75781" stroke-miterlimit="10" stroke-linecap="round" stroke-linejoin="round"></path><path d="M39.411 40.9425C39.411 41.0266 39.4275 41.1098 39.4597 41.1875C39.4918 41.2652 39.539 41.3357 39.5984 41.3952C39.6579 41.4546 39.7284 41.5018 39.8061 41.5339C39.8838 41.5661 39.967 41.5826 40.0511 41.5826H48.5624C48.6465 41.5826 48.7297 41.5661 48.8074 41.5339C48.8851 41.5018 48.9557 41.4546 49.0151 41.3952C49.0745 41.3357 49.1217 41.2652 49.1538 41.1875C49.186 41.1098 49.2025 41.0266 49.2025 40.9425M34.8968 37.9996H25.1055V29.6176C25.1054 29.5336 25.122 29.4503 25.1541 29.3726C25.1863 29.295 25.2334 29.2244 25.2929 29.1649C25.3523 29.1055 25.4229 29.0584 25.5006 29.0262C25.5782 28.994 25.6615 28.9775 25.7455 28.9775H34.2569C34.3409 28.9775 34.4242 28.994 34.5019 29.0262C34.5795 29.0584 34.6501 29.1055 34.7095 29.1649C34.769 29.2244 34.8161 29.295 34.8483 29.3726C34.8804 29.4503 34.897 29.5336 34.897 29.6176L34.8968 37.9996ZM49.2024 37.9996H39.411V29.6176C39.411 29.5336 39.4275 29.4503 39.4597 29.3726C39.4918 29.295 39.539 29.2244 39.5984 29.1649C39.6579 29.1055 39.7284 29.0584 39.8061 29.0262C39.8838 28.994 39.967 28.9775 40.0511 28.9775H48.5624C48.6465 28.9775 48.7297 28.994 48.8074 29.0262C48.8851 29.0584 48.9557 29.1055 49.0151 29.1649C49.0745 29.2244 49.1217 29.295 49.1538 29.3726C49.186 29.4503 49.2025 29.5336 49.2025 29.6176L49.2024 37.9996Z" stroke="#4285B4" stroke-width="1.75781" stroke-miterlimit="10" stroke-linecap="round" stroke-linejoin="round"></path><path d="M20.5903 37.9996V35.6236M20.5903 31.522V29.6176C20.5903 29.5336 20.5738 29.4503 20.5417 29.3726C20.5095 29.295 20.4623 29.2244 20.4029 29.1649C20.3435 29.1055 20.2729 29.0584 20.1952 29.0262C20.1175 28.994 20.0343 28.9775 19.9502 28.9775H11.4389C11.3548 28.9775 11.2716 28.994 11.1939 29.0262C11.1163 29.0584 11.0457 29.1055 10.9862 29.1649C10.9268 29.2244 10.8796 29.295 10.8475 29.3726C10.8153 29.4503 10.7988 29.5336 10.7988 29.6176V37.9996M25.1045 37.9996V40.9425C25.1046 41.1094 25.1699 41.2696 25.2865 41.3891C25.4031 41.5085 25.5617 41.5776 25.7285 41.5818C26.0967 41.0804 26.6967 40.7599 27.3715 40.7824C27.9865 40.8029 28.5211 41.1166 28.8634 41.5826H34.2558C34.3398 41.5826 34.4231 41.5661 34.5008 41.5339C34.5784 41.5018 34.649 41.4546 34.7085 41.3952C34.7679 41.3357 34.815 41.2652 34.8472 41.1875C34.8794 41.1098 34.8959 41.0266 34.8959 40.9425V37.9996H25.1045ZM49.2015 37.9996H39.4102V29.6176C39.4101 29.5336 39.4267 29.4503 39.4588 29.3726C39.491 29.295 39.5381 29.2244 39.5976 29.1649C39.657 29.1055 39.7276 29.0584 39.8053 29.0262C39.8829 28.994 39.9662 28.9775 40.0502 28.9775H48.5616C48.6456 28.9775 48.7289 28.994 48.8065 29.0262C48.8842 29.0584 48.9548 29.1055 49.0142 29.1649C49.0737 29.2244 49.1208 29.295 49.153 29.3726C49.1851 29.4503 49.2017 29.5336 49.2016 29.6176L49.2015 37.9996Z" stroke="#4285B4" stroke-width="1.75781" stroke-miterlimit="10" stroke-linecap="round" stroke-linejoin="round"></path><path d="M46.0016 8.36523H49.2018M27.3719 40.7834C26.2611 40.7464 25.3489 41.6358 25.3489 42.7383C25.3489 41.658 24.4731 40.7822 23.3928 40.7822C22.3124 40.7822 21.4367 41.658 21.4367 42.7383C21.4367 41.658 20.5609 40.7822 19.4806 40.7822C18.4002 40.7822 17.5245 41.658 17.5245 42.7383V35.8141C17.5245 34.7509 16.6979 33.8433 15.6353 33.8078C14.5245 33.7708 13.6123 34.6602 13.6123 35.7627V49.6995C13.6123 51.6681 14.7741 53.3649 16.4493 54.143C16.6552 54.2386 16.791 54.4404 16.791 54.6674V57.3628C16.791 58.3336 17.578 59.1207 18.5488 59.1207H26.0825V54.6674C26.0825 54.4404 26.2183 54.2386 26.4242 54.143C28.0994 53.3649 29.2612 51.6681 29.2612 49.6995V42.7895C29.2609 41.7265 28.4344 40.8188 27.3719 40.7834Z" stroke="#131313" stroke-width="1.75781" stroke-miterlimit="10" stroke-linecap="round" stroke-linejoin="round"></path></g><defs><clipPath id="clip0_424_10992"><rect width="60" height="60" fill="white"></rect></clipPath></defs></svg> 