<?xml version="1.0" encoding="UTF-8"?> <svg xmlns="http://www.w3.org/2000/svg" width="60" height="60" viewBox="0 0 60 60" fill="none"><path d="M35.4618 53.1243L36.3608 53.7237C41.6386 57.2423 47.8399 59.1199 54.183 59.1198H58.5367C58.6136 59.1198 58.6898 59.1047 58.7609 59.0752C58.832 59.0458 58.8966 59.0026 58.951 58.9482C59.0055 58.8938 59.0486 58.8292 59.0781 58.7581C59.1075 58.687 59.1226 58.6108 59.1226 58.5338V44.131H35.4618M35.4618 53.1243V44.131M35.4618 53.1243L19.0811 53.1244V44.1311L35.4618 44.131" stroke="#131313" stroke-width="1.75781" stroke-miterlimit="10" stroke-linecap="round" stroke-linejoin="round"></path><path d="M17.7227 44.1309C15.4574 44.1309 13.6211 45.9672 13.6211 48.2324V51.9523C13.6211 52.5995 14.1457 53.1242 14.793 53.1242H19.0813V44.1309H17.7227Z" stroke="#131313" stroke-width="1.75781" stroke-miterlimit="10" stroke-linecap="round" stroke-linejoin="round"></path><path d="M27.271 53.1242C29.7544 53.1242 31.7676 51.111 31.7676 48.6276C31.7676 46.1442 29.7544 44.131 27.271 44.131C24.7876 44.131 22.7744 46.1442 22.7744 48.6276C22.7744 51.111 24.7876 53.1242 27.271 53.1242Z" stroke="#131313" stroke-width="1.75781" stroke-miterlimit="10" stroke-linecap="round" stroke-linejoin="round"></path><path d="M39.4053 55.3893V44.2482M43.3486 47.7364V44.2482M43.3486 57.1178V51.8379M47.2921 58.2556V44.2482M51.2366 58.8686V44.2482M55.18 59.0032V44.2482" stroke="#131313" stroke-width="1.75781" stroke-miterlimit="10" stroke-linecap="round" stroke-linejoin="round"></path><path d="M8.16092 28.1788C8.16092 24.158 11.4204 20.8986 15.4412 20.8986C19.462 20.8986 22.7215 24.158 22.7215 28.1788C22.7215 32.1997 19.462 35.4591 15.4412 35.4591C14.1151 35.4591 12.8719 35.1046 11.801 34.4852M8.16092 28.1788L6.87402 25.9496M8.16092 28.1788L10.3901 26.8917" stroke="#4285B4" stroke-width="1.75781" stroke-miterlimit="10" stroke-linecap="round" stroke-linejoin="round"></path><path d="M23.4609 18.135L26.0871 10.1615C27.9129 4.6209 33.0867 0.87793 38.9203 0.87793H58.5375C58.8609 0.87793 59.1234 1.13926 59.1234 1.46387V58.5342C59.1234 58.8576 58.8609 59.1201 58.5375 59.1201H8.74805C8.42344 59.1201 8.16211 58.8576 8.16211 58.5342V52.642M8.16211 49.2201V44.3346C8.16211 42.6037 8.4668 40.9127 9.04336 39.3283" stroke="#131313" stroke-width="1.75781" stroke-miterlimit="10" stroke-linecap="round" stroke-linejoin="round"></path><path d="M59.0049 4.51759H38.9191C36.8407 4.51478 34.8147 5.16929 33.1308 6.38752C31.4469 7.60574 30.1914 9.32526 29.5438 11.3002L26.2666 21.2486M51.3928 28.1784H59.0049M28.2982 28.1784H47.2912" stroke="#131313" stroke-width="1.75781" stroke-miterlimit="10" stroke-linecap="round" stroke-linejoin="round"></path><path d="M10.1336 16.593C11.7493 15.8517 13.5467 15.4385 15.4407 15.4385C22.4771 15.4385 28.1812 21.1426 28.1812 28.179C28.1812 35.2154 22.4771 40.9195 15.4407 40.9195C8.4043 40.9195 2.7002 35.2154 2.7002 28.179C2.7002 24.5262 4.23746 21.2325 6.70016 18.9095" stroke="#4285B4" stroke-width="1.75781" stroke-miterlimit="10" stroke-linecap="round" stroke-linejoin="round"></path><path d="M5.70811 55.3294C6.78167 53.6848 8.18519 52.281 9.82971 51.2073C9.8759 51.1773 9.91387 51.1363 9.94016 51.0879C9.96646 51.0396 9.98026 50.9854 9.98029 50.9304C9.98032 50.8753 9.9666 50.8211 9.94036 50.7728C9.91413 50.7244 9.87621 50.6833 9.83007 50.6533C8.1863 49.5777 6.78289 48.1736 5.70811 46.5292C5.67811 46.4831 5.63708 46.4453 5.58874 46.419C5.54039 46.3928 5.48627 46.379 5.43126 46.379C5.37626 46.379 5.32212 46.3927 5.27375 46.4189C5.22539 46.4451 5.18432 46.4829 5.15429 46.529C4.07836 48.1732 2.67427 49.5773 1.03011 50.6533C0.983959 50.6833 0.946044 50.7244 0.919808 50.7728C0.893572 50.8211 0.879848 50.8753 0.879883 50.9304C0.879918 50.9854 0.893711 51.0396 0.920008 51.0879C0.946305 51.1363 0.984273 51.1773 1.03046 51.2073C2.67366 52.2789 4.07921 53.6861 5.15429 55.3297C5.18429 55.3758 5.22534 55.4137 5.27371 55.4399C5.32208 55.4662 5.37624 55.4799 5.43126 55.4799C5.48629 55.4798 5.54044 55.4661 5.58879 55.4398C5.63714 55.4135 5.67815 55.3756 5.70811 55.3294Z" stroke="#4285B4" stroke-width="1.75781" stroke-miterlimit="10" stroke-linecap="round" stroke-linejoin="round"></path><path d="M33.7422 40.8028C34.5741 39.5285 35.6616 38.4408 36.9358 37.6087C36.9715 37.5855 37.001 37.5537 37.0213 37.5162C37.0417 37.4788 37.0524 37.4368 37.0524 37.3941C37.0524 37.3515 37.0418 37.3095 37.0215 37.272C37.0011 37.2345 36.9718 37.2027 36.936 37.1794C35.6622 36.3461 34.5747 35.2581 33.7421 33.9839C33.7188 33.9481 33.6871 33.9187 33.6496 33.8984C33.6121 33.878 33.5702 33.8673 33.5276 33.8673C33.4849 33.8673 33.443 33.8779 33.4055 33.8982C33.368 33.9185 33.3362 33.9479 33.3129 33.9836C32.4792 35.2576 31.3913 36.3456 30.1173 37.1793C30.0816 37.2026 30.0522 37.2344 30.0319 37.2719C30.0116 37.3094 30.001 37.3514 30.001 37.394C30.001 37.4367 30.0117 37.4787 30.0321 37.5161C30.0525 37.5536 30.0819 37.5854 30.1177 37.6086C31.3921 38.4411 32.4801 39.5288 33.313 40.8029C33.3363 40.8386 33.3681 40.868 33.4056 40.8883C33.443 40.9086 33.485 40.9193 33.5276 40.9192C33.5703 40.9192 33.6122 40.9086 33.6497 40.8882C33.6872 40.8679 33.719 40.8385 33.7422 40.8028Z" stroke="#4285B4" stroke-width="1.75781" stroke-miterlimit="10" stroke-linecap="round" stroke-linejoin="round"></path></svg> 