<?xml version="1.0" encoding="UTF-8"?> <svg xmlns="http://www.w3.org/2000/svg" width="60" height="60" viewBox="0 0 60 60" fill="none"><path d="M58.125 44.0625V4.6875C58.1241 3.94186 57.8275 3.22703 57.3002 2.69979C56.773 2.17255 56.0581 1.87593 55.3125 1.875H4.6875C3.94186 1.87593 3.22703 2.17255 2.69979 2.69979C2.17255 3.22703 1.87593 3.94186 1.875 4.6875V44.0625C1.87593 44.8081 2.17255 45.523 2.69979 46.0502C3.22703 46.5775 3.94186 46.8741 4.6875 46.875H23.2683L21.7058 56.25H17.8125C17.5639 56.25 17.3254 56.3488 17.1496 56.5246C16.9738 56.7004 16.875 56.9389 16.875 57.1875C16.875 57.4361 16.9738 57.6746 17.1496 57.8504C17.3254 58.0262 17.5639 58.125 17.8125 58.125H42.1875C42.4361 58.125 42.6746 58.0262 42.8504 57.8504C43.0262 57.6746 43.125 57.4361 43.125 57.1875C43.125 56.9389 43.0262 56.7004 42.8504 56.5246C42.6746 56.3488 42.4361 56.25 42.1875 56.25H38.2942L36.7317 46.875H44.7723L52.9273 55.03C53.4547 55.5574 54.1701 55.8537 54.916 55.8537C55.6619 55.8537 56.3773 55.5574 56.9047 55.03C57.4313 54.5021 57.727 53.7869 57.727 53.0412C57.727 52.2956 57.4313 51.5804 56.9047 51.0525L52.7272 46.875H55.3125C56.0581 46.8741 56.773 46.5775 57.3002 46.0502C57.8275 45.523 58.1241 44.8081 58.125 44.0625ZM37.6806 37.1316L39.0063 35.8057L42.9837 39.783L41.6578 41.1094L37.6806 37.1316ZM36.0675 36.093L33.5067 35.4529C33.0031 35.3285 32.544 35.0666 32.1805 34.6965C31.817 34.3264 31.5636 33.8626 31.4483 33.3568L30.3132 28.4382L35.2318 29.5733C35.7376 29.6886 36.2014 29.942 36.5715 30.3055C36.9416 30.669 37.2035 31.1281 37.3279 31.6317L37.968 34.1925L36.0675 36.093ZM39.8527 34.0007L39.1467 31.1764C38.9392 30.3372 38.5027 29.572 37.8859 28.9663C37.269 28.3606 36.496 27.9381 35.6531 27.7459L29.2734 26.274C29.1185 26.2383 28.957 26.2425 28.8042 26.2863C28.6513 26.3302 28.5122 26.4122 28.3997 26.5246C28.2873 26.637 28.2053 26.7762 28.1615 26.9291C28.1176 27.0819 28.1134 27.2434 28.1491 27.3983L29.6215 33.7784C29.7765 34.4515 30.0785 35.0821 30.5057 35.625H3.75V11.25H56.25V35.625H41.4772L39.8527 34.0007ZM4.6875 3.75H55.3125C55.561 3.75031 55.7993 3.84918 55.9751 4.02493C56.1508 4.20068 56.2497 4.43895 56.25 4.6875V9.375H3.75V4.6875C3.75031 4.43895 3.84918 4.20068 4.02493 4.02493C4.20068 3.84918 4.43895 3.75031 4.6875 3.75ZM36.3933 56.25H23.6067L25.1692 46.875H34.8308L36.3933 56.25ZM4.6875 45C4.43895 44.9997 4.20068 44.9008 4.02493 44.7251C3.84918 44.5493 3.75031 44.311 3.75 44.0625V37.5H33.9642L35.8751 37.9777L42.8973 45H4.6875ZM55.5789 53.7041C55.4918 53.7912 55.3885 53.8602 55.2747 53.9073C55.161 53.9545 55.0391 53.9787 54.9159 53.9787C54.7928 53.9787 54.6709 53.9545 54.5572 53.9073C54.4434 53.8602 54.3401 53.7912 54.253 53.7041L42.9837 42.4348L44.3095 41.1094L55.5789 52.3787C55.7543 52.5547 55.8528 52.793 55.8528 53.0414C55.8528 53.2898 55.7543 53.5282 55.5789 53.7041ZM43.3522 37.5H56.25V44.0625C56.2497 44.311 56.1508 44.5493 55.9751 44.7251C55.7993 44.9008 55.561 44.9997 55.3125 45H50.8522L43.3522 37.5Z" fill="#131313"></path><path d="M31.875 39.375H28.125C27.8764 39.375 27.6379 39.4738 27.4621 39.6496C27.2863 39.8254 27.1875 40.0639 27.1875 40.3125C27.1875 40.5611 27.2863 40.7996 27.4621 40.9754C27.6379 41.1512 27.8764 41.25 28.125 41.25H31.875C32.1236 41.25 32.3621 41.1512 32.5379 40.9754C32.7137 40.7996 32.8125 40.5611 32.8125 40.3125C32.8125 40.0639 32.7137 39.8254 32.5379 39.6496C32.3621 39.4738 32.1236 39.375 31.875 39.375Z" fill="#131313"></path><path d="M6.5625 7.5C7.08027 7.5 7.5 7.08027 7.5 6.5625C7.5 6.04473 7.08027 5.625 6.5625 5.625C6.04473 5.625 5.625 6.04473 5.625 6.5625C5.625 7.08027 6.04473 7.5 6.5625 7.5Z" fill="#131313"></path><path d="M10.3125 7.5C10.8303 7.5 11.25 7.08027 11.25 6.5625C11.25 6.04473 10.8303 5.625 10.3125 5.625C9.79473 5.625 9.375 6.04473 9.375 6.5625C9.375 7.08027 9.79473 7.5 10.3125 7.5Z" fill="#131313"></path><path d="M14.0625 7.5C14.5803 7.5 15 7.08027 15 6.5625C15 6.04473 14.5803 5.625 14.0625 5.625C13.5447 5.625 13.125 6.04473 13.125 6.5625C13.125 7.08027 13.5447 7.5 14.0625 7.5Z" fill="#131313"></path><path d="M12.1875 15H14.0625C14.3111 15 14.5496 14.9012 14.7254 14.7254C14.9012 14.5496 15 14.3111 15 14.0625C15 13.8139 14.9012 13.5754 14.7254 13.3996C14.5496 13.2238 14.3111 13.125 14.0625 13.125H12.1875C11.9389 13.125 11.7004 13.2238 11.5246 13.3996C11.3488 13.5754 11.25 13.8139 11.25 14.0625C11.25 14.3111 11.3488 14.5496 11.5246 14.7254C11.7004 14.9012 11.9389 15 12.1875 15ZM17.8125 15H19.6875C19.9361 15 20.1746 14.9012 20.3504 14.7254C20.5262 14.5496 20.625 14.3111 20.625 14.0625C20.625 13.8139 20.5262 13.5754 20.3504 13.3996C20.1746 13.2238 19.9361 13.125 19.6875 13.125H17.8125C17.5639 13.125 17.3254 13.2238 17.1496 13.3996C16.9738 13.5754 16.875 13.8139 16.875 14.0625C16.875 14.3111 16.9738 14.5496 17.1496 14.7254C17.3254 14.9012 17.5639 15 17.8125 15ZM8.4375 31.875H7.5V30.9375C7.5 30.6889 7.40123 30.4504 7.22541 30.2746C7.0496 30.0988 6.81114 30 6.5625 30C6.31386 30 6.0754 30.0988 5.89959 30.2746C5.72377 30.4504 5.625 30.6889 5.625 30.9375V32.8125C5.625 33.0611 5.72377 33.2996 5.89959 33.4754C6.0754 33.6512 6.31386 33.75 6.5625 33.75H8.4375C8.68614 33.75 8.9246 33.6512 9.10041 33.4754C9.27623 33.2996 9.375 33.0611 9.375 32.8125C9.375 32.5639 9.27623 32.3254 9.10041 32.1496C8.9246 31.9738 8.68614 31.875 8.4375 31.875ZM14.0625 31.875H12.1875C11.9389 31.875 11.7004 31.9738 11.5246 32.1496C11.3488 32.3254 11.25 32.5639 11.25 32.8125C11.25 33.0611 11.3488 33.2996 11.5246 33.4754C11.7004 33.6512 11.9389 33.75 12.1875 33.75H14.0625C14.3111 33.75 14.5496 33.6512 14.7254 33.4754C14.9012 33.2996 15 33.0611 15 32.8125C15 32.5639 14.9012 32.3254 14.7254 32.1496C14.5496 31.9738 14.3111 31.875 14.0625 31.875ZM19.6875 31.875H17.8125C17.5639 31.875 17.3254 31.9738 17.1496 32.1496C16.9738 32.3254 16.875 32.5639 16.875 32.8125C16.875 33.0611 16.9738 33.2996 17.1496 33.4754C17.3254 33.6512 17.5639 33.75 17.8125 33.75H19.6875C19.9361 33.75 20.1746 33.6512 20.3504 33.4754C20.5262 33.2996 20.625 33.0611 20.625 32.8125C20.625 32.5639 20.5262 32.3254 20.3504 32.1496C20.1746 31.9738 19.9361 31.875 19.6875 31.875ZM25.3125 13.125H23.4375C23.1889 13.125 22.9504 13.2238 22.7746 13.3996C22.5988 13.5754 22.5 13.8139 22.5 14.0625C22.5 14.3111 22.5988 14.5496 22.7746 14.7254C22.9504 14.9012 23.1889 15 23.4375 15H24.375V15.9375C24.375 16.1861 24.4738 16.4246 24.6496 16.6004C24.8254 16.7762 25.0639 16.875 25.3125 16.875C25.5611 16.875 25.7996 16.7762 25.9754 16.6004C26.1512 16.4246 26.25 16.1861 26.25 15.9375V14.0625C26.25 13.8139 26.1512 13.5754 25.9754 13.3996C25.7996 13.2238 25.5611 13.125 25.3125 13.125ZM25.3125 18.75C25.0639 18.75 24.8254 18.8488 24.6496 19.0246C24.4738 19.2004 24.375 19.4389 24.375 19.6875V21.5625C24.375 21.8111 24.4738 22.0496 24.6496 22.2254C24.8254 22.4012 25.0639 22.5 25.3125 22.5C25.5611 22.5 25.7996 22.4012 25.9754 22.2254C26.1512 22.0496 26.25 21.8111 26.25 21.5625V19.6875C26.25 19.4389 26.1512 19.2004 25.9754 19.0246C25.7996 18.8488 25.5611 18.75 25.3125 18.75ZM25.3125 24.375C25.0639 24.375 24.8254 24.4738 24.6496 24.6496C24.4738 24.8254 24.375 25.0639 24.375 25.3125V27.1875C24.375 27.4361 24.4738 27.6746 24.6496 27.8504C24.8254 28.0262 25.0639 28.125 25.3125 28.125C25.5611 28.125 25.7996 28.0262 25.9754 27.8504C26.1512 27.6746 26.25 27.4361 26.25 27.1875V25.3125C26.25 25.0639 26.1512 24.8254 25.9754 24.6496C25.7996 24.4738 25.5611 24.375 25.3125 24.375ZM25.3125 30C25.0639 30 24.8254 30.0988 24.6496 30.2746C24.4738 30.4504 24.375 30.6889 24.375 30.9375V31.875H23.4375C23.1889 31.875 22.9504 31.9738 22.7746 32.1496C22.5988 32.3254 22.5 32.5639 22.5 32.8125C22.5 33.0611 22.5988 33.2996 22.7746 33.4754C22.9504 33.6512 23.1889 33.75 23.4375 33.75H25.3125C25.5611 33.75 25.7996 33.6512 25.9754 33.4754C26.1512 33.2996 26.25 33.0611 26.25 32.8125V30.9375C26.25 30.6889 26.1512 30.4504 25.9754 30.2746C25.7996 30.0988 25.5611 30 25.3125 30ZM6.5625 16.875C6.81114 16.875 7.0496 16.7762 7.22541 16.6004C7.40123 16.4246 7.5 16.1861 7.5 15.9375V15H8.4375C8.68614 15 8.9246 14.9012 9.10041 14.7254C9.27623 14.5496 9.375 14.3111 9.375 14.0625C9.375 13.8139 9.27623 13.5754 9.10041 13.3996C8.9246 13.2238 8.68614 13.125 8.4375 13.125H6.5625C6.31386 13.125 6.0754 13.2238 5.89959 13.3996C5.72377 13.5754 5.625 13.8139 5.625 14.0625V15.9375C5.625 16.1861 5.72377 16.4246 5.89959 16.6004C6.0754 16.7762 6.31386 16.875 6.5625 16.875ZM6.5625 22.5C6.81114 22.5 7.0496 22.4012 7.22541 22.2254C7.40123 22.0496 7.5 21.8111 7.5 21.5625V19.6875C7.5 19.4389 7.40123 19.2004 7.22541 19.0246C7.0496 18.8488 6.81114 18.75 6.5625 18.75C6.31386 18.75 6.0754 18.8488 5.89959 19.0246C5.72377 19.2004 5.625 19.4389 5.625 19.6875V21.5625C5.625 21.8111 5.72377 22.0496 5.89959 22.2254C6.0754 22.4012 6.31386 22.5 6.5625 22.5ZM6.5625 28.125C6.81114 28.125 7.0496 28.0262 7.22541 27.8504C7.40123 27.6746 7.5 27.4361 7.5 27.1875V25.3125C7.5 25.0639 7.40123 24.8254 7.22541 24.6496C7.0496 24.4738 6.81114 24.375 6.5625 24.375C6.31386 24.375 6.0754 24.4738 5.89959 24.6496C5.72377 24.8254 5.625 25.0639 5.625 25.3125V27.1875C5.625 27.4361 5.72377 27.6746 5.89959 27.8504C6.0754 28.0262 6.31386 28.125 6.5625 28.125ZM34.6875 22.5H29.0625C28.8139 22.5 28.5754 22.5988 28.3996 22.7746C28.2238 22.9504 28.125 23.1889 28.125 23.4375C28.125 23.6861 28.2238 23.9246 28.3996 24.1004C28.5754 24.2762 28.8139 24.375 29.0625 24.375H34.6875C34.9361 24.375 35.1746 24.2762 35.3504 24.1004C35.5262 23.9246 35.625 23.6861 35.625 23.4375C35.625 23.1889 35.5262 22.9504 35.3504 22.7746C35.1746 22.5988 34.9361 22.5 34.6875 22.5ZM53.4375 22.5H38.4375C38.1889 22.5 37.9504 22.5988 37.7746 22.7746C37.5988 22.9504 37.5 23.1889 37.5 23.4375C37.5 23.6861 37.5988 23.9246 37.7746 24.1004C37.9504 24.2762 38.1889 24.375 38.4375 24.375H53.4375C53.6861 24.375 53.9246 24.2762 54.1004 24.1004C54.2762 23.9246 54.375 23.6861 54.375 23.4375C54.375 23.1889 54.2762 22.9504 54.1004 22.7746C53.9246 22.5988 53.6861 22.5 53.4375 22.5ZM53.4375 26.25H40.3125C40.0639 26.25 39.8254 26.3488 39.6496 26.5246C39.4738 26.7004 39.375 26.9389 39.375 27.1875C39.375 27.4361 39.4738 27.6746 39.6496 27.8504C39.8254 28.0262 40.0639 28.125 40.3125 28.125H53.4375C53.6861 28.125 53.9246 28.0262 54.1004 27.8504C54.2762 27.6746 54.375 27.4361 54.375 27.1875C54.375 26.9389 54.2762 26.7004 54.1004 26.5246C53.9246 26.3488 53.6861 26.25 53.4375 26.25ZM53.4375 13.125H29.0625C28.8139 13.125 28.5754 13.2238 28.3996 13.3996C28.2238 13.5754 28.125 13.8139 28.125 14.0625V19.6875C28.125 19.9361 28.2238 20.1746 28.3996 20.3504C28.5754 20.5262 28.8139 20.625 29.0625 20.625H53.4375C53.6861 20.625 53.9246 20.5262 54.1004 20.3504C54.2762 20.1746 54.375 19.9361 54.375 19.6875V14.0625C54.375 13.8139 54.2762 13.5754 54.1004 13.3996C53.9246 13.2238 53.6861 13.125 53.4375 13.125ZM52.5 18.75H30V15H52.5V18.75ZM22.5 17.8125C22.5 17.5639 22.4012 17.3254 22.2254 17.1496C22.0496 16.9738 21.8111 16.875 21.5625 16.875H10.3125C10.0639 16.875 9.8254 16.9738 9.64959 17.1496C9.47377 17.3254 9.375 17.5639 9.375 17.8125V29.0625C9.375 29.3111 9.47377 29.5496 9.64959 29.7254C9.8254 29.9012 10.0639 30 10.3125 30H21.5625C21.8111 30 22.0496 29.9012 22.2254 29.7254C22.4012 29.5496 22.5 29.3111 22.5 29.0625V17.8125ZM20.625 28.125H11.25V18.75H20.625V28.125Z" fill="#4285B4"></path></svg> 