<?xml version="1.0" encoding="UTF-8"?> <svg xmlns="http://www.w3.org/2000/svg" width="60" height="60" viewBox="0 0 60 60" fill="none"><g clip-path="url(#clip0_424_12554)"><path d="M50.4502 57.9626L49.9449 57.5094C49.5756 57.1764 40.8988 49.2843 40.8988 41.9956C40.852 36.7212 45.0895 32.4065 50.3648 32.3598C55.6392 32.3129 59.9539 36.5504 60.0006 41.8257C60.0013 41.8824 60.0013 41.939 60.0006 41.9956C60.0006 49.2843 51.3246 57.1756 50.9554 57.5094L50.4502 57.9626ZM50.4502 33.9533C46.0103 33.9563 42.4109 37.5542 42.4056 41.9941C42.4056 47.6666 48.6098 54.12 50.4465 55.9068C52.2824 54.1199 58.4866 47.6597 58.4866 41.9941C58.4813 37.5571 54.8872 33.9608 50.4502 33.9533ZM50.4502 46.2672C48.0901 46.2672 46.1764 44.3534 46.1764 41.9934C46.1764 39.6334 48.0902 37.7196 50.4502 37.7196C52.8102 37.7196 54.724 39.6334 54.724 41.9934V41.9941C54.7217 44.3534 52.8096 46.2649 50.4502 46.2672ZM50.4502 39.2308C48.9239 39.2308 47.6869 40.4678 47.6869 41.9941C47.6869 43.5204 48.9239 44.7574 50.4502 44.7574C51.9765 44.7574 53.2135 43.5204 53.2135 41.9941C53.2121 40.4686 51.9758 39.2322 50.4502 39.2308Z" fill="#4285B4"></path><path d="M49.8209 14.6484H47.5778V16.1589H49.8209C53.3659 16.1589 56.2403 19.0333 56.2403 22.5783C56.2403 26.1233 53.3659 28.9977 49.8209 28.9977H29.4299C25.0503 28.9977 21.5 32.548 21.5 36.9276C21.5 41.3071 25.0503 44.8574 29.4299 44.8574H38.1149C38.5319 44.8574 38.8702 44.5191 38.8702 44.1022C38.8702 43.6853 38.5319 43.347 38.1149 43.347H29.4299C25.8848 43.347 23.0104 40.4726 23.0104 36.9276C23.0104 33.3826 25.8848 30.5082 29.4299 30.5082H49.8209C54.2004 30.5082 57.7507 26.9579 57.7507 22.5783C57.7507 18.1987 54.2004 14.6484 49.8209 14.6484ZM31.318 14.6484C30.901 14.6484 30.5627 14.9867 30.5627 15.4037C30.5627 15.8206 30.901 16.1589 31.318 16.1589H41.5361V14.6484H31.318Z" fill="#131313"></path><path d="M44.5582 19.1784C42.4729 19.1784 40.7821 17.4875 40.7821 15.4023C40.7821 13.3171 42.4729 11.6262 44.5582 11.6262C46.6434 11.6262 48.3342 13.3171 48.3342 15.4023C48.332 17.4866 46.6425 19.1761 44.5582 19.1784ZM44.5582 13.1366C43.3068 13.1366 42.2925 14.1509 42.2925 15.4023C42.2925 16.6536 43.3068 17.6679 44.5582 17.6679C45.8095 17.6679 46.8238 16.6536 46.8238 15.4023C46.8238 14.1509 45.8095 13.1366 44.5582 13.1366ZM14.3493 28.2411C14.128 28.241 13.9088 28.1974 13.7043 28.1127L1.04524 22.8715C0.735463 22.7442 0.470615 22.5275 0.28446 22.2491C0.0983054 21.9707 -0.000721509 21.6431 3.95767e-06 21.3082V8.9648C-0.000416221 8.62985 0.0987222 8.30233 0.284828 8.02384C0.470934 7.74535 0.73561 7.52845 1.04524 7.4007L13.702 2.16326C14.1166 1.99245 14.5819 1.99245 14.9965 2.16326L27.6532 7.4007C27.9628 7.52845 28.2275 7.74535 28.4136 8.02384C28.5997 8.30233 28.6989 8.62985 28.6984 8.9648V21.3081C28.6993 21.6432 28.6002 21.971 28.4139 22.2496C28.2276 22.5282 27.9625 22.7449 27.6525 22.8722L14.9965 28.1104C14.7914 28.1959 14.5715 28.2403 14.3493 28.2411ZM14.3493 3.54527C14.3251 3.54527 14.3019 3.5498 14.2798 3.55886L1.62293 8.7963C1.55497 8.82419 1.51044 8.89075 1.51044 8.96469V21.3081C1.51044 21.3813 1.55427 21.4478 1.62223 21.4758L14.2798 26.7147C14.3243 26.7336 14.3758 26.7336 14.4203 26.7147L27.0755 21.4773C27.1435 21.4486 27.188 21.3821 27.188 21.3081V8.9648C27.188 8.89075 27.1435 8.8243 27.0755 8.79642L14.4188 3.55816C14.3966 3.54976 14.373 3.54539 14.3493 3.54527Z" fill="#4285B4"></path><path d="M15.1051 27.489H13.5947V14.4719L0.652344 9.11435L1.23086 7.71875L14.6391 13.2703C14.7775 13.3276 14.8957 13.4248 14.9787 13.5495C15.0617 13.6742 15.1057 13.8207 15.1051 13.9705V27.489Z" fill="#4285B4"></path><path d="M14.0643 13.2708L27.4726 7.71304L28.0511 9.10864L14.6428 14.6664L14.0643 13.2708ZM8.21094 10.8795L20.8271 4.90625L21.4734 6.27103L8.85706 12.2442L8.21094 10.8795Z" fill="#4285B4"></path></g><defs><clipPath id="clip0_424_12554"><rect width="60" height="60" fill="white"></rect></clipPath></defs></svg> 