<?xml version="1.0" encoding="UTF-8"?> <svg xmlns="http://www.w3.org/2000/svg" width="60" height="60" viewBox="0 0 60 60" fill="none"><path d="M43.302 10.9888C43.2196 10.9082 43.1221 10.8445 43.0152 10.8016C42.9082 10.7586 42.7938 10.7371 42.6785 10.7384C42.5632 10.7396 42.4493 10.7636 42.3433 10.8088C42.2373 10.8541 42.1412 10.9198 42.0606 11.0022C41.9799 11.0846 41.9163 11.1821 41.8734 11.289C41.8304 11.396 41.8089 11.5104 41.8102 11.6257C41.8114 11.741 41.8354 11.8549 41.8806 11.9609C41.9259 12.0669 41.9916 12.163 42.074 12.2436C45.3897 15.4886 47.2361 19.8232 47.2727 24.4491C47.3456 33.9006 39.4505 41.8574 29.9983 41.8574C25.9768 41.8573 22.267 40.4732 19.3249 38.1538C19.5102 38.1028 19.6738 37.9923 19.7903 37.8393C19.9068 37.6864 19.97 37.4994 19.97 37.3071V35.5789C21.0769 35.678 22.6504 35.8984 23.3404 36.4282C23.9025 36.8597 24.5969 37.0977 25.2954 37.0982L37.2847 37.1054C39.407 36.9076 40.8626 34.7191 39.6259 32.8118C40.8381 31.9848 41.1988 30.159 40.3546 28.9343C41.4977 28.0843 41.8118 26.3209 40.9945 25.1289C43.0231 23.6312 42.0716 20.1061 39.3466 20.1042L31.8292 20.0996C32.5274 17.6208 32.422 15.0304 31.5155 12.0525C30.6795 9.30633 26.358 9.9934 26.5088 12.9384C26.6706 16.0903 24.7802 17.3354 22.3867 18.9118C21.58 19.4432 20.7569 19.9854 19.97 20.6257V19.1679C19.97 19.0526 19.9473 18.9384 19.9032 18.8319C19.8591 18.7254 19.7944 18.6286 19.7129 18.5471C19.6314 18.4656 19.5346 18.4009 19.4281 18.3568C19.3216 18.3127 19.2074 18.29 19.0921 18.29H13.9083C16.4473 11.8138 22.9175 7.36453 29.8662 7.31098C33.1846 7.28426 36.4185 8.20805 39.2144 9.98027C39.411 10.1015 39.6474 10.1403 39.8725 10.0884C40.0975 10.0365 40.293 9.89801 40.4167 9.70294C40.5403 9.50786 40.5821 9.27192 40.533 9.04624C40.4839 8.82057 40.3479 8.62333 40.1543 8.49727C37.1147 6.57082 33.6077 5.55469 30.0022 5.55469C19.5945 5.55469 10.8907 14.3236 10.9713 24.7311C11.052 35.0348 19.6854 43.6136 29.9982 43.613C40.4188 43.613 49.1088 34.8605 49.0284 24.4352C48.9881 19.3384 46.9544 14.563 43.302 10.9888ZM19.9704 23.0121C20.9725 21.9458 22.1811 21.1499 23.3525 20.3783C25.8711 18.7194 28.4754 17.004 28.2622 12.8487C28.2201 12.0285 29.5301 11.56 29.8357 12.564C30.7679 15.6261 30.7538 18.1978 29.7916 20.657C29.6422 21.3438 29.9145 21.743 30.6085 21.8548L39.3454 21.86C39.9122 21.8604 40.3731 22.3219 40.3728 22.8887C40.3724 23.4553 39.9113 23.9161 39.3448 23.9161H39.3442L36.9733 23.9146H36.9727C36.7399 23.9145 36.5166 24.0069 36.3519 24.1715C36.1872 24.3361 36.0946 24.5593 36.0946 24.7921C36.0945 25.0249 36.1869 25.2483 36.3515 25.4129C36.516 25.5776 36.7393 25.6702 36.9721 25.6703L38.708 25.6714C39.27 25.6774 39.7253 26.1367 39.725 26.7C39.7246 27.2666 39.2634 27.7274 38.6969 27.7274H38.6963L36.9706 27.7263H36.9701C36.7373 27.7262 36.514 27.8187 36.3493 27.9832C36.1846 28.1478 36.0921 28.3711 36.092 28.6039C36.0919 28.8367 36.1843 29.06 36.3489 29.2247C36.5135 29.3894 36.7367 29.482 36.9695 29.482L38.0745 29.4827C38.6354 29.4899 39.0893 29.9488 39.089 30.5113C39.0886 31.0779 38.6274 31.5387 38.0609 31.5387H38.0603L36.3347 31.5376H36.3341C36.1013 31.5375 35.878 31.63 35.7133 31.7945C35.5486 31.9591 35.4561 32.1824 35.456 32.4152C35.4559 32.648 35.5483 32.8713 35.7129 33.036C35.8775 33.2007 36.1007 33.2932 36.3336 33.2933L37.2866 33.2939C37.913 33.3532 38.2554 33.6961 38.3139 34.3225C38.3134 34.9316 37.8104 35.2679 37.2854 35.3498L25.2961 35.3426C24.9816 35.3423 24.6666 35.2335 24.409 35.0357C23.3815 34.2469 21.6599 33.957 19.97 33.8174V23.0121H19.9704ZM13.3279 20.046H18.2143V36.4293H17.44C14.5499 33.3669 12.7626 29.2502 12.7271 24.7177C12.7147 23.1184 12.9196 21.55 13.3279 20.046Z" fill="#4285B4"></path><path d="M54.7237 22.6014L51.9024 18.5856C51.6245 18.1918 51.4793 17.7197 51.4879 17.2378L51.5658 12.3306C51.5808 11.4778 51.3247 10.6422 50.8344 9.9443C50.3441 9.24638 49.6448 8.72214 48.8374 8.44711L44.1945 6.85676C43.7404 6.70225 43.3471 6.40769 43.0711 6.01547L40.2556 1.85859C39.2442 0.538591 37.3732 -0.230745 35.7333 0.315818L31.0535 1.90172C30.5989 2.04037 30.1121 2.03225 29.6623 1.87851L24.9422 0.214451C23.3033 -0.346877 21.4235 0.218201 20.3954 1.6234L17.5233 5.61094C17.2349 5.99367 16.8326 6.27518 16.3743 6.41508L11.6833 7.85742C10.8676 8.10668 10.1521 8.60844 9.63986 9.29041C9.12764 9.97239 8.84512 10.7994 8.83303 11.6522L8.7551 16.5594C8.74847 17.0413 8.58837 17.5086 8.29807 17.8934L5.3508 21.8175C4.8372 22.4985 4.55314 23.3251 4.53957 24.1779C4.52601 25.0308 4.78364 25.866 5.27533 26.563L8.09662 30.579C8.37452 30.9728 8.51967 31.4448 8.51099 31.9267L8.43318 36.8338C8.41798 37.6866 8.674 38.5223 9.16433 39.2202C9.65466 39.9182 10.354 40.4424 11.1614 40.7173L15.8045 42.3078C16.3607 42.5311 16.7825 42.882 17.07 43.3605L15.8454 45.4816C15.7878 45.5815 15.7503 45.6917 15.7353 45.806C15.7202 45.9203 15.7278 46.0364 15.7577 46.1478C15.7875 46.2591 15.839 46.3635 15.9092 46.455C15.9794 46.5465 16.0669 46.6232 16.1667 46.6808C16.6106 46.9109 17.0104 46.8038 17.3659 46.3595L18.1604 44.9834L19.7413 47.3361C20.646 48.6933 22.7101 49.4186 24.2705 48.8798L27.0278 47.9262L21.6376 57.2628L19.4597 52.8575C19.383 52.7021 19.262 52.5728 19.1118 52.4862C18.9617 52.3995 18.7893 52.3593 18.6163 52.3706L13.7125 52.6866L15.4498 49.6779C15.5074 49.5781 15.5449 49.4678 15.5599 49.3535C15.575 49.2392 15.5674 49.1231 15.5375 49.0117C15.5077 48.9004 15.4562 48.796 15.386 48.7045C15.3158 48.6131 15.2283 48.5363 15.1285 48.4787C15.0286 48.4211 14.9184 48.3836 14.8041 48.3686C14.6898 48.3535 14.5737 48.3611 14.4623 48.391C14.3509 48.4208 14.2466 48.4723 14.1551 48.5425C14.0636 48.6127 13.9869 48.7002 13.9293 48.8L11.3718 53.2289C11.0084 53.9868 11.3156 54.5427 12.1885 54.5439L18.1452 54.1601L20.7908 59.5113C21.1038 60.1441 21.9901 60.1641 22.3381 59.5611L29.4929 47.1674C29.8774 47.1627 30.2433 47.2327 30.5908 47.3774L37.6258 59.5611C37.9738 60.1638 38.8599 60.1444 39.173 59.5113L41.8186 54.1601L47.7753 54.5439C48.5735 54.5866 48.9686 53.9575 48.5919 53.2288L46.0415 48.8125C45.9237 48.6134 45.7322 48.4689 45.5085 48.4102C45.2848 48.3515 45.047 48.3835 44.8467 48.4992C44.6465 48.6148 44.4999 48.8048 44.4389 49.0279C44.3779 49.2509 44.4074 49.4891 44.521 49.6905L46.2511 52.6862L41.3475 52.3703C41.1746 52.3593 41.0023 52.3996 40.8522 52.4862C40.7022 52.5729 40.5811 52.7019 40.5041 52.8572L38.3261 57.2627L33.151 48.3C34.0418 48.7089 35.2964 49.1808 36.2987 49.1808C37.543 49.1808 38.7447 48.6026 39.5279 47.5597L41.6367 44.6936L42.6062 46.3731C42.9617 46.8175 43.3614 46.9246 43.8053 46.6945C43.9051 46.6369 43.9927 46.5602 44.0628 46.4687C44.133 46.3773 44.1845 46.2729 44.2144 46.1616C44.2442 46.0502 44.2518 45.9341 44.2368 45.8198C44.2218 45.7055 44.1844 45.5953 44.1267 45.4955L42.8035 43.2029C43.0425 42.9959 43.3222 42.8414 43.6247 42.7492L48.3158 41.3068C49.1315 41.0576 49.847 40.5558 50.3592 39.8738C50.8715 39.1919 51.154 38.3649 51.1661 37.5121L51.244 32.6047C51.2506 32.1228 51.4107 31.6556 51.701 31.2709L54.6484 27.3466C55.1619 26.6656 55.4459 25.8391 55.4594 24.9863C55.473 24.1334 55.2153 23.2983 54.7237 22.6014ZM53.2444 26.2924L50.2971 30.2166C49.7835 30.8974 49.5002 31.7243 49.4884 32.5771L49.4105 37.4843C49.4037 37.9662 49.2441 38.4336 48.9546 38.819C48.6652 39.2043 48.2608 39.4879 47.7999 39.6287L43.1087 41.071C42.1628 41.2821 41.4726 41.9009 40.9992 42.5977L38.119 46.5123C37.831 46.8975 37.4284 47.1814 36.9689 47.3234C36.5095 47.4654 36.0168 47.4581 35.5617 47.3026L30.9264 45.632C30.0874 45.3398 28.9901 45.3691 28.3895 45.5972L23.7123 47.215C23.2546 47.3535 22.765 47.3443 22.3128 47.1888C21.8606 47.0333 21.4689 46.7392 21.1933 46.3485L18.3791 42.1601C17.905 41.4689 17.2365 40.9644 16.3738 40.6466L11.7307 39.0559C11.2745 38.9005 10.8793 38.6042 10.6022 38.2098C10.3252 37.8154 10.1805 37.3433 10.189 36.8613L10.2668 31.9542C10.2822 31.1015 10.0253 30.2661 9.53357 29.5692L6.71205 25.5536C6.43425 25.1596 6.28869 24.6877 6.29635 24.2057C6.30402 23.7238 6.46451 23.2567 6.75471 22.8718L9.70197 18.9477C10.2156 18.2668 10.4988 17.44 10.5107 16.5872L10.5886 11.68C10.5954 11.198 10.755 10.7307 11.0445 10.3453C11.3339 9.95991 11.7383 9.67637 12.1992 9.53554L16.8903 8.0932C17.7615 7.80218 18.4455 7.31937 18.9423 6.64476L21.8145 2.65722C22.4107 1.86926 23.438 1.55531 24.3659 1.87289L29.0858 3.53683C29.9661 3.81949 30.8056 3.83015 31.6044 3.56883L36.2841 1.98293C36.7422 1.84371 37.2327 1.85255 37.6855 2.00821C38.1383 2.16386 38.5306 2.45839 38.8063 2.84988L41.6219 7.00676C42.0979 7.69512 42.7658 8.19875 43.6254 8.51765L48.2684 10.108C48.7247 10.2634 49.1199 10.5596 49.397 10.9541C49.6741 11.3485 49.8188 11.8207 49.8102 12.3027L49.7323 17.21C49.7171 18.0627 49.974 18.8981 50.4656 19.5949L53.2869 23.6107C53.5648 24.0046 53.7103 24.4765 53.7027 24.9585C53.695 25.4404 53.5346 25.9075 53.2444 26.2924Z" fill="#131313"></path><path d="M15.456 25.4588C15.2232 25.4588 14.9999 25.3663 14.8352 25.2017C14.6706 25.0371 14.5781 24.8138 14.5781 24.581C14.5781 24.3482 14.6706 24.1249 14.8352 23.9602C14.9999 23.7956 15.2232 23.7031 15.456 23.7031C15.6888 23.7031 15.9121 23.7956 16.0767 23.9602C16.2413 24.1249 16.3338 24.3482 16.3338 24.581C16.3338 24.8138 16.2413 25.0371 16.0767 25.2017C15.9121 25.3663 15.6888 25.4588 15.456 25.4588Z" fill="#131313"></path></svg> 